<svg width="35" height="35" viewBox="0 0 35 35" fill="none" xmlns="http://www.w3.org/2000/svg">
<path d="M25.5664 8.68164H28.0273C28.7623 8.68164 29.3604 8.08363 29.3604 7.34863V1.33301C29.3604 0.598008 28.7623 0 28.0273 0H25.5664C24.8314 0 24.2334 0.598008 24.2334 1.33301V2.80273H23.5223C23.2391 2.80273 23.0096 3.03229 23.0096 3.31543C23.0096 3.59857 23.2391 3.82812 23.5223 3.82812H24.2334V4.85352H20.2202C20.2515 4.68727 20.2686 4.51603 20.2686 4.34082C20.2686 4.16562 20.2515 3.99437 20.2202 3.82812H21.357C21.6402 3.82812 21.8697 3.59857 21.8697 3.31543C21.8697 3.03229 21.6402 2.80273 21.357 2.80273H19.8006C19.3035 2.06131 18.4579 1.57227 17.5 1.57227C16.5421 1.57227 15.6965 2.06131 15.1993 2.80273H10.7666V1.33301C10.7666 0.598008 10.1686 0 9.43359 0H6.97266C6.23766 0 5.63965 0.598008 5.63965 1.33301V2.16597C5.63965 2.44911 5.86913 2.67866 6.15234 2.67866C6.43556 2.67866 6.66504 2.44911 6.66504 2.16597V1.33301C6.66504 1.16341 6.80306 1.02539 6.97266 1.02539H9.43359C9.60319 1.02539 9.74121 1.16341 9.74121 1.33301V7.34863C9.74121 7.51823 9.60319 7.65625 9.43359 7.65625H6.97266C6.80306 7.65625 6.66504 7.51823 6.66504 7.34863V4.34082C6.66504 4.05768 6.43556 3.82812 6.15234 3.82812C5.86913 3.82812 5.63965 4.05768 5.63965 4.34082V7.34863C5.63965 8.08363 6.23766 8.68164 6.97266 8.68164H9.43359C10.1686 8.68164 10.7666 8.08363 10.7666 7.34863V5.87891H15.1993C15.4013 6.1801 15.6607 6.43952 15.9619 6.64152V28.3585C15.6607 28.5605 15.4013 28.8199 15.1993 29.1211H10.7666V27.6514C10.7666 26.9164 10.1686 26.3184 9.43359 26.3184H6.97266C6.23766 26.3184 5.63965 26.9164 5.63965 27.6514V33.667C5.63965 34.402 6.23766 35 6.97266 35H9.43359C10.1686 35 10.7666 34.402 10.7666 33.667V32.1973H15.1993C15.6965 32.9387 16.5421 33.4277 17.5 33.4277C18.4579 33.4277 19.3035 32.9387 19.8007 32.1973H24.2334V33.667C24.2334 34.402 24.8314 35 25.5664 35H28.0273C28.7623 35 29.3604 34.402 29.3604 33.667V27.6514C29.3604 26.9164 28.7623 26.3184 28.0273 26.3184H25.5664C24.8314 26.3184 24.2334 26.9164 24.2334 27.6514V29.1211H19.8007C19.5987 28.8199 19.3393 28.5605 19.0381 28.3585V26.292C19.0381 26.0088 18.8086 25.7793 18.5254 25.7793C18.2422 25.7793 18.0127 26.0088 18.0127 26.292V27.939C17.8464 27.9077 17.6752 27.8906 17.5 27.8906C17.3248 27.8906 17.1536 27.9077 16.9873 27.939V7.06098C17.1536 7.09229 17.3248 7.10938 17.5 7.10938C17.6752 7.10938 17.8464 7.09229 18.0127 7.06098V24.0027C18.0127 24.2858 18.2422 24.5154 18.5254 24.5154C18.8086 24.5154 19.0381 24.2858 19.0381 24.0027V6.64152C19.3393 6.43952 19.5987 6.1801 19.8007 5.87891H24.2334V7.34863C24.2334 8.08363 24.8314 8.68164 25.5664 8.68164ZM9.74121 33.667C9.74121 33.8366 9.60319 33.9746 9.43359 33.9746H6.97266C6.80306 33.9746 6.66504 33.8366 6.66504 33.667V27.6514C6.66504 27.4818 6.80306 27.3438 6.97266 27.3438H9.43359C9.60319 27.3438 9.74121 27.4818 9.74121 27.6514V33.667ZM10.7666 31.1719V30.1465H14.7798C14.7485 30.3127 14.7314 30.484 14.7314 30.6592C14.7314 30.8344 14.7485 31.0056 14.7798 31.1719H10.7666ZM25.2588 27.6514C25.2588 27.4818 25.3968 27.3438 25.5664 27.3438H28.0273C28.1969 27.3438 28.335 27.4818 28.335 27.6514V33.667C28.335 33.8366 28.1969 33.9746 28.0273 33.9746H25.5664C25.3968 33.9746 25.2588 33.8366 25.2588 33.667V27.6514ZM24.2334 30.1465V31.1719H20.2202C20.2515 31.0056 20.2686 30.8344 20.2686 30.6592C20.2686 30.484 20.2515 30.3127 20.2202 30.1465H24.2334ZM19.2432 30.6592C19.2432 31.6204 18.4612 32.4023 17.5 32.4023C16.5388 32.4023 15.7568 31.6204 15.7568 30.6592C15.7568 29.698 16.5388 28.916 17.5 28.916C18.4612 28.916 19.2432 29.698 19.2432 30.6592ZM10.7666 4.85352V3.82812H14.7798C14.7485 3.99437 14.7314 4.16562 14.7314 4.34082C14.7314 4.51603 14.7485 4.68727 14.7798 4.85352H10.7666ZM15.7568 4.34082C15.7568 3.37962 16.5388 2.59766 17.5 2.59766C18.4612 2.59766 19.2432 3.37962 19.2432 4.34082C19.2432 5.30202 18.4612 6.08398 17.5 6.08398C16.5388 6.08398 15.7568 5.30202 15.7568 4.34082ZM25.2588 1.33301C25.2588 1.16341 25.3968 1.02539 25.5664 1.02539H28.0273C28.1969 1.02539 28.335 1.16341 28.335 1.33301V7.34863C28.335 7.51823 28.1969 7.65625 28.0273 7.65625H25.5664C25.3968 7.65625 25.2588 7.51823 25.2588 7.34863V1.33301Z" fill="#1D1D1B"/>
</svg>
