<svg width="32" height="32" viewBox="0 0 32 32" fill="none" xmlns="http://www.w3.org/2000/svg">
<path d="M26.625 15.1875C26.625 14.8423 26.3452 14.5625 26 14.5625C25.6548 14.5625 25.375 14.8423 25.375 15.1875C25.375 17.2554 23.6929 18.9375 21.625 18.9375C21.2798 18.9375 21 19.2173 21 19.5625C21 19.9077 21.2798 20.1875 21.625 20.1875C24.3821 20.1875 26.625 17.9446 26.625 15.1875Z" fill="black"/>
<path d="M13.604 21.2795C13.2737 21.7778 10.375 26.2021 10.375 28.0625C10.375 30.1968 12.0923 32 14.125 32C16.1577 32 17.875 30.1968 17.875 28.0625C17.875 26.2021 14.9763 21.7778 14.646 21.2795C14.53 21.105 14.3345 21 14.125 21C13.9155 21 13.72 21.105 13.604 21.2795ZM16.625 28.0625C16.625 29.4941 15.4568 30.75 14.125 30.75C12.7932 30.75 11.625 29.4941 11.625 28.0625C11.625 27.0994 12.9978 24.5857 14.125 22.781C15.2522 24.5857 16.625 27.0994 16.625 28.0625Z" fill="black"/>
<path d="M7.25 10.375C7.04468 10.375 6.85254 10.4758 6.73584 10.6448C6.34058 11.2168 2.875 16.2976 2.875 18.5C2.875 20.9124 4.83765 22.875 7.25 22.875C9.66235 22.875 11.625 20.9124 11.625 18.5C11.625 16.2976 8.15942 11.2168 7.76416 10.6448C7.64746 10.4758 7.45532 10.375 7.25 10.375ZM7.25 21.625C5.52686 21.625 4.125 20.2231 4.125 18.5C4.125 17.2913 5.8728 14.2227 7.25 12.1206C8.6272 14.2224 10.375 17.2905 10.375 18.5C10.375 20.2231 8.97314 21.625 7.25 21.625Z" fill="black"/>
<path d="M15.375 14.5625C15.375 14.9077 15.0952 15.1875 14.75 15.1875C14.4048 15.1875 14.125 14.9077 14.125 14.5625C14.125 14.2173 14.4048 13.9375 14.75 13.9375C15.0952 13.9375 15.375 14.2173 15.375 14.5625Z" fill="black"/>
<path d="M22.1517 0.288574C22.0367 0.108887 21.8383 0 21.6249 0C21.4115 0 21.213 0.108887 21.098 0.288574C20.9181 0.570557 16.6698 7.24536 14.8964 11.9512C14.7745 12.2742 14.9379 12.6348 15.2609 12.7563C15.5836 12.8782 15.9442 12.7151 16.066 12.3921C17.4318 8.76758 20.4164 3.76929 21.6266 1.80347C23.7633 5.25879 27.8749 12.4692 27.8749 15.1875C27.8749 18.6338 25.0712 21.4375 21.6249 21.4375C18.8346 21.4375 16.36 19.5637 15.6068 16.8806C15.5136 16.5483 15.1686 16.3545 14.8361 16.4478C14.5038 16.541 14.3102 16.8862 14.4032 17.2185C15.3073 20.4385 18.277 22.6875 21.6249 22.6875C25.7604 22.6875 29.1249 19.323 29.1249 15.1875C29.1249 11.7424 23.9344 3.07593 22.1517 0.288574Z" fill="black"/>
</svg>
