<svg width="35" height="35" viewBox="0 0 35 35" fill="none" xmlns="http://www.w3.org/2000/svg">
<path d="M34.4873 20.2125C34.7705 20.2125 35 19.983 35 19.6998V17.3377C35 16.4519 34.2794 15.7313 33.3936 15.7313C32.5078 15.7313 31.7871 16.4519 31.7871 17.3377V17.9056H30.5908V16.1345C30.5908 15.7079 30.4032 15.3066 30.076 15.0334L24.4251 10.3135C24.168 10.0987 23.8421 9.98054 23.5074 9.98054H18.2147V8.47663H21.8719C22.7577 8.47663 23.4784 7.75599 23.4784 6.87019C23.4784 5.98438 22.7577 5.26367 21.8719 5.26367H15.2968C15.0136 5.26367 14.7841 5.49315 14.7841 5.77637C14.7841 6.05958 15.0136 6.28906 15.2968 6.28906H21.872C22.1924 6.28906 22.453 6.54972 22.453 6.87012C22.453 7.19052 22.1924 7.45117 21.872 7.45117H11.4814C11.161 7.45117 10.9003 7.19052 10.9003 6.87012C10.9003 6.54972 11.161 6.28906 11.4814 6.28906H13.1093C13.3925 6.28906 13.622 6.05958 13.622 5.77637C13.622 5.49315 13.3925 5.26367 13.1093 5.26367H11.4814C10.5956 5.26367 9.87492 5.98432 9.87492 6.87012C9.87492 7.75592 10.5956 8.47656 11.4814 8.47656H15.1386V9.98047H9.2953C9.00724 9.98047 8.72901 10.0661 8.49078 10.2279L5.0372 12.5744C4.64399 12.8416 4.40918 13.2852 4.40918 13.7609V16.9983H3.21289V13.501C3.21289 12.6152 2.49225 11.8945 1.60645 11.8945C0.720645 11.8945 0 12.6152 0 13.501V23.8916C0 24.7774 0.720645 25.498 1.60645 25.498C2.49225 25.498 3.21289 24.7774 3.21289 23.8916V20.0746H4.40918V23.2421C4.40918 23.7891 4.71283 24.2807 5.2016 24.5251L15.3219 29.5851C15.5196 29.684 15.741 29.7363 15.9621 29.7363H17.5C17.7832 29.7363 18.0127 29.5068 18.0127 29.2236C18.0127 28.9404 17.7832 28.7109 17.5 28.7109H15.9621C15.8994 28.7109 15.8367 28.6961 15.7806 28.6681L5.66016 23.608C5.52105 23.5384 5.43457 23.3983 5.43457 23.2421V13.761C5.43457 13.6253 5.50149 13.4987 5.61347 13.4226L9.06705 11.0761C9.13459 11.0302 9.21354 11.0059 9.29523 11.0059H23.5073C23.6022 11.0059 23.6947 11.0395 23.7677 11.1005L29.4187 15.8204C29.5119 15.8983 29.5654 16.0127 29.5654 16.1345V28.3024C29.5654 28.5277 29.3827 28.7111 29.1582 28.7111H19.6928C19.4095 28.7111 19.1801 28.9406 19.1801 29.2238C19.1801 29.507 19.4095 29.7365 19.6928 29.7365H29.1583C29.9482 29.7365 30.5908 29.0931 30.5908 28.3024V27.1605H31.7871V27.7285C31.7871 28.6143 32.5078 29.3349 33.3936 29.3349C34.2794 29.3349 35 28.6143 35 27.7285V21.8873C35 21.6041 34.7705 21.3746 34.4873 21.3746C34.2041 21.3746 33.9746 21.6041 33.9746 21.8873V27.7283C33.9746 28.0487 33.714 28.3094 33.3936 28.3094C33.0732 28.3094 32.8125 28.0487 32.8125 27.7283V17.3377C32.8125 17.0173 33.0732 16.7567 33.3936 16.7567C33.714 16.7567 33.9746 17.0173 33.9746 17.3377V19.6998C33.9746 19.983 34.2041 20.2125 34.4873 20.2125ZM2.1875 23.8916C2.1875 24.212 1.92685 24.4727 1.60645 24.4727C1.28604 24.4727 1.02539 24.212 1.02539 23.8916V13.501C1.02539 13.1806 1.28604 12.9199 1.60645 12.9199C1.92685 12.9199 2.1875 13.1806 2.1875 13.501V23.8916ZM3.21289 19.0492V18.0238H4.40918V19.0492H3.21289ZM16.1639 9.98047V8.47656H17.1893V9.98047H16.1639ZM30.5908 26.135V18.931H31.7871V26.1351H30.5908V26.135Z" fill="#1D1D1B"/>
<path d="M14.6851 24.4027C14.8188 24.5014 14.974 24.5511 15.1294 24.5511C15.2745 24.5511 15.4199 24.5079 15.5484 24.4212L20.7559 20.9061C20.9373 20.7837 21.0556 20.5887 21.0806 20.3713C21.1055 20.1538 21.0343 19.9371 20.8854 19.777L19.4645 18.2476L20.5178 15.16C20.6233 14.8511 20.5181 14.5128 20.2563 14.3181C19.9943 14.1232 19.6399 14.12 19.3746 14.3099C19.3746 14.3099 19.3746 14.3099 19.3746 14.3099L14.4462 17.8358C14.2688 17.9626 14.156 18.1599 14.1363 18.377C14.1167 18.5941 14.1925 18.8084 14.3441 18.9649L15.4691 20.126L14.4143 23.583C14.3206 23.89 14.4269 24.2119 14.6851 24.4027ZM15.3044 18.4825L19.2683 15.6466L18.4404 18.0733C18.3514 18.3343 18.4126 18.6218 18.6004 18.824L19.9136 20.2376L15.6234 23.1334L16.4975 20.269C16.577 20.0086 16.5087 19.7255 16.3193 19.5299L15.3044 18.4825Z" fill="#1D1D1B"/>
</svg>
