<svg width="33" height="33" viewBox="0 0 33 33" fill="none" xmlns="http://www.w3.org/2000/svg">
<path d="M17.6716 5.09204H5.43406C5.0538 5.09204 4.74268 5.40317 4.74268 5.78343V13.8727C4.74268 14.2529 5.0538 14.5641 5.43406 14.5641H17.6716C18.0519 14.5641 18.363 14.2529 18.363 13.8727V5.78343C18.363 5.40317 18.0519 5.09204 17.6716 5.09204ZM16.9803 13.1813H6.12545V6.47482H16.9803V13.1813Z" fill="#1D1D1B"/>
<path d="M32.3017 29.913H20.714V18.8508H21.841C22.8642 18.8508 23.6939 19.6874 23.687 20.7106C23.687 20.7175 23.687 20.7175 23.687 20.7245V22.6396C23.687 24.6654 25.3256 26.304 27.3514 26.304C29.3771 26.304 31.0157 24.6654 31.0157 22.6396V11.7018C31.0157 10.568 30.594 9.47556 29.8196 8.63898L24.4129 2.4787L23.3759 3.39134L27.5657 8.16883C26.0515 8.42465 25.0283 9.85582 25.2841 11.37C25.5053 12.7113 26.6669 13.693 28.0289 13.693C28.6028 13.6861 29.1628 13.5133 29.6329 13.1814V22.6396C29.6329 23.8979 28.6097 24.9212 27.3514 24.9212C26.093 24.9212 25.0698 23.8979 25.0698 22.6396V20.7245C25.0767 18.9338 23.6317 17.4749 21.8479 17.468H21.841H20.714V4.58744C20.714 3.01107 19.4419 1.70435 17.8655 1.70435H5.01948C3.44312 1.70435 2.18479 3.01798 2.18479 4.58744V29.913H0.691389C0.311125 29.913 0 30.2241 0 30.6044C0 30.9847 0.311125 31.2958 0.691389 31.2958H32.3086C32.6889 31.2958 33 30.9847 33 30.6044C33 30.2241 32.6889 29.913 32.3017 29.913ZM28.0289 12.3033C27.2546 12.3033 26.6323 11.6742 26.6323 10.9067C26.6323 10.1393 27.2615 9.51013 28.0289 9.51013C28.8033 9.51013 29.4255 10.1393 29.4255 10.9067C29.4255 11.6742 28.7964 12.3033 28.0289 12.3033ZM19.3312 29.913H3.56757V4.58744C3.56757 3.7716 4.20365 3.08712 5.01948 3.08712H17.8655C18.6813 3.08712 19.3312 3.77851 19.3312 4.58744V29.913Z" fill="#1D1D1B"/>
</svg>
