<svg width="40" height="40" viewBox="0 0 40 40" fill="none" xmlns="http://www.w3.org/2000/svg">
<path d="M28.228 26.9559C28.1613 26.6395 27.8501 26.4373 27.5338 26.5041C25.1993 26.9969 22.692 27.2467 20.0818 27.2467C15.9398 27.2467 12.0281 26.6102 8.92031 25.4432H11.0647C11.4941 25.4432 11.8434 25.0888 11.8434 24.653L11.8425 22.4539C12.3798 23.2256 13.0646 24.2113 13.5984 24.9805C13.7552 25.2102 14.0691 25.4419 14.4166 25.4419L16.9927 25.4427C17.4079 25.4427 17.7458 25.099 17.7458 24.6765C17.7458 24.4615 17.6667 24.3066 17.5891 24.2065L14.4788 19.6738L17.0762 15.7017C17.0806 15.695 17.0848 15.6882 17.0889 15.6813C17.1599 15.5623 17.1975 15.4237 17.1975 15.2805C17.1975 14.8583 16.8603 14.5147 16.4457 14.5147H13.9793C13.6326 14.5147 13.3186 14.7455 13.16 14.9762L11.8434 16.9069V15.3037C11.8434 14.8678 11.4941 14.513 11.065 14.513L9.3093 14.5124C10.3119 14.16 11.4154 13.8526 12.6057 13.6002C12.9223 13.5331 13.1245 13.2223 13.0573 12.906C12.9902 12.5897 12.6789 12.3877 12.3624 12.4548C5.9068 13.8234 1.89648 16.7335 1.89648 20.0497C1.89648 22.3742 3.85102 24.5187 7.39984 26.0881C10.7969 27.5904 15.3008 28.4176 20.0817 28.4176C22.7732 28.4176 25.362 28.1593 27.7759 27.6498C28.0925 27.583 28.295 27.2723 28.228 26.9559ZM8.70219 23.7663C8.37859 23.7663 8.11633 24.0284 8.11625 24.3516L8.11617 24.653C8.11617 24.876 8.20812 25.0773 8.35508 25.2211C8.19258 25.1545 8.03172 25.0869 7.87422 25.0172C4.82 23.6668 3.06836 21.8561 3.06836 20.0497C3.06836 18.2499 4.74477 16.5211 7.58961 15.2061V16.1658C7.58961 16.4773 7.8175 16.7366 8.11805 16.7844L8.1168 21.8602C8.11672 22.1835 8.37898 22.4457 8.70258 22.4458C8.70266 22.4458 8.70266 22.4458 8.70273 22.4458C9.02625 22.4458 9.28859 22.1837 9.28867 21.8605L9.29 16.409C9.29 16.0841 9.09594 15.8043 8.81938 15.6833L10.6715 15.684V18.4075C10.6715 18.8057 10.9755 19.1177 11.3634 19.1177C11.5055 19.1177 11.6483 19.074 11.7656 18.9946C11.7884 18.9792 11.8101 18.9622 11.8305 18.9437C11.8849 18.8944 11.9075 18.874 12.3476 18.2469C12.3491 18.2448 12.3505 18.2426 12.3521 18.2404L14.0941 15.6857H15.6867L13.3719 19.2255C13.2741 19.3676 13.2265 19.5162 13.2265 19.6796C13.2265 19.8991 13.3095 20.044 13.3745 20.1352L16.2128 24.2715L14.532 24.2709C11.9055 20.4857 11.8941 20.4755 11.823 20.4126C11.8083 20.3994 11.7927 20.3871 11.7766 20.3755C11.658 20.2902 11.5107 20.2431 11.3617 20.2431C10.9738 20.2431 10.67 20.555 10.67 20.9531L10.6713 24.2721H9.28273C9.24391 23.9866 8.99883 23.7664 8.70234 23.7663C8.70227 23.7663 8.70227 23.7663 8.70219 23.7663Z" fill="#1D1D1B"/>
<path d="M32.7639 14.0116C29.3666 12.5092 24.8625 11.6819 20.0814 11.6819C18.3135 11.6819 16.5673 11.7959 14.891 12.0205C14.5703 12.0634 14.3451 12.3581 14.3881 12.6786C14.4312 12.9992 14.7271 13.224 15.0467 13.181C16.6716 12.9632 18.3654 12.8527 20.0813 12.8527C24.7027 12.8527 29.0383 13.6445 32.2896 15.0823C35.3439 16.4329 37.0956 18.2435 37.0956 20.0499C37.0956 21.4441 36.0756 22.5754 35.2199 23.2788C34.6578 23.741 33.9797 24.177 33.2042 24.5788C33.175 24.4525 33.072 24.1347 32.7085 23.0139C32.4212 22.1279 32.0382 20.9482 31.6552 19.7691C30.9013 17.4481 30.1472 15.1291 30.1237 15.0567C30.0799 14.9199 29.9006 14.5134 29.3238 14.5134L25.8031 14.5164C25.6253 14.5164 25.4582 14.5857 25.3327 14.7116C25.2072 14.8374 25.1385 15.0045 25.139 15.1818L25.1417 16.147C25.1423 16.3247 25.2122 16.4914 25.3386 16.6164C25.3783 16.6556 25.422 16.6892 25.4689 16.7169C25.1789 17.5823 24.5268 19.5146 23.9784 21.1399C23.6797 22.0249 23.3977 22.8606 23.1903 23.4759C22.8197 24.5759 22.8197 24.5759 22.8197 24.6767C22.8197 25.0992 23.1596 25.443 23.5766 25.443L25.7767 25.4452C26.1374 25.4452 26.48 25.1849 26.5913 24.8266L28.0179 20.2526L29.4438 24.8224C29.5532 25.1831 29.8959 25.4451 30.2588 25.4451L31.2373 25.4443C30.8003 25.608 30.3453 25.7627 29.872 25.9067C29.5624 26.0009 29.3878 26.3279 29.4821 26.6373C29.5589 26.8899 29.7912 27.0524 30.0424 27.0524C30.0989 27.0524 30.1563 27.0442 30.2132 27.0269C32.5931 26.3032 34.5819 25.3197 35.9646 24.183C37.4712 22.9443 38.2676 21.5151 38.2676 20.0499C38.2675 17.7255 36.313 15.5809 32.7639 14.0116ZM30.5001 24.274L28.6772 18.4315C28.5901 18.1205 28.3275 17.9131 28.0177 17.9131C27.6996 17.9131 27.4378 18.1229 27.356 18.4391L25.5363 24.274L24.1586 24.2726C24.3729 23.6356 24.7349 22.5631 25.0889 21.5139C25.4733 20.3749 25.8852 19.1543 26.201 18.2163C26.7672 16.5352 26.7672 16.5352 26.7672 16.4288C26.7672 16.047 26.4724 15.8238 26.3124 15.731L26.3123 15.6869L29.0956 15.6846C29.9627 18.3513 31.3812 22.7164 31.8847 24.2729L30.5001 24.274Z" fill="#1D1D1B"/>
<path d="M33.9998 12.2994C30.2507 10.338 25.2788 9.25781 20.0002 9.25781C14.7213 9.25781 9.74938 10.338 6.00031 12.2994C2.13094 14.3236 0 17.0584 0 19.9998C0 22.9412 2.13094 25.6761 6.00031 27.7004C9.74945 29.662 14.7214 30.7422 20.0002 30.7422C25.2788 30.7422 30.2506 29.662 33.9998 27.7004C37.8691 25.6761 40 22.9412 40 19.9998C40 17.0583 37.8691 14.3236 33.9998 12.2994ZM33.4562 26.6631C29.8717 28.5384 25.0929 29.5712 20.0002 29.5712C14.9073 29.5712 10.1284 28.5384 6.54391 26.663C3.07969 24.8507 1.17188 22.4843 1.17188 19.9998C1.17188 17.5153 3.07969 15.149 6.54383 13.3367C10.1284 11.4615 14.9072 10.4288 20.0002 10.4288C25.093 10.4288 29.8717 11.4615 33.4562 13.3367C36.9203 15.149 38.8281 17.5153 38.8281 19.9998C38.8281 22.4843 36.9203 24.8507 33.4562 26.6631Z" fill="#1D1D1B"/>
<path d="M21.3166 14.5132H18.3973C18.0525 14.5132 17.772 14.794 17.772 15.1393V16.1393C17.772 16.4523 18.002 16.7124 18.3011 16.7587L18.3001 24.6531C18.3001 25.0887 18.6496 25.4432 19.079 25.4432H21.3166C21.746 25.4432 22.0954 25.0888 22.0954 24.6532V15.3039C22.0954 14.8679 21.746 14.5132 21.3166 14.5132ZM20.9235 24.2722H19.4721L19.4731 16.3831V16.3825C19.4731 16.0792 19.3014 15.8155 19.0508 15.6841H20.9235V24.2722Z" fill="#1D1D1B"/>
</svg>
