<svg width="40" height="40" viewBox="0 0 40 40" fill="none" xmlns="http://www.w3.org/2000/svg">
<path d="M38.1329 13.1735C37.9679 12.8952 37.6085 12.8035 37.33 12.9685C37.0516 13.1336 36.9599 13.4931 37.125 13.7714C38.2391 15.6497 38.8281 17.8035 38.8281 20C38.8281 26.7417 33.3433 32.2266 26.6016 32.2266C19.8598 32.2266 14.375 26.7417 14.375 20C14.375 13.2583 19.8598 7.77344 26.6016 7.77344C30.0828 7.77344 33.4095 9.26445 35.7286 11.8643C35.944 12.1058 36.3145 12.1269 36.5559 11.9115C36.7973 11.6961 36.8184 11.3257 36.603 11.0842C34.0618 8.23539 30.4164 6.60156 26.6016 6.60156C21.5247 6.60156 17.0983 9.43992 14.8258 13.6131C13.2005 12.0784 11.041 11.2109 8.78906 11.2109C3.94273 11.2109 0 15.1537 0 20C0 24.8463 3.94273 28.7891 8.78906 28.7891C11.0411 28.7891 13.2005 27.9216 14.8258 26.387C17.0983 30.5601 21.5247 33.3984 26.6016 33.3984C33.9895 33.3984 40 27.3879 40 20C40 17.5932 39.3544 15.2327 38.1329 13.1735ZM8.78906 27.6172C4.58891 27.6172 1.17188 24.2002 1.17188 20C1.17188 15.7998 4.58891 12.3828 8.78906 12.3828C10.8654 12.3828 12.8512 13.2338 14.2852 14.7269C14.1109 15.1324 13.956 15.5481 13.8219 15.973C12.6141 14.456 10.7826 13.5547 8.78914 13.5547C7.48977 13.5547 6.23633 13.9414 5.1643 14.673C4.89703 14.8555 4.8282 15.22 5.01062 15.4873C5.19305 15.7545 5.5575 15.8234 5.82484 15.6409C6.70141 15.0427 7.72641 14.7265 8.78914 14.7265C10.7466 14.7265 12.513 15.7895 13.436 17.5108C13.2837 18.3177 13.2031 19.1496 13.2031 20C13.2031 20.8505 13.2837 21.6823 13.4359 22.4892C12.513 24.2105 10.7469 25.2734 8.78906 25.2734C5.88125 25.2734 3.51562 22.9078 3.51562 20C3.51562 19.0513 3.77164 18.1205 4.25594 17.3084C4.42172 17.0304 4.33078 16.6708 4.05281 16.505C3.77484 16.3391 3.41516 16.4302 3.24945 16.7081C2.65695 17.7017 2.34375 18.84 2.34375 20C2.34375 23.554 5.23508 26.4453 8.78906 26.4453C10.7829 26.4453 12.6141 25.544 13.8218 24.027C13.956 24.4519 14.1109 24.8676 14.2852 25.2731C12.8512 26.7662 10.8655 27.6172 8.78906 27.6172Z" fill="#1D1D1B"/>
<path d="M19.9909 28.8554C21.9136 30.2942 24.1995 31.0547 26.6016 31.0547C32.6971 31.0547 37.6562 26.0955 37.6562 20C37.6562 13.9045 32.6971 8.94531 26.6016 8.94531C20.506 8.94531 15.5469 13.9045 15.5469 20C15.5469 22.5602 16.4459 25.0578 18.0783 27.0328C18.2844 27.2823 18.6537 27.3173 18.9032 27.1112C19.1527 26.905 19.1877 26.5356 18.9816 26.2862C17.5223 24.5208 16.7188 22.2883 16.7188 20C16.7188 14.5506 21.1522 10.1172 26.6016 10.1172C32.0509 10.1172 36.4844 14.5506 36.4844 20C36.4844 25.4494 32.0509 29.8828 26.6016 29.8828C24.4546 29.8828 22.4114 29.2031 20.693 27.9171C20.4338 27.7232 20.0666 27.7761 19.8727 28.0352C19.6789 28.2943 19.7317 28.6615 19.9909 28.8554Z" fill="#1D1D1B"/>
<path d="M27.1875 12.2656V11.4844C27.1875 11.1608 26.9252 10.8984 26.6016 10.8984C26.278 10.8984 26.0156 11.1608 26.0156 11.4844V12.2656C26.0156 12.5892 26.278 12.8516 26.6016 12.8516C26.9252 12.8516 27.1875 12.5892 27.1875 12.2656Z" fill="#1D1D1B"/>
<path d="M26.6016 27.1484C26.278 27.1484 26.0156 27.4108 26.0156 27.7344V28.5156C26.0156 28.8392 26.278 29.1016 26.6016 29.1016C26.9252 29.1016 27.1875 28.8392 27.1875 28.5156V27.7344C27.1875 27.4108 26.9252 27.1484 26.6016 27.1484Z" fill="#1D1D1B"/>
<path d="M22.227 13.5949C22.3355 13.7829 22.5325 13.888 22.735 13.888C22.8344 13.888 22.9352 13.8627 23.0274 13.8094C23.3077 13.6476 23.4037 13.2892 23.2419 13.009L22.8512 12.3324C22.6895 12.0521 22.3311 11.9561 22.0509 12.1179C21.7706 12.2797 21.6746 12.6381 21.8364 12.9183L22.227 13.5949Z" fill="#1D1D1B"/>
<path d="M19.6103 16.6401C19.7026 16.6934 19.8034 16.7187 19.9027 16.7187C20.1052 16.7187 20.3022 16.6135 20.4107 16.4257C20.5725 16.1454 20.4765 15.7871 20.1962 15.6253L19.5196 15.2346C19.2394 15.0728 18.8809 15.1689 18.7192 15.4491C18.5574 15.7293 18.6534 16.0877 18.9337 16.2495L19.6103 16.6401Z" fill="#1D1D1B"/>
<path d="M17.5 20C17.5 20.3236 17.7623 20.5859 18.0859 20.5859H18.8672C19.1908 20.5859 19.4531 20.3236 19.4531 20C19.4531 19.6764 19.1908 19.4141 18.8672 19.4141H18.0859C17.7623 19.4141 17.5 19.6764 17.5 20Z" fill="#1D1D1B"/>
<path d="M33.75 20C33.75 20.3236 34.0123 20.5859 34.3359 20.5859H35.1172C35.4408 20.5859 35.7031 20.3236 35.7031 20C35.7031 19.6764 35.4408 19.4141 35.1172 19.4141H34.3359C34.0123 19.4141 33.75 19.6764 33.75 20Z" fill="#1D1D1B"/>
<path d="M19.2272 24.8439C19.3266 24.8439 19.4273 24.8186 19.5196 24.7653L20.1962 24.3747C20.4765 24.2129 20.5725 23.8545 20.4107 23.5743C20.2489 23.2941 19.8905 23.1981 19.6103 23.3598L18.9337 23.7505C18.6534 23.9123 18.5574 24.2706 18.7192 24.5509C18.8277 24.7388 19.0247 24.8439 19.2272 24.8439Z" fill="#1D1D1B"/>
<path d="M33.6836 15.2348L33.0069 15.6255C32.7267 15.7873 32.6307 16.1456 32.7925 16.4259C32.901 16.6138 33.0979 16.7189 33.3004 16.7189C33.3998 16.7189 33.5006 16.6936 33.5929 16.6403L34.2695 16.2497C34.5497 16.0879 34.6457 15.7295 34.4839 15.4493C34.3221 15.1691 33.9638 15.0731 33.6836 15.2348Z" fill="#1D1D1B"/>
<path d="M22.0509 27.8822C22.1431 27.9355 22.2439 27.9608 22.3433 27.9608C22.5458 27.9608 22.7427 27.8556 22.8512 27.6677L23.2419 26.9911C23.4037 26.7109 23.3077 26.3525 23.0274 26.1907C22.7472 26.0288 22.3888 26.1249 22.227 26.4051L21.8364 27.0818C21.6746 27.362 21.7706 27.7204 22.0509 27.8822Z" fill="#1D1D1B"/>
<path d="M30.4683 13.888C30.6708 13.888 30.8677 13.7829 30.9763 13.595L31.3669 12.9183C31.5287 12.6381 31.4327 12.2797 31.1524 12.1179C30.8722 11.9561 30.5138 12.0522 30.352 12.3324L29.9614 13.009C29.7996 13.2893 29.8956 13.6476 30.1759 13.8094C30.2681 13.8627 30.3689 13.888 30.4683 13.888Z" fill="#1D1D1B"/>
<path d="M24.2969 20C24.2969 21.0684 25.0277 21.9691 26.0156 22.229V25.8594C26.0156 26.183 26.278 26.4453 26.6016 26.4453C26.9252 26.4453 27.1875 26.183 27.1875 25.8594V22.229C28.1754 21.9691 28.9062 21.0684 28.9062 20C28.9062 18.7292 27.8723 17.6953 26.6016 17.6953C25.3308 17.6953 24.2969 18.7292 24.2969 20ZM26.6016 18.8672C27.2262 18.8672 27.7344 19.3754 27.7344 20C27.7344 20.6246 27.2262 21.1328 26.6016 21.1328C25.977 21.1328 25.4688 20.6246 25.4688 20C25.4688 19.3754 25.977 18.8672 26.6016 18.8672Z" fill="#1D1D1B"/>
<path d="M4.84375 20.5859H7.13219C7.37406 21.2679 8.02531 21.7578 8.78922 21.7578C9.75852 21.7578 10.547 20.9693 10.547 20C10.547 19.0307 9.75852 18.2422 8.78922 18.2422C8.02531 18.2422 7.37406 18.7321 7.13219 19.4141H4.84375C4.52016 19.4141 4.25781 19.6764 4.25781 20C4.25781 20.3236 4.52008 20.5859 4.84375 20.5859ZM8.78922 19.4141C9.11234 19.4141 9.37516 19.6769 9.37516 20C9.37516 20.3231 9.11234 20.5859 8.78922 20.5859C8.46609 20.5859 8.20328 20.3231 8.20328 20C8.20328 19.6769 8.46609 19.4141 8.78922 19.4141Z" fill="#1D1D1B"/>
</svg>
