<svg width="33" height="33" viewBox="0 0 33 33" fill="none" xmlns="http://www.w3.org/2000/svg">
<path d="M27.6447 23.3052C28.1114 22.3792 28.3594 21.3603 28.3594 20.313C28.3594 18.7698 28.1799 17.2255 27.8267 15.7235L26.6573 10.7539C26.382 9.58289 25.3502 8.76562 24.1478 8.76562H23.7053C23.2341 8.14327 22.4947 7.73438 21.6562 7.73438H20.1094V6.70312H20.625C21.4778 6.70312 22.1719 6.00909 22.1719 5.15625V2.0625C22.1719 1.20966 21.4778 0.515625 20.625 0.515625H12.375C11.5222 0.515625 10.8281 1.20966 10.8281 2.0625V5.15625C10.8281 6.00909 11.5222 6.70312 12.375 6.70312H12.8906V7.73438H11.3438C10.5048 7.73438 9.76542 8.14327 9.29466 8.76562H8.85225C7.64981 8.76562 6.61805 9.58289 6.3427 10.7528L5.17327 15.723C4.82006 17.225 4.64062 18.7693 4.64062 20.313C4.64062 21.3603 4.88864 22.3797 5.35528 23.3052C3.77128 23.6992 2.57812 25.196 2.57812 26.9424V28.2758C2.57812 28.7286 2.65083 29.1761 2.79417 29.6067C3.36806 31.3278 4.97269 32.4844 6.78666 32.4844H26.2133C28.0278 32.4844 29.6319 31.3278 30.2063 29.6062C30.3492 29.1761 30.4219 28.7286 30.4219 28.2758V26.9424C30.4219 25.196 29.2287 23.6992 27.6447 23.3052ZM11.8594 5.15625V2.0625C11.8594 1.77788 12.0904 1.54688 12.375 1.54688H20.625C20.9096 1.54688 21.1406 1.77788 21.1406 2.0625V5.15625C21.1406 5.44088 20.9096 5.67188 20.625 5.67188H12.375C12.0904 5.67188 11.8594 5.44088 11.8594 5.15625ZM13.9219 6.70312H19.0781V7.73438H13.9219V6.70312ZM6.17719 15.9591L7.34662 10.989C7.50905 10.2986 8.1113 9.81544 8.81719 9.79945C8.78367 9.96548 8.76562 10.1372 8.76562 10.3125V12.8906H9.79688V10.3125C9.79688 9.45966 10.4909 8.76562 11.3438 8.76562H21.6562C22.5091 8.76562 23.2031 9.45966 23.2031 10.3125V12.8906H24.2344V10.3125C24.2344 10.1372 24.2163 9.96548 24.1823 9.79997C24.8887 9.81595 25.4904 10.2991 25.6529 10.99L26.8223 15.9601C27.1575 17.3848 27.3276 18.8497 27.3276 20.313C27.3276 21.3422 27.045 22.3405 26.515 23.2176C25.6843 23.2861 24.9062 23.6316 24.2983 24.222C23.6925 24.8098 23.3222 25.5698 23.2279 26.3948C22.7025 26.0896 22.1461 25.8411 21.5676 25.6575C21.2891 23.811 21.1406 21.9342 21.1406 20.0666V9.79688H20.1094V20.0666C20.1094 21.8445 20.2414 23.6301 20.4878 25.392C20.0233 25.3105 19.5515 25.2656 19.0781 25.2656H13.9219C13.4485 25.2656 12.9767 25.3105 12.5122 25.392C12.7586 23.6301 12.8906 21.8445 12.8906 20.0666V9.79688H11.8594V20.0666C11.8594 21.9342 11.7109 23.811 11.4314 25.6575C10.8529 25.8411 10.2965 26.0896 9.77109 26.3948C9.67673 25.5698 9.30652 24.8093 8.70066 24.222C8.09222 23.6321 7.32342 23.2908 6.48553 23.2196C5.95444 22.3415 5.67188 21.3428 5.67188 20.313C5.67188 18.8492 5.84203 17.3843 6.17719 15.9591ZM29.3906 28.2758C29.3906 28.6177 29.336 28.956 29.2282 29.2803C28.7946 30.5802 27.5828 31.4531 26.2133 31.4531H6.78666C5.41716 31.4531 4.20544 30.5802 3.77231 29.2808C3.66403 28.956 3.60938 28.6177 3.60938 28.2758V26.9424C3.60938 25.4915 4.73034 24.2772 6.10809 24.2359C6.81037 24.2127 7.47811 24.4726 7.98291 24.9619C8.4877 25.4518 8.76562 26.1092 8.76562 26.8125V27.8438C8.76562 29.2653 9.92217 30.4219 11.3438 30.4219H12.375V29.3906H11.3438C10.4909 29.3906 9.79688 28.6966 9.79688 27.8438V27.5983C11.0014 26.7604 12.4539 26.2969 13.9219 26.2969H19.0781C20.5461 26.2969 21.9986 26.7604 23.2031 27.5983V27.8438C23.2031 28.6966 22.5091 29.3906 21.6562 29.3906H20.625V30.4219H21.6562C23.0778 30.4219 24.2344 29.2653 24.2344 27.8438V26.8125C24.2344 26.1092 24.5123 25.4518 25.0176 24.9619C25.5224 24.4726 26.1927 24.2137 26.8924 24.2359C28.2697 24.2772 29.3906 25.4915 29.3906 26.9424V28.2758Z" fill="black"/>
</svg>
