<svg width="35" height="35" viewBox="0 0 35 35" fill="none" xmlns="http://www.w3.org/2000/svg">
<path d="M23.9401 14.9707H20.0635V10.0742C21.0347 9.54434 21.842 8.71992 22.3368 7.69296C22.4597 7.43791 22.3526 7.13145 22.0975 7.00854C21.8426 6.8857 21.5361 6.99275 21.413 7.2478C20.6932 8.74173 19.1572 9.70703 17.5 9.70703C15.1065 9.70703 13.1592 7.75975 13.1592 5.36621C13.1592 5.0305 13.1988 4.70401 13.2712 4.38997C13.3023 4.49839 13.3387 4.60612 13.3819 4.71256C14.1352 6.56544 15.7516 7.76275 17.4999 7.76275C19.2788 7.76275 20.9072 6.5357 21.6483 4.63661C21.6792 4.55745 21.7063 4.47747 21.7304 4.39701C21.8018 4.70894 21.8408 5.03303 21.8408 5.36628C21.8408 5.64942 22.0703 5.87897 22.3535 5.87897C22.6367 5.87897 22.8662 5.64942 22.8662 5.36628C22.8662 3.58005 21.9881 1.99589 20.6418 1.01992C19.6425 0.313223 18.5868 0 17.5 0C16.4457 0 15.3493 0.313223 14.4221 0.974395C13.0398 1.94605 12.1338 3.55188 12.1338 5.36621C12.1338 7.3973 13.2681 9.16829 14.9365 10.0794V11.4756C14.9365 11.7588 15.166 11.9883 15.4492 11.9883C15.7324 11.9883 15.9619 11.7588 15.9619 11.4756V10.5068C16.4495 10.6529 16.9655 10.7325 17.5 10.7325C18.0276 10.7325 18.5451 10.6528 19.0381 10.5038V18.8111C19.0381 19.2216 18.878 19.6079 18.5873 19.8985C18.2967 20.1891 17.9106 20.3492 17.5 20.3492C16.6519 20.3492 15.9619 19.6593 15.9619 18.8111V13.6631C15.9619 13.3799 15.7324 13.1504 15.4492 13.1504C15.166 13.1504 14.9365 13.3799 14.9365 13.6631V14.9707H11.0599C8.07112 14.9707 5.63965 17.4022 5.63965 20.3909V29.5798C5.63965 32.5685 8.07112 35 11.0599 35H23.9401C26.9289 35 29.3604 32.5685 29.3604 29.5798V20.3909C29.3604 17.4022 26.9289 14.9707 23.9401 14.9707ZM20.0241 1.83805C20.7499 2.39688 21.0319 3.39541 20.6931 4.26378C20.1067 5.76639 18.8533 6.73729 17.5 6.73729C16.1504 6.73729 14.9364 5.81349 14.3319 4.3264C13.9603 3.41236 14.2582 2.36783 15.0384 1.79354C15.7384 1.3097 16.5864 1.02539 17.5 1.02539C18.441 1.02539 19.3123 1.32733 20.0241 1.83805ZM22.9988 17.243C23.6796 17.243 24.2334 17.7971 24.2334 18.4782V26.3881C24.2334 27.0692 23.6796 27.6233 22.9988 27.6233H12.0012C11.3204 27.6233 10.7666 27.0692 10.7666 26.3881V18.4782C10.7666 17.7971 11.3204 17.243 12.0012 17.243H12.4319V22.735C12.4319 23.8416 13.3323 24.742 14.4389 24.742H20.5612C21.6678 24.742 22.5682 23.8416 22.5682 22.735V17.243H22.9988ZM14.9365 15.9961V18.8111C14.9365 20.2247 16.0865 21.3746 17.5 21.3746C18.1845 21.3746 18.8282 21.1079 19.3125 20.6235C19.7968 20.1392 20.0635 19.4955 20.0635 18.8111V15.9961H20.5611C21.1024 15.9961 21.5427 16.4365 21.5427 16.9777V22.735C21.5427 23.2762 21.1024 23.7166 20.5611 23.7166H14.4389C13.8976 23.7166 13.4573 23.2762 13.4573 22.735V16.9777C13.4573 16.4365 13.8976 15.9961 14.4389 15.9961H14.9365ZM28.335 29.5798C28.335 32.0031 26.3634 33.9746 23.9401 33.9746H11.0599C8.63659 33.9746 6.66504 32.0031 6.66504 29.5798V20.3909C6.66504 17.9676 8.63659 15.9961 11.0599 15.9961H12.6893C12.6492 16.0674 12.6131 16.1413 12.5818 16.2176H12.0012C11.256 16.2176 10.5941 16.5804 10.1823 17.1385C8.72614 17.531 7.6905 18.8647 7.6905 20.3909V29.5798C7.6905 31.4377 9.20199 32.9492 11.0599 32.9492H19.7559C20.0391 32.9492 20.2686 32.7197 20.2686 32.4365C20.2686 32.1534 20.0391 31.9238 19.7559 31.9238H11.0599C9.76739 31.9238 8.71582 30.8723 8.71582 29.5798V20.3909C8.71582 19.5984 9.11723 18.8804 9.74183 18.4537C9.74176 18.4619 9.74121 18.47 9.74121 18.4782V26.3881C9.74121 27.6346 10.755 28.6487 12.0012 28.6487H22.9988C24.245 28.6487 25.2588 27.6346 25.2588 26.3881V18.4782C25.2588 18.47 25.2582 18.4619 25.2582 18.4537C25.8828 18.8805 26.2842 19.5984 26.2842 20.3909V29.5798C26.2842 30.8723 25.2326 31.9238 23.9401 31.9238H21.9103C21.6271 31.9238 21.3976 32.1534 21.3976 32.4365C21.3976 32.7197 21.6271 32.9492 21.9103 32.9492H23.9401C25.7981 32.9492 27.3096 31.4377 27.3096 29.5798V20.3909C27.3096 18.8647 26.2739 17.531 24.8178 17.1385C24.4059 16.5804 23.7441 16.2176 22.9989 16.2176H22.4183C22.3869 16.1413 22.3509 16.0674 22.3108 15.9961H23.9402C26.3635 15.9961 28.335 17.9676 28.335 20.3909V29.5798H28.335Z" fill="#1D1D1B"/>
<path d="M15.791 4.80553C16.0742 4.80553 16.3037 4.57598 16.3037 4.29283V4.06048H16.9873V4.29283C16.9873 4.57598 17.2168 4.80553 17.5 4.80553C17.7832 4.80553 18.0127 4.57598 18.0127 4.29283V4.06048H18.6963V4.29283C18.6963 4.57598 18.9258 4.80553 19.209 4.80553C19.4922 4.80553 19.7217 4.57598 19.7217 4.29283V2.80273C19.7217 2.51959 19.4922 2.29004 19.209 2.29004C18.9258 2.29004 18.6963 2.51959 18.6963 2.80273V3.03502H18.0127V2.80273C18.0127 2.51959 17.7832 2.29004 17.5 2.29004C17.2168 2.29004 16.9873 2.51959 16.9873 2.80273V3.03502H16.3037V2.80273C16.3037 2.51959 16.0742 2.29004 15.791 2.29004C15.5078 2.29004 15.2783 2.51959 15.2783 2.80273V4.29283C15.2783 4.57598 15.5078 4.80553 15.791 4.80553Z" fill="#1D1D1B"/>
</svg>
