<svg width="40" height="40" viewBox="0 0 40 40" fill="none" xmlns="http://www.w3.org/2000/svg">
<path d="M38.8706 18.8645C36.6288 17.2919 33.4589 16.962 31.1945 16.962H30.6983L22.8071 13.2794C21.8241 12.8204 20.7309 12.5781 19.6463 12.5781H12.6804C12.0035 12.5781 11.3449 12.7133 10.7227 12.9797L3.49091 16.0791C3.09388 16.2494 2.67365 16.3358 2.24152 16.3358H1.76026C0.746767 16.3355 -0.078125 17.1603 -0.078125 18.1741V22.1518C-0.078125 23.0298 0.547487 23.7888 1.4093 23.9563L3.72803 24.4074C4.0146 26.1743 5.55024 27.5278 7.39656 27.5278C8.77779 27.5278 9.98446 26.77 10.6253 25.6488H30.4709C31.1118 26.77 32.3185 27.5278 33.6997 27.5278C35.0806 27.5278 36.2876 26.77 36.9285 25.6488H38.0836C39.0971 25.6488 39.922 24.8242 39.922 23.8104V20.8853C39.922 20.0818 39.5289 19.3262 38.8706 18.8645ZM22.3114 14.3414L27.9273 16.962H19.5652L16.8119 13.75H19.646C20.561 13.75 21.4826 13.9545 22.3114 14.3414ZM15.2686 13.75L18.0219 16.962H17.0285C16.6507 16.962 16.2928 16.7975 16.0468 16.5103L13.6808 13.75H15.2686ZM11.0529 24.477C11.0922 24.2606 11.1139 24.0381 11.1139 23.8104C11.1139 23.5608 11.0889 23.3109 11.0395 23.0676C10.9751 22.7506 10.6659 22.5458 10.3488 22.6099C10.0315 22.6743 9.82668 22.9837 9.89107 23.3008C9.92495 23.4671 9.94204 23.6386 9.94204 23.8104C9.94204 25.214 8.80007 26.3556 7.39656 26.3556C5.99305 26.3556 4.85139 25.214 4.85139 23.8104C4.85139 22.4069 5.99305 21.265 7.39656 21.265C7.75209 21.265 8.09541 21.3367 8.41768 21.478C8.7137 21.6077 9.05947 21.4728 9.18947 21.1765C9.31948 20.8801 9.18459 20.5347 8.88826 20.4047C8.41677 20.1981 7.91475 20.0931 7.39656 20.0931C5.55024 20.0931 4.0146 21.4466 3.72803 23.2135L1.633 22.8061C1.3205 22.7454 1.09345 22.4701 1.09345 22.1518V20.0125H1.76026C2.08374 20.0125 2.3462 19.7501 2.3462 19.4266C2.3462 19.1031 2.08374 18.8406 1.76026 18.8406H1.09375V18.1741C1.09375 17.8064 1.39283 17.5076 1.76026 17.5076H2.24152C2.83326 17.5076 3.40882 17.3892 3.95264 17.1564L11.1841 14.057C11.5012 13.9212 11.8305 13.8312 12.1677 13.7854L15.1572 17.273C15.6259 17.8201 16.308 18.1339 17.0285 18.1339H31.1945C32.7604 18.1339 35.5543 18.3173 37.6243 19.4669H37.4574C37.1336 19.4669 36.8714 19.7293 36.8714 20.0528C36.8714 20.3766 37.1336 20.6387 37.4574 20.6387H38.726C38.7415 20.7193 38.7501 20.8017 38.7501 20.8853V21.9721H36.9285C36.2876 20.8508 35.0809 20.0934 33.6997 20.0934C32.3185 20.0934 31.1118 20.8508 30.4709 21.9721H29.3162C28.9924 21.9721 28.7302 22.2342 28.7302 22.558C28.7302 22.8815 28.9924 23.1439 29.3162 23.1439H30.0434C30.004 23.3603 29.9824 23.5828 29.9824 23.8104C29.9824 24.0381 30.004 24.2606 30.0434 24.477H11.0529ZM33.6997 26.3556C32.2962 26.3556 31.1542 25.214 31.1542 23.8104C31.1542 22.4069 32.2962 21.265 33.6997 21.265C35.1032 21.265 36.2452 22.4069 36.2452 23.8104C36.2452 25.214 35.1032 26.3556 33.6997 26.3556ZM38.0836 24.477H37.356C37.3954 24.2606 37.4171 24.0381 37.4171 23.8104C37.4171 23.5828 37.3954 23.3603 37.356 23.1439H38.7501V23.8104C38.7501 24.1779 38.451 24.477 38.0836 24.477Z" fill="#1D1D1B"/>
<path d="M26.8114 21.972H18.9628L17.6356 20.2023C17.2902 19.7418 16.7402 19.4668 16.1647 19.4668H13.6598C13.4376 19.4668 13.235 19.5922 13.1358 19.7909C13.0363 19.9893 13.0577 20.227 13.191 20.4043L14.694 22.4084C15.0392 22.8689 15.5891 23.1439 16.1647 23.1439H26.8114C27.1348 23.1439 27.3973 22.8814 27.3973 22.5579C27.3973 22.2341 27.1348 21.972 26.8114 21.972ZM16.1647 21.972C15.9559 21.972 15.7566 21.8722 15.6315 21.7053L14.8317 20.6387H16.1647C16.3734 20.6387 16.5727 20.7385 16.6981 20.9054L17.498 21.972H16.1647Z" fill="#1D1D1B"/>
<path d="M7.39624 22.5981C6.72791 22.5981 6.18408 23.142 6.18408 23.8103C6.18408 24.4786 6.72791 25.0225 7.39624 25.0225C8.06488 25.0225 8.6084 24.4786 8.6084 23.8103C8.6084 23.142 8.06488 22.5981 7.39624 22.5981Z" fill="#1D1D1B"/>
<path d="M33.6995 22.5981C33.0311 22.5981 32.4873 23.142 32.4873 23.8103C32.4873 24.4786 33.0311 25.0225 33.6995 25.0225C34.3678 25.0225 34.9116 24.4786 34.9116 23.8103C34.9116 23.142 34.3678 22.5981 33.6995 22.5981Z" fill="#1D1D1B"/>
</svg>
