<svg width="30" height="30" viewBox="0 0 30 30" fill="none" xmlns="http://www.w3.org/2000/svg">
<path d="M23.2813 2.24409H23.1608V1.77165C23.1608 0.794646 22.3661 0 21.3891 0C20.4121 0 19.6175 0.794646 19.6175 1.77165V2.24409H10.3822V1.77165C10.3822 0.794646 9.58756 0 8.61056 0C7.63355 0 6.8389 0.794646 6.8389 1.77165V2.24409H6.71843C3.71796 2.24409 1.27686 4.6852 1.27686 7.68567V24.5589C1.27686 27.5594 3.71796 30.0005 6.71843 30.0005H23.2813C26.2817 30.0005 28.7228 27.5594 28.7228 24.5589V7.68567C28.7224 4.6852 26.2813 2.24409 23.2813 2.24409ZM20.5624 1.77165C20.5624 1.31575 20.9332 0.944882 21.3891 0.944882C21.845 0.944882 22.2159 1.31575 22.2159 1.77165V3.66142C22.2159 4.11732 21.845 4.48819 21.3891 4.48819C20.9332 4.48819 20.5624 4.11732 20.5624 3.66142V1.77165ZM7.78378 1.77165C7.78378 1.31575 8.15465 0.944882 8.61056 0.944882C9.06646 0.944882 9.43733 1.31575 9.43733 1.77165V3.66142C9.43733 4.11732 9.06646 4.48819 8.61056 4.48819C8.15465 4.48819 7.78378 4.11732 7.78378 3.66142V1.77165ZM6.71843 3.18898H6.8389V3.66142C6.8389 4.63843 7.63355 5.43307 8.61056 5.43307C9.58756 5.43307 10.3822 4.63843 10.3822 3.66142V3.18898H19.6175V3.66142C19.6175 4.63843 20.4121 5.43307 21.3891 5.43307C22.3661 5.43307 23.1608 4.63843 23.1608 3.66142V3.18898H23.2813C25.7606 3.18898 27.778 5.2063 27.778 7.68567V8.85827H2.22221V7.68567C2.22221 5.2063 4.23906 3.18898 6.71843 3.18898ZM23.2813 29.0551H6.71843C4.23906 29.0551 2.22174 27.0378 2.22174 24.5584V9.80315H27.7775V24.5584C27.7775 27.0378 25.7606 29.0551 23.2813 29.0551ZM24.8819 15.0392C25.1427 15.0392 25.3543 14.8276 25.3543 14.5668C25.3543 14.306 25.1427 14.0943 24.8819 14.0943H23.2284V12.677C23.2284 12.4162 23.0167 12.2046 22.7559 12.2046C22.4951 12.2046 22.2835 12.4162 22.2835 12.677V14.0943H19.2915V12.677C19.2915 12.4162 19.0798 12.2046 18.8191 12.2046C18.5583 12.2046 18.3466 12.4162 18.3466 12.677V14.0943H15.3542V12.677C15.3542 12.4162 15.1425 12.2046 14.8817 12.2046C14.621 12.2046 14.4093 12.4162 14.4093 12.677V14.0943H11.4173V12.677C11.4173 12.4162 11.2057 12.2046 10.9449 12.2046C10.6841 12.2046 10.4724 12.4162 10.4724 12.677V14.0943H7.48048V12.677C7.48048 12.4162 7.26882 12.2046 7.00804 12.2046C6.74725 12.2046 6.5356 12.4162 6.5356 12.677V14.0943H4.88205C4.62126 14.0943 4.40961 14.306 4.40961 14.5668C4.40961 14.8276 4.62126 15.0392 4.88205 15.0392H6.5356V18.6614H4.88205C4.62126 18.6614 4.40961 18.8731 4.40961 19.1339C4.40961 19.3946 4.62126 19.6063 4.88205 19.6063H6.5356V23.2285H4.88205C4.62126 23.2285 4.40961 23.4402 4.40961 23.7009C4.40961 23.9617 4.62126 24.1734 4.88205 24.1734H6.5356V25.5907C6.5356 25.8515 6.74725 26.0632 7.00804 26.0632C7.26882 26.0632 7.48048 25.8515 7.48048 25.5907V24.1734H10.4724V25.5907C10.4724 25.8515 10.6841 26.0632 10.9449 26.0632C11.2057 26.0632 11.4173 25.8515 11.4173 25.5907V24.1734H14.4093V25.5907C14.4093 25.8515 14.621 26.0632 14.8817 26.0632C15.1425 26.0632 15.3542 25.8515 15.3542 25.5907V24.1734H18.3461V25.5907C18.3461 25.8515 18.5578 26.0632 18.8186 26.0632C19.0794 26.0632 19.291 25.8515 19.291 25.5907V24.1734H22.283V25.5907C22.283 25.8515 22.4947 26.0632 22.7554 26.0632C23.0162 26.0632 23.2279 25.8515 23.2279 25.5907V24.1734H24.8814C25.1422 24.1734 25.3539 23.9617 25.3539 23.7009C25.3539 23.4402 25.1422 23.2285 24.8814 23.2285H23.2279V19.6063H24.8814C25.1422 19.6063 25.3539 19.3946 25.3539 19.1339C25.3539 18.8731 25.1422 18.6614 24.8814 18.6614H23.2279V15.0392H24.8819ZM18.3461 15.0392V18.6614H15.3542V15.0392H18.3461ZM14.4093 15.0392V18.6614H11.4173V15.0392H14.4093ZM7.48001 15.0392H10.472V18.6614H7.48001V15.0392ZM7.48001 23.2285V19.6063H10.472V23.2285H7.48001ZM11.4173 23.2285V19.6063H14.4093V23.2285H11.4173ZM15.3542 23.2285V19.6063H18.3461V23.2285H15.3542ZM22.2835 23.2285H19.2915V19.6063H22.2835V23.2285ZM22.2835 18.6614H19.2915V15.0392H22.2835V18.6614Z" fill="#1D1D1B"/>
<path d="M13.333 11.9999C13.6663 11.2221 13.333 9.19992 9.33301 7.33325" stroke="white" stroke-width="2"/>
</svg>
