<svg width="224" height="47" viewBox="0 0 224 47" fill="none" xmlns="http://www.w3.org/2000/svg">
<path d="M23.4171 46.3396C36.0768 46.3396 46.3395 36.0769 46.3395 23.4172C46.3395 10.7576 36.0768 0.494873 23.4171 0.494873C10.7574 0.494873 0.494751 10.7576 0.494751 23.4172C0.494751 36.0769 10.7574 46.3396 23.4171 46.3396Z" fill="#1D1D1B"/>
<path fill-rule="evenodd" clip-rule="evenodd" d="M24.3103 31.0447C24.756 31.1347 25.2071 31.1959 25.6607 31.2278C26.3481 31.2872 27.0419 31.3129 27.7309 31.3242C28.4199 31.3354 29.1073 31.3242 29.7946 31.3065C30.3332 31.2904 30.8766 31.2647 31.412 31.2149C34.3846 30.937 37.4543 30.1114 39.9563 28.4456C40.5045 28.0809 40.6695 28.0359 41.4814 27.6809C41.1666 28.1925 40.7447 28.6308 40.2442 28.966C38.0252 30.5611 35.3 31.4832 32.6427 31.9458C30.1705 32.3591 27.6557 32.4611 25.1578 32.2494C23.8639 32.1418 22.583 31.9362 21.2891 31.8462C17.4253 31.578 13.6715 31.9442 10.3657 34.1209C9.78833 34.5016 9.30637 34.9513 8.78397 35.3578C8.06911 35.9136 7.90738 36.0003 7.02594 36.7264C7.71977 35.6806 7.90253 35.3626 8.41037 34.8341C9.37711 33.8642 10.5082 33.0709 11.7518 32.4904C14.6354 31.0768 17.9736 30.6704 21.1581 30.7796C21.8681 30.8053 22.5749 30.8808 23.2817 30.9402C23.1503 30.2141 22.9737 29.4969 22.7528 28.7925C22.5106 27.996 22.2266 27.2127 21.9021 26.4456C20.3964 22.9309 17.5757 19.0563 14.7147 16.4974C13.7583 15.642 12.7399 14.8576 11.6677 14.1505C10.8719 13.6284 10.1991 13.0662 9.44869 12.4718C10.3819 12.8782 11.328 13.2605 12.2208 13.7569C13.4136 14.4269 14.5433 15.2021 15.5961 16.0733C16.9175 17.1603 18.1405 18.36 19.2513 19.6587C19.9856 20.5437 20.6247 21.5026 21.1581 22.5197C22.2466 24.5164 23.2606 27.0544 23.6973 29.4126C23.7669 28.95 23.8348 28.4857 23.8979 28.0231C24.3976 24.2883 24.8763 20.5438 25.0995 16.7785C25.2095 14.9424 25.2079 13.1031 25.2079 11.2654C25.2079 10.2534 25.1222 9.24622 25.0672 8.23742C25.009 7.1467 25.0898 6.56519 25.1351 5.47607C25.347 6.53628 25.5427 7.07441 25.6559 8.15229C26.3368 14.6982 26.002 21.5912 24.8812 28.0504C24.7065 29.0528 24.5011 30.0487 24.3038 31.0463L24.3103 31.0447ZM27.7406 7.16919C30.3704 8.61492 33.2395 10.2454 35.4811 12.2582C37.3119 13.9015 39.2269 16.3624 38.1125 18.9358C36.7604 22.0602 32.6977 25.3934 29.9855 27.4223C29.2933 27.9395 28.5994 28.4541 27.904 28.966C27.5385 29.2359 27.1794 29.5186 26.801 29.7692C26.5228 29.9539 26.1314 30.2656 24.9184 30.7073C25.5039 30.1114 25.8516 29.7146 26.4791 29.2246C27.3541 28.5387 28.2485 27.8753 29.1202 27.1829C31.8794 24.9886 35.7512 21.7309 37.134 18.4555C37.341 17.9731 37.4217 17.4464 37.3686 16.9247C37.1809 15.0275 35.3663 13.2477 33.9722 12.0766C32.6825 11.0134 31.319 10.0418 29.8917 9.16912C29.379 8.84785 28.855 8.52657 28.339 8.21815C27.9768 7.99754 27.6161 7.77533 27.257 7.55151C26.9498 7.36035 25.9325 6.52825 26.0635 6.54913C26.6533 6.66188 27.2201 6.87143 27.7406 7.16919Z" fill="#76B82A"/>
<path d="M66.3902 33L57 9.16901H62.6408L68.7129 25.8338L74.785 9.16901H80.293L70.9028 33H66.3902Z" fill="#1D1D1B"/>
<path d="M83.8765 32.831V9.16901H101.396V13.8H88.9532V18.6H99.9029V23.231H88.9532V28.2H101.562V32.831H83.8765Z" fill="#1D1D1B"/>
<path d="M106.105 32.831V9.16901H115.164C118.791 9.16901 121.755 10.2958 124.056 12.5493C126.357 14.7803 127.507 17.5972 127.507 21C127.507 24.3803 126.345 27.1972 124.023 29.4507C121.722 31.7042 118.769 32.831 115.164 32.831H106.105ZM111.215 28.1324H115.164C117.265 28.1324 118.957 27.4789 120.24 26.1718C121.523 24.8423 122.165 23.1183 122.165 21C122.165 18.9042 121.512 17.1915 120.207 15.862C118.924 14.5324 117.243 13.8676 115.164 13.8676H111.215V28.1324Z" fill="#1D1D1B"/>
<path d="M128.417 32.831L138.371 9H143.083L153.037 32.831H147.695L145.571 27.5239H135.75L133.626 32.831H128.417ZM137.575 22.9268H143.746L140.66 15.2535L137.575 22.9268Z" fill="#1D1D1B"/>
<path d="M156.622 32.831V9.16901H161.333L172.217 23.738V9.16901H177.26V32.831H172.914L161.665 17.7887V32.831H156.622Z" fill="#1D1D1B"/>
<path d="M188.244 32.831V13.969H181.177V9.16901H200.422V13.969H193.354V32.831H188.244Z" fill="#1D1D1B"/>
<path d="M199.38 32.831L209.334 9H214.046L224 32.831H218.658L216.534 27.5239H206.713L204.589 32.831H199.38ZM208.538 22.9268H214.709L211.624 15.2535L208.538 22.9268Z" fill="#1D1D1B"/>
</svg>
