<svg width="31" height="30" viewBox="0 0 31 30" fill="none" xmlns="http://www.w3.org/2000/svg">
<path d="M23.5919 29.1429C24.7734 29.1429 25.7348 28.1815 25.7348 27V3.00003C25.7348 1.81853 24.7734 0.857178 23.5919 0.857178H6.66337C5.48186 0.857178 4.52051 1.81853 4.52051 3.00003V27C4.52051 28.1815 5.48186 29.1429 6.66337 29.1429H23.5919ZM5.37765 27V3.00003C5.37765 2.29105 5.95438 1.71432 6.66337 1.71432H23.5919C24.3009 1.71432 24.8777 2.29105 24.8777 3.00003V27C24.8777 27.709 24.3009 28.2857 23.5919 28.2857H6.66337C5.95438 28.2857 5.37765 27.709 5.37765 27Z" fill="#76B82A"/>
<path d="M7.84202 10.8857H22.4135C22.6501 10.8857 22.842 10.6938 22.842 10.4571V4.34996C22.842 4.11328 22.6501 3.92139 22.4135 3.92139H7.84202C7.60535 3.92139 7.41345 4.11328 7.41345 4.34996V10.4571C7.41345 10.6938 7.60535 10.8857 7.84202 10.8857ZM8.2706 4.77853H21.9849V10.0285H8.2706V4.77853Z" fill="#76B82A"/>
<path d="M8.27059 15.9773H10.4434C10.9161 15.9773 11.3005 15.5929 11.3005 15.1201V13.8857C11.3005 13.413 10.9161 13.0286 10.4434 13.0286H8.27059C7.79787 13.0286 7.41345 13.413 7.41345 13.8857V15.1201C7.41345 15.5929 7.79787 15.9773 8.27059 15.9773ZM8.27059 13.8857L10.4434 13.8851V15.1201H8.27059V13.8857Z" fill="#76B82A"/>
<path d="M16.2127 13.0286H14.0399C13.5672 13.0286 13.1828 13.413 13.1828 13.8857V15.1201C13.1828 15.5929 13.5672 15.9773 14.0399 15.9773H16.2127C16.6854 15.9773 17.0699 15.5929 17.0699 15.1201V13.8857C17.0699 13.413 16.6854 13.0286 16.2127 13.0286ZM16.2127 15.1201H14.0399V13.8857L16.2127 13.8851V15.1201Z" fill="#76B82A"/>
<path d="M21.9822 13.0286H19.8092C19.3364 13.0286 18.952 13.413 18.952 13.8857V15.1201C18.952 15.5929 19.3364 15.9773 19.8092 15.9773H21.9822C22.4549 15.9773 22.8393 15.5929 22.8393 15.1201V13.8857C22.8393 13.413 22.4549 13.0286 21.9822 13.0286ZM21.9822 15.1201H19.8092V13.8857L21.9822 13.8851V15.1201Z" fill="#76B82A"/>
<path d="M8.27059 21.0686H10.4434C10.9161 21.0686 11.3005 20.6842 11.3005 20.2115V18.9773C11.3005 18.5045 10.9161 18.1201 10.4434 18.1201H8.27059C7.79787 18.1201 7.41345 18.5045 7.41345 18.9773V20.2115C7.41345 20.6842 7.79787 21.0686 8.27059 21.0686ZM8.27059 18.9773L10.4434 18.9766V20.2115H8.27059V18.9773Z" fill="#76B82A"/>
<path d="M16.2127 18.1201H14.0399C13.5672 18.1201 13.1828 18.5045 13.1828 18.9773V20.2115C13.1828 20.6842 13.5672 21.0686 14.0399 21.0686H16.2127C16.6854 21.0686 17.0699 20.6842 17.0699 20.2115V18.9773C17.0699 18.5045 16.6854 18.1201 16.2127 18.1201ZM16.2127 20.2115H14.0399V18.9773L16.2127 18.9766V20.2115Z" fill="#76B82A"/>
<path d="M21.9822 18.1201H19.8092C19.3364 18.1201 18.952 18.5045 18.952 18.9773V20.2115C18.952 20.6842 19.3364 21.0686 19.8092 21.0686H21.9822C22.4549 21.0686 22.8393 20.6842 22.8393 20.2115V18.9773C22.8393 18.5045 22.4549 18.1201 21.9822 18.1201ZM21.9822 20.2115H19.8092V18.9773L21.9822 18.9766V20.2115Z" fill="#76B82A"/>
<path d="M8.27059 26.1601H10.4434C10.9161 26.1601 11.3005 25.7756 11.3005 25.3029V24.0687C11.3005 23.596 10.9161 23.2115 10.4434 23.2115H8.27059C7.79787 23.2115 7.41345 23.596 7.41345 24.0687V25.3029C7.41345 25.7756 7.79787 26.1601 8.27059 26.1601ZM8.27059 24.0687L10.4434 24.0681V25.3029H8.27059V24.0687Z" fill="#76B82A"/>
<path d="M16.2127 23.2115H14.0399C13.5672 23.2115 13.1828 23.596 13.1828 24.0687V25.3029C13.1828 25.7756 13.5672 26.1601 14.0399 26.1601H16.2127C16.6854 26.1601 17.0699 25.7756 17.0699 25.3029V24.0687C17.0699 23.596 16.6854 23.2115 16.2127 23.2115ZM16.2127 25.3029H14.0399V24.0687L16.2127 24.0681V25.3029Z" fill="#76B82A"/>
<path d="M21.9822 23.2115H19.8092C19.3364 23.2115 18.952 23.596 18.952 24.0687V25.3029C18.952 25.7756 19.3364 26.1601 19.8092 26.1601H21.9822C22.4549 26.1601 22.8393 25.7756 22.8393 25.3029V24.0687C22.8393 23.596 22.4549 23.2115 21.9822 23.2115ZM21.9822 25.3029H19.8092V24.0687L21.9822 24.0681V25.3029Z" fill="#76B82A"/>
</svg>
