<svg width="50" height="50" viewBox="0 0 50 50" fill="none" xmlns="http://www.w3.org/2000/svg">
<g clip-path="url(#clip0)">
<path d="M8.82248 26.4318C9.41156 26.4318 9.88911 25.9543 9.88911 25.3652C9.88911 24.7761 9.41156 24.2986 8.82248 24.2986C8.2334 24.2986 7.75586 24.7761 7.75586 25.3652C7.75586 25.9543 8.2334 26.4318 8.82248 26.4318Z" fill="#76B82A"/>
<path d="M8.82248 31.6984C9.41156 31.6984 9.88911 31.2209 9.88911 30.6318C9.88911 30.0427 9.41156 29.5652 8.82248 29.5652C8.2334 29.5652 7.75586 30.0427 7.75586 30.6318C7.75586 31.2209 8.2334 31.6984 8.82248 31.6984Z" fill="#76B82A"/>
<path d="M8.82248 36.965C9.41156 36.965 9.88911 36.4875 9.88911 35.8984C9.88911 35.3093 9.41156 34.8318 8.82248 34.8318C8.2334 34.8318 7.75586 35.3093 7.75586 35.8984C7.75586 36.4875 8.2334 36.965 8.82248 36.965Z" fill="#76B82A"/>
<path d="M34.8902 0H12.7703C11.617 0 10.5324 0.447349 9.71477 1.26002L1.73584 8.69214C1.72944 8.69815 1.72314 8.70415 1.71704 8.71036C0.898258 9.52914 0.447364 10.6177 0.447364 11.7756V23.1636C0.447364 23.5714 0.778026 23.9021 1.18589 23.9021C1.59375 23.9021 1.92441 23.5714 1.92441 23.1636V11.7756C1.92441 11.6975 1.92825 11.6199 1.93446 11.5429H9.50197C11.1759 11.5429 12.5377 10.1812 12.5377 8.50731V1.48709C12.6147 1.48089 12.6922 1.47705 12.7704 1.47705H34.8903C35.6903 1.47705 36.341 2.12794 36.341 2.92791V47.0722C36.341 47.8722 35.6903 48.523 34.8903 48.523H3.37517C2.5751 48.523 1.92432 47.8722 1.92432 47.0722V26.1178C1.92432 25.7099 1.59365 25.3793 1.18579 25.3793C0.777928 25.3793 0.447266 25.7099 0.447266 26.1178V47.0722C0.447266 48.6866 1.76066 50.0001 3.37517 50.0001H34.8902C36.5046 50.0001 37.818 48.6866 37.818 47.0722V2.92791C37.8181 1.31339 36.5046 0 34.8902 0V0ZM11.0606 8.50731C11.0606 9.36676 10.3613 10.0659 9.50187 10.0659H2.49209C2.57136 9.96024 2.65801 9.85901 2.75264 9.76359L10.7307 2.33226C10.7371 2.32625 10.7434 2.32025 10.7495 2.31404C10.8476 2.21597 10.9516 2.12616 11.0607 2.04443V8.50731H11.0606Z" fill="#76B82A"/>
<path d="M30.5064 24.6267H13.3733C12.9654 24.6267 12.6348 24.9574 12.6348 25.3652C12.6348 25.7731 12.9654 26.1037 13.3733 26.1037H30.5064C30.9142 26.1037 31.2449 25.7731 31.2449 25.3652C31.2449 24.9574 30.9142 24.6267 30.5064 24.6267Z" fill="#76B82A"/>
<path d="M30.5064 29.8933H13.3733C12.9654 29.8933 12.6348 30.224 12.6348 30.6318C12.6348 31.0397 12.9654 31.3703 13.3733 31.3703H30.5064C30.9142 31.3703 31.2449 31.0397 31.2449 30.6318C31.2449 30.224 30.9142 29.8933 30.5064 29.8933Z" fill="#76B82A"/>
<path d="M30.5064 35.1599H13.3733C12.9654 35.1599 12.6348 35.4906 12.6348 35.8984C12.6348 36.3063 12.9654 36.6369 13.3733 36.6369H30.5064C30.9142 36.6369 31.2449 36.3063 31.2449 35.8984C31.2449 35.4906 30.9142 35.1599 30.5064 35.1599Z" fill="#76B82A"/>
<path d="M16.9277 17.3005H8.18579C7.77793 17.3005 7.44727 17.6312 7.44727 18.0391C7.44727 18.4469 7.77793 18.7776 8.18579 18.7776H16.9277C17.3355 18.7776 17.6662 18.4469 17.6662 18.0391C17.6662 17.6312 17.3355 17.3005 16.9277 17.3005Z" fill="#76B82A"/>
<path d="M48.8147 15.5411H46.5427V13.7635C46.5427 12.0717 45.1663 10.6953 43.4745 10.6953C41.7827 10.6953 40.4062 12.0717 40.4062 13.7635V23.7341C40.4062 24.142 40.7369 24.4726 41.1448 24.4726C41.5526 24.4726 41.8833 24.142 41.8833 23.7341V17.0181H45.0655V40.3462H41.8833V26.6882C41.8833 26.2804 41.5526 25.9497 41.1448 25.9497C40.7369 25.9497 40.4062 26.2804 40.4062 26.6882V41.0848C40.4062 41.0901 40.4069 41.0953 40.407 41.1006C40.4073 41.1152 40.408 41.1299 40.4093 41.1447C40.4102 41.1563 40.4115 41.1677 40.4129 41.1792C40.4145 41.1911 40.4162 41.2029 40.4184 41.2148C40.4209 41.2289 40.4239 41.2428 40.4271 41.2566C40.4284 41.262 40.4291 41.2674 40.4306 41.2728L42.543 49.2953C42.548 49.3141 42.5537 49.3326 42.56 49.3508C42.6956 49.7391 43.0631 50 43.4744 50C43.8859 50 44.2534 49.7389 44.3889 49.3505C44.3952 49.3324 44.4009 49.314 44.4057 49.2953L46.5183 41.2728C46.5197 41.2674 46.5204 41.262 46.5217 41.2566C46.5251 41.2428 46.528 41.2289 46.5305 41.2148C46.5326 41.2029 46.5344 41.1911 46.5359 41.1792C46.5374 41.1677 46.5387 41.1563 46.5395 41.1447C46.5407 41.1299 46.5414 41.1152 46.5418 41.1006C46.5419 41.0953 46.5426 41.0901 46.5426 41.0848V17.0182H48.0761V27.6778C48.0761 28.0857 48.4067 28.4164 48.8146 28.4164C49.2224 28.4164 49.5531 28.0857 49.5531 27.6778V16.2796C49.5532 15.8718 49.2225 15.5411 48.8147 15.5411ZM41.8833 15.5411V13.7635C41.8833 12.8862 42.5971 12.1724 43.4745 12.1724C44.3518 12.1724 45.0656 12.8862 45.0656 13.7635V15.5411H41.8833ZM43.4745 47.0318L42.103 41.8233H44.846L43.4745 47.0318Z" fill="#76B82A"/>
</g>
<defs>
<clipPath id="clip0">
<rect width="50" height="50" fill="white"/>
</clipPath>
</defs>
</svg>
