<svg width="21" height="21" viewBox="0 0 21 21" fill="none" xmlns="http://www.w3.org/2000/svg">
<path d="M12.0432 20.6742H8.83406C8.29804 20.6742 7.86201 20.239 7.86201 19.7039V12.4788H5.98976C5.45374 12.4788 5.01771 12.0434 5.01771 11.5085V8.41249C5.01771 7.87745 5.45374 7.4422 5.98976 7.4422H7.86201V5.89185C7.86201 4.35461 8.34559 3.04675 9.26031 2.10988C10.1792 1.16874 11.4633 0.671387 12.9738 0.671387L15.4212 0.675355C15.9563 0.67627 16.3916 1.11151 16.3916 1.64564V4.52019C16.3916 5.05524 15.9557 5.49048 15.4198 5.49048L13.772 5.49109C13.2695 5.49109 13.1415 5.59166 13.1141 5.62249C13.069 5.67361 13.0154 5.81814 13.0154 6.21721V7.44205H15.296C15.4677 7.44205 15.634 7.48432 15.7769 7.56399C16.0853 7.73598 16.277 8.06119 16.277 8.41265L16.2758 11.5086C16.2758 12.0434 15.8398 12.4786 15.3038 12.4786H13.0154V19.7039C13.0154 20.239 12.5792 20.6742 12.0432 20.6742ZM9.03679 19.5015H11.8404V11.9538C11.8404 11.5965 12.1317 11.306 12.4894 11.306H15.101L15.1021 8.61485H12.4893C12.1315 8.61485 11.8404 8.32429 11.8404 7.96703V6.21721C11.8404 5.75908 11.8871 5.23807 12.2335 4.84647C12.6521 4.37308 13.3118 4.31844 13.7717 4.31844L15.2168 4.31783V1.8477L12.9729 1.84404C10.5453 1.84404 9.03679 3.39516 9.03679 5.89185V7.96703C9.03679 8.32413 8.7457 8.61485 8.38794 8.61485H6.19249V11.306H8.38794C8.7457 11.306 9.03679 11.5965 9.03679 11.9538V19.5015ZM15.4189 1.848H15.419H15.4189Z" fill="#494947"/>
</svg>
