<svg width="21" height="21" viewBox="0 0 21 21" fill="none" xmlns="http://www.w3.org/2000/svg">
<path d="M14.8832 0.710449H6.50256C3.29908 0.710449 0.692871 3.31703 0.692871 6.52095V14.9028C0.692871 18.1067 3.29908 20.7133 6.50256 20.7133H14.8832C18.0867 20.7133 20.6929 18.1067 20.6929 14.9028V6.52095C20.6929 3.31703 18.0867 0.710449 14.8832 0.710449ZM19.1304 14.9028C19.1304 17.245 17.2251 19.1505 14.8832 19.1505H6.50256C4.16064 19.1505 2.25537 17.245 2.25537 14.9028V6.52095C2.25537 4.17871 4.16064 2.27317 6.50256 2.27317H14.8832C17.2251 2.27317 19.1304 4.17871 19.1304 6.52095V14.9028Z" fill="#494947"/>
<path d="M10.6929 5.31982C7.72045 5.31982 5.30225 7.73837 5.30225 10.7112C5.30225 13.684 7.72045 16.1026 10.6929 16.1026C13.6653 16.1026 16.0835 13.684 16.0835 10.7112C16.0835 7.73837 13.6653 5.31982 10.6929 5.31982ZM10.6929 14.5399C8.58205 14.5399 6.86475 12.8223 6.86475 10.7112C6.86475 8.60009 8.58205 6.88254 10.6929 6.88254C12.8037 6.88254 14.521 8.60009 14.521 10.7112C14.521 12.8223 12.8037 14.5399 10.6929 14.5399Z" fill="#494947"/>
<path d="M16.1616 6.02295C16.5931 6.02295 16.9429 5.67317 16.9429 5.2417C16.9429 4.81023 16.5931 4.46045 16.1616 4.46045C15.7301 4.46045 15.3804 4.81023 15.3804 5.2417C15.3804 5.67317 15.7301 6.02295 16.1616 6.02295Z" fill="#494947"/>
</svg>
