<svg width="21" height="21" viewBox="0 0 21 21" fill="none" xmlns="http://www.w3.org/2000/svg">
<path d="M13.7712 9.81153L9.35272 7.39392C9.09866 7.25492 8.79837 7.2601 8.54935 7.40766C8.30017 7.55536 8.15155 7.81629 8.15155 8.1059V12.8996C8.15155 13.1878 8.29925 13.4483 8.54675 13.5962C8.67599 13.6734 8.81927 13.7121 8.96286 13.7121C9.09439 13.7121 9.22622 13.6796 9.34753 13.6143L13.7661 11.2384C14.0284 11.0972 14.1922 10.8246 14.1934 10.5266C14.1945 10.2285 14.0327 9.95465 13.7712 9.81153ZM9.32357 12.2966V8.71381L12.6259 10.5208L9.32357 12.2966Z" fill="#494947"/>
<path d="M20.5457 6.70811L20.5448 6.69896C20.5278 6.53795 20.3592 5.10587 19.6631 4.37746C18.8585 3.52071 17.9464 3.41664 17.5077 3.36673C17.4714 3.36261 17.4381 3.3588 17.4084 3.35483L17.3734 3.35117C14.7294 3.15888 10.7363 3.13263 10.6963 3.13248L10.6928 3.13232L10.6893 3.13248C10.6493 3.13263 6.65629 3.15888 3.98845 3.35117L3.9532 3.35483C3.92482 3.35864 3.89354 3.36215 3.85952 3.36612C3.42586 3.41618 2.52346 3.52041 1.71658 4.40814C1.05359 5.12876 0.861938 6.53017 0.842254 6.68766L0.839965 6.70811C0.834014 6.77511 0.692871 8.37003 0.692871 9.9712V11.468C0.692871 13.0692 0.834014 14.6641 0.839965 14.7312L0.841033 14.7413C0.857971 14.8997 1.02643 16.3056 1.71933 17.0343C2.47585 17.8623 3.43242 17.9719 3.94695 18.0308C4.02828 18.0401 4.09831 18.048 4.14607 18.0564L4.19231 18.0629C5.71894 18.2081 10.5055 18.2797 10.7084 18.2826L10.7145 18.2828L10.7206 18.2826C10.7606 18.2825 14.7535 18.2562 17.3975 18.0639L17.4325 18.0603C17.4659 18.0558 17.5034 18.0519 17.5446 18.0476C17.9758 18.0018 18.8733 17.9067 19.6691 17.0311C20.3321 16.3103 20.5239 14.9089 20.5434 14.7515L20.5457 14.7311C20.5516 14.6639 20.6929 13.0692 20.6929 11.468V9.9712C20.6928 8.37003 20.5516 6.77526 20.5457 6.70811ZM19.5208 11.468C19.5208 12.95 19.3914 14.4762 19.3792 14.6163C19.3294 15.0023 19.1272 15.8889 18.8042 16.2401C18.3062 16.7881 17.7945 16.8424 17.421 16.882C17.3759 16.8867 17.334 16.8913 17.2962 16.896C14.7388 17.081 10.8965 17.1093 10.7195 17.1104C10.521 17.1075 5.80455 17.0353 4.32445 16.8978C4.24861 16.8855 4.16667 16.876 4.08031 16.8662C3.64223 16.816 3.04256 16.7474 2.58144 16.2401L2.57061 16.2285C2.25323 15.8978 2.05685 15.0687 2.00695 14.6209C1.99765 14.515 1.86489 12.9707 1.86489 11.468V9.9712C1.86489 8.49089 1.99398 6.96633 2.0065 6.82333C2.06585 6.36871 2.27184 5.53577 2.58144 5.19911C3.09475 4.63446 3.63597 4.57189 3.99394 4.53053C4.02812 4.52656 4.06001 4.5229 4.08946 4.51908C6.68406 4.33321 10.554 4.30558 10.6928 4.30452C10.8317 4.30543 14.7002 4.33321 17.2718 4.51908C17.3034 4.52305 17.3379 4.52702 17.3749 4.53129C17.7431 4.57326 18.2996 4.63675 18.8103 5.18156L18.8151 5.1866C19.1324 5.5173 19.3288 6.36093 19.3787 6.81769C19.3876 6.91764 19.5208 8.46526 19.5208 9.9712V11.468Z" fill="#494947"/>
</svg>
