<svg width="21" height="21" viewBox="0 0 21 21" fill="none" xmlns="http://www.w3.org/2000/svg">
<path d="M20.384 2.69721C20.1397 2.3984 19.7738 2.23389 19.3536 2.23389C19.1252 2.23389 18.8832 2.28196 18.6345 2.37703L1.70484 8.8405C0.806405 9.18341 0.685403 9.69801 0.693185 9.97423C0.700967 10.2505 0.850961 10.7574 1.7674 11.0491C1.7729 11.0507 1.77839 11.0524 1.78388 11.0539L5.29554 12.059L7.19465 17.4904C7.45359 18.2308 8.0348 18.6908 8.71168 18.6908C9.13847 18.6908 9.55824 18.512 9.92567 18.1738L12.0978 16.1735L15.2482 18.7107C15.2485 18.711 15.249 18.7111 15.2493 18.7114L15.2792 18.7355C15.282 18.7377 15.2849 18.74 15.2876 18.7421C15.6378 19.0137 16.02 19.1572 16.3934 19.1573H16.3936C17.1231 19.1573 17.704 18.6173 17.8732 17.7816L20.6471 4.08275C20.7585 3.5329 20.6651 3.04088 20.384 2.69721ZM6.47032 11.8681L13.2454 8.40647L9.02677 12.8897C8.95765 12.9631 8.90867 13.053 8.88456 13.1508L8.07112 16.4462L6.47032 11.8681ZM9.13175 17.3115C9.10368 17.3373 9.07545 17.3604 9.04722 17.3816L9.80192 14.3245L11.1748 15.4302L9.13175 17.3115ZM19.4986 3.85002L16.7247 17.549C16.698 17.6801 16.6127 17.9851 16.3934 17.9851C16.2851 17.9851 16.149 17.9261 16.0097 17.8188L12.4397 14.944C12.4392 14.9435 12.4386 14.943 12.438 14.9427L10.3139 13.232L16.4145 6.74868C16.6098 6.54113 16.6275 6.22325 16.4564 5.99525C16.2852 5.76725 15.975 5.69552 15.7213 5.82524L5.68739 10.952L2.12797 9.93348L19.0524 3.47201C19.1954 3.41737 19.2952 3.40593 19.3536 3.40593C19.3895 3.40593 19.4533 3.4102 19.4769 3.43935C19.508 3.47735 19.5477 3.60691 19.4986 3.85002Z" fill="#494947"/>
</svg>
