<svg width="35" height="35" viewBox="0 0 35 35" fill="none" xmlns="http://www.w3.org/2000/svg">
<path d="M3.29752 32.001C2.99524 32.001 2.74797 31.7564 2.74797 31.4541C2.74797 31.1516 2.98963 30.9072 3.29164 30.9072H3.29752C3.59953 30.9072 3.84439 31.1516 3.84439 31.4541C3.84439 31.7564 3.59953 32.001 3.29752 32.001Z" fill="#76B82A"/>
<path d="M33.3604 26.2396C33.1711 26.2396 32.9874 26.1416 32.887 25.9667C32.7353 25.7047 32.8251 25.3707 33.0859 25.2198C33.5922 24.9271 33.9062 24.3824 33.9062 23.7979C33.9062 22.8932 33.1701 22.1572 32.2656 22.1572C31.9631 22.1572 31.7188 21.9126 31.7188 21.6104C31.7188 21.3078 31.9631 21.0635 32.2656 21.0635C33.7733 21.0635 35 22.2899 35 23.7979C35 24.7706 34.4766 25.6785 33.6339 26.1659C33.5476 26.2161 33.4534 26.2396 33.3604 26.2396Z" fill="#76B82A"/>
<path d="M18.5943 34.1885C18.3997 34.1885 18.2109 34.0847 18.1121 33.9009C17.9687 33.635 18.0688 33.3031 18.3345 33.1605L33.1001 25.2105C33.3648 25.0671 33.698 25.1672 33.8406 25.4329C33.9835 25.6989 33.8839 26.0308 33.6182 26.1734L18.8525 34.1234C18.7706 34.1677 18.6819 34.1885 18.5943 34.1885Z" fill="#76B82A"/>
<path d="M18.5943 34.1886C18.5708 34.1886 18.5473 34.187 18.5233 34.1835L5.94516 32.5429C5.64555 32.5042 5.4338 32.2297 5.47358 31.9306C5.51257 31.6307 5.78494 31.4163 6.08615 31.459L18.6643 33.0997C18.9639 33.1387 19.1756 33.4132 19.1358 33.7122C19.1001 33.9878 18.8651 34.1886 18.5943 34.1886Z" fill="#76B82A"/>
<path d="M6.01562 33.6416H0.546875C0.244331 33.6416 0 33.397 0 33.0947V18.3291C0 18.0266 0.244331 17.7822 0.546875 17.7822H6.01562C6.31817 17.7822 6.5625 18.0266 6.5625 18.3291V33.0947C6.5625 33.397 6.31817 33.6416 6.01562 33.6416ZM1.09375 32.5479H5.46875V18.876H1.09375V32.5479Z" fill="#76B82A"/>
<path d="M21.3276 23.7979C21.0619 23.7979 20.8288 23.6044 20.7879 23.333C20.7425 23.0345 20.9476 22.7555 21.2462 22.7101L31.8101 21.1018C32.1092 21.0564 32.3877 21.2614 32.4331 21.56C32.4785 21.8588 32.2734 22.1376 31.9746 22.183L21.4101 23.7913C21.3829 23.7958 21.3548 23.7979 21.3276 23.7979Z" fill="#76B82A"/>
<path d="M19.1406 25.9855C18.8381 25.9855 18.5938 25.7409 18.5938 25.4386C18.5938 25.1361 18.8381 24.8917 19.1406 24.8917C20.0451 24.8917 20.7812 24.1555 20.7812 23.2511C20.7812 22.4498 20.2103 21.7702 19.4234 21.6345C19.1259 21.583 18.9262 21.3005 18.9777 21.0027C19.029 20.7053 19.3129 20.5079 19.6093 20.5571C20.9222 20.7824 21.875 21.9157 21.875 23.2511C21.875 24.7588 20.6483 25.9855 19.1406 25.9855Z" fill="#76B82A"/>
<path d="M19.5168 21.6421C19.4823 21.6421 19.4468 21.6387 19.4118 21.6317L10.8325 19.9588C10.5361 19.9014 10.3425 19.6138 10.4004 19.3174C10.4584 19.0207 10.7444 18.8271 11.0418 18.8853L19.6212 20.558C19.9176 20.6154 20.1112 20.9033 20.0533 21.1997C20.0025 21.4611 19.7734 21.6421 19.5168 21.6421Z" fill="#76B82A"/>
<path d="M10.9375 19.9697H6.01562C5.71308 19.9697 5.46875 19.7251 5.46875 19.4229C5.46875 19.1203 5.71308 18.876 6.01562 18.876H10.9375C11.24 18.876 11.4844 19.1203 11.4844 19.4229C11.4844 19.7251 11.24 19.9697 10.9375 19.9697Z" fill="#76B82A"/>
<path d="M18.911 25.9723C18.8974 25.9723 18.8824 25.9718 18.8683 25.9704L11.9891 25.4364C11.6879 25.4129 11.4625 25.1501 11.486 24.8489C11.5095 24.5472 11.7741 24.3213 12.0734 24.3458L18.9524 24.8801C19.2539 24.9036 19.4792 25.1661 19.4557 25.4673C19.4333 25.7547 19.1943 25.9723 18.911 25.9723Z" fill="#76B82A"/>
<path d="M31.8909 22.1877C31.6289 22.1877 31.3971 21.9986 31.3523 21.731C31.3023 21.433 31.5032 21.1508 31.8012 21.1017C31.9539 21.076 32.1096 21.0635 32.2655 21.0635C32.5681 21.0635 32.8124 21.3078 32.8124 21.6104C32.8124 21.9126 32.5681 22.1572 32.2655 22.1572C32.1689 22.1572 32.0735 22.1652 31.9817 22.1807C31.9515 22.1861 31.9211 22.1877 31.8909 22.1877Z" fill="#76B82A"/>
<path d="M19.1406 25.9853C19.0421 25.9853 18.9454 25.9796 18.8503 25.9687C18.5499 25.9348 18.3344 25.6638 18.3683 25.3644C18.4023 25.0643 18.6674 24.841 18.9726 24.8827C19.0284 24.8888 19.0837 24.892 19.1406 24.892C19.4431 24.892 19.6875 25.1364 19.6875 25.4389C19.6875 25.7412 19.4431 25.9853 19.1406 25.9853Z" fill="#76B82A"/>
<path d="M13.1338 20.379C13.1119 20.379 13.09 20.3779 13.0681 20.375C12.768 20.3389 12.5546 20.0665 12.5901 19.7669C12.6892 18.945 13.3891 18.3247 14.2187 18.3247C14.5213 18.3247 14.7656 18.5693 14.7656 18.8716C14.7656 19.1741 14.5213 19.4185 14.2187 19.4185C13.9421 19.4185 13.7085 19.6241 13.6761 19.897C13.6422 20.1749 13.4067 20.379 13.1338 20.379Z" fill="#76B82A"/>
<path d="M25.1567 20.5122C24.8544 20.5122 24.6098 20.2679 24.6098 19.9653C24.6098 19.6636 24.365 19.4185 24.063 19.4185C23.7607 19.4185 23.5161 19.1741 23.5161 18.8716C23.5161 18.5693 23.7607 18.3247 24.063 18.3247C24.9674 18.3247 25.7036 19.0609 25.7036 19.9653C25.7036 20.2679 25.4593 20.5122 25.1567 20.5122Z" fill="#76B82A"/>
<path d="M25.1567 23.2543C24.8544 23.2543 24.6098 23.01 24.6098 22.7075V19.9653C24.6098 19.6631 24.8544 19.4185 25.1567 19.4185C25.4593 19.4185 25.7036 19.6631 25.7036 19.9653V22.7075C25.7036 23.0095 25.4593 23.2543 25.1567 23.2543Z" fill="#76B82A"/>
<path d="M24.063 19.4185H14.2188C13.9162 19.4185 13.6719 19.1741 13.6719 18.8716C13.6719 18.5693 13.9162 18.3247 14.2188 18.3247H24.063C24.3656 18.3247 24.6099 18.5693 24.6099 18.8716C24.6099 19.1741 24.3656 19.4185 24.063 19.4185Z" fill="#76B82A"/>
<path d="M18.3208 19.4173C18.0185 19.4173 17.7739 19.1729 17.7739 18.8704V4.64844C17.7739 4.34589 18.0185 4.10156 18.3208 4.10156C18.6233 4.10156 18.8677 4.34589 18.8677 4.64844V18.8704C18.8677 19.1729 18.6233 19.4173 18.3208 19.4173Z" fill="#76B82A"/>
<path d="M19.9609 19.4173C19.6584 19.4173 19.4141 19.1729 19.4141 18.8704V4.64844C19.4141 4.34589 19.6584 4.10156 19.9609 4.10156C20.2635 4.10156 20.5078 4.34589 20.5078 4.64844V18.8704C20.5078 19.1729 20.2635 19.4173 19.9609 19.4173Z" fill="#76B82A"/>
<path d="M19.9609 2.73438C19.6584 2.73438 19.4141 2.49004 19.4141 2.1875C19.4141 2.03716 19.291 1.91406 19.1406 1.91406C18.9903 1.91406 18.8672 2.03716 18.8672 2.1875C18.8672 2.49004 18.6229 2.73438 18.3203 2.73438C18.0178 2.73438 17.7734 2.49004 17.7734 2.1875C17.7734 1.43341 18.3865 0.820312 19.1406 0.820312C19.8947 0.820312 20.5078 1.43341 20.5078 2.1875C20.5078 2.49004 20.2635 2.73438 19.9609 2.73438Z" fill="#76B82A"/>
<path d="M27.0791 5.19531C26.7765 5.19531 26.5322 4.95098 26.5322 4.64844C26.5322 4.34589 26.7765 4.10156 27.0791 4.10156C27.2294 4.10156 27.3525 3.97846 27.3525 3.82812C27.3525 3.67779 27.2294 3.55469 27.0791 3.55469C26.7765 3.55469 26.5322 3.31036 26.5322 3.00781C26.5322 2.70527 26.7765 2.46094 27.0791 2.46094C27.8332 2.46094 28.4463 3.07404 28.4463 3.82812C28.4463 4.58221 27.8332 5.19531 27.0791 5.19531Z" fill="#76B82A"/>
<path d="M11.2182 5.19531C10.4638 5.19531 9.85097 4.58221 9.85097 3.82812C9.85097 3.07404 10.4638 2.46094 11.2182 2.46094C11.5204 2.46094 11.765 2.70527 11.765 3.00781C11.765 3.31036 11.5204 3.55469 11.2182 3.55469C11.0676 3.55469 10.9447 3.67779 10.9447 3.82812C10.9447 3.97846 11.0676 4.10156 11.2182 4.10156C11.5204 4.10156 11.765 4.34589 11.765 4.64844C11.765 4.95098 11.5199 5.19531 11.2182 5.19531Z" fill="#76B82A"/>
<path d="M27.0791 3.55566H11.2547C10.9522 3.55566 10.7079 3.31133 10.7079 3.00879C10.7079 2.70651 10.9522 2.46191 11.2547 2.46191H27.0791C27.3814 2.46191 27.626 2.70651 27.626 3.00879C27.626 3.31133 27.3809 3.55566 27.0791 3.55566Z" fill="#76B82A"/>
<path d="M27.0791 5.19531H11.2547C10.9522 5.19531 10.7079 4.95098 10.7079 4.64844C10.7079 4.34589 10.9522 4.10156 11.2547 4.10156H27.0791C27.3814 4.10156 27.626 4.34589 27.626 4.64844C27.626 4.95098 27.3809 5.19531 27.0791 5.19531Z" fill="#76B82A"/>
<path d="M18.3203 3.55576C18.0178 3.55576 17.7734 3.31142 17.7734 3.00888V2.1875C17.7734 1.88496 18.0178 1.64062 18.3203 1.64062C18.6229 1.64062 18.8672 1.88496 18.8672 2.1875V3.00888C18.8672 3.31142 18.6229 3.55576 18.3203 3.55576Z" fill="#76B82A"/>
<path d="M19.9609 3.55469C19.6584 3.55469 19.4141 3.31036 19.4141 3.00781V2.1875C19.4141 1.88496 19.6584 1.64062 19.9609 1.64062C20.2635 1.64062 20.5078 1.88496 20.5078 2.1875V3.00781C20.5078 3.31036 20.2635 3.55469 19.9609 3.55469Z" fill="#76B82A"/>
<path d="M11.4921 15.5891C9.68247 15.5891 8.21034 14.1175 8.21034 12.3079C8.21034 12.0056 8.45467 11.761 8.75722 11.761C9.05949 11.761 9.30409 12.0056 9.30409 12.3079C9.30409 13.5143 10.2857 14.4954 11.4921 14.4954C12.6986 14.4954 13.6802 13.5143 13.6802 12.3079C13.6802 12.0056 13.9245 11.761 14.227 11.761C14.5293 11.761 14.7739 12.0056 14.7739 12.3079C14.7739 14.1175 13.301 15.5891 11.4921 15.5891Z" fill="#76B82A"/>
<path d="M14.227 12.8547H8.75722C8.45467 12.8547 8.21034 12.6104 8.21034 12.3079C8.21034 12.0056 8.45467 11.761 8.75722 11.761H14.227C14.5293 11.761 14.7739 12.0056 14.7739 12.3079C14.7739 12.6104 14.5288 12.8547 14.227 12.8547Z" fill="#76B82A"/>
<path d="M8.75722 12.8547C8.69633 12.8547 8.63358 12.8443 8.57323 12.8224C8.28831 12.7209 8.14011 12.408 8.24238 12.1241L10.9781 4.46465C11.079 4.17973 11.392 4.02939 11.6764 4.1338C11.9613 4.23554 12.1095 4.54823 12.0072 4.83208L9.27178 12.4915C9.19247 12.7153 8.98179 12.8547 8.75722 12.8547Z" fill="#76B82A"/>
<path d="M14.227 12.8547C14.0022 12.8547 13.7918 12.7153 13.7125 12.4915L10.9781 4.83208C10.8758 4.5477 11.0246 4.23501 11.3089 4.1338C11.5915 4.03046 11.906 4.18027 12.0072 4.46465L14.7416 12.1241C14.8439 12.4085 14.6951 12.7214 14.4107 12.8224C14.3501 12.8443 14.2876 12.8547 14.227 12.8547Z" fill="#76B82A"/>
<path d="M26.8193 16.1448C25.0054 16.1448 23.5292 14.6695 23.5292 12.8547C23.5292 12.5525 23.7738 12.3079 24.0761 12.3079C24.3786 12.3079 24.623 12.5525 24.623 12.8547C24.623 14.0657 25.6086 15.051 26.8193 15.051C28.03 15.051 29.0156 14.0657 29.0156 12.8547C29.0156 12.5525 29.2599 12.3079 29.5625 12.3079C29.8647 12.3079 30.1093 12.5525 30.1093 12.8547C30.1093 14.6689 28.6332 16.1448 26.8193 16.1448Z" fill="#76B82A"/>
<path d="M29.5542 13.4016H24.0844C23.7819 13.4016 23.5375 13.1573 23.5375 12.8547C23.5375 12.5525 23.7819 12.3079 24.0844 12.3079H29.5542C29.8568 12.3079 30.1011 12.5525 30.1011 12.8547C30.1011 13.1573 29.8568 13.4016 29.5542 13.4016Z" fill="#76B82A"/>
<path d="M24.0845 13.4016C24.0276 13.4016 23.9691 13.3922 23.9117 13.3733C23.6257 13.2779 23.4703 12.9685 23.5659 12.6814L26.3016 4.47508C26.3972 4.18909 26.7035 4.03368 26.9932 4.12927C27.2792 4.2246 27.4346 4.53409 27.339 4.82115L24.6033 13.0275C24.527 13.2569 24.3136 13.4016 24.0845 13.4016Z" fill="#76B82A"/>
<path d="M29.5542 13.4016C29.3251 13.4016 29.1118 13.2569 29.0359 13.0275L26.3016 4.8212C26.2057 4.53468 26.3606 4.22466 26.6471 4.12933C26.9363 4.03373 27.2431 4.18861 27.339 4.47513L30.0733 12.6815C30.1689 12.968 30.0141 13.278 29.7275 13.3733C29.6696 13.3923 29.6111 13.4016 29.5542 13.4016Z" fill="#76B82A"/>
</svg>
