<svg width="35" height="35" viewBox="0 0 35 35" fill="none" xmlns="http://www.w3.org/2000/svg">
<path d="M3.29769 29.8035C2.99526 29.8035 2.74808 29.559 2.74808 29.2566C2.74808 28.9542 2.9898 28.7097 3.29167 28.7097H3.29769C3.59956 28.7097 3.84456 28.9542 3.84456 29.2566C3.84456 29.559 3.59956 29.8035 3.29769 29.8035Z" fill="#76B82A"/>
<path d="M33.3605 24.0421C33.1712 24.0421 32.9875 23.9443 32.8869 23.7692C32.7354 23.5073 32.8251 23.1732 33.0859 23.0222C33.5923 22.7296 33.9062 22.185 33.9062 21.6003C33.9062 20.6958 33.1702 19.9597 32.2656 19.9597C31.9632 19.9597 31.7188 19.7153 31.7188 19.4128C31.7188 19.1104 31.9632 18.866 32.2656 18.866C33.7734 18.866 35 20.0926 35 21.6003C35 22.5732 34.4766 23.481 33.6339 23.9683C33.5475 24.0186 33.4534 24.0421 33.3605 24.0421Z" fill="#76B82A"/>
<path d="M18.5944 31.9911C18.3997 31.9911 18.211 31.8872 18.112 31.7034C17.9688 31.4376 18.0688 31.1057 18.3346 30.9629L33.1002 23.013C33.3655 22.8697 33.698 22.9693 33.8407 23.2356C33.984 23.5014 33.8839 23.8333 33.6181 23.9761L18.8525 31.926C18.7705 31.9703 18.6819 31.9911 18.5944 31.9911Z" fill="#76B82A"/>
<path d="M18.5944 31.9909C18.5709 31.9909 18.5473 31.9892 18.5233 31.9859L5.94515 30.3453C5.64546 30.3065 5.43382 30.032 5.47374 29.7328C5.51202 29.4331 5.78382 29.2204 6.08624 29.2614L18.6644 30.902C18.9641 30.9409 19.1757 31.2154 19.1358 31.5145C19.1002 31.7902 18.8651 31.9909 18.5944 31.9909Z" fill="#76B82A"/>
<path d="M6.01562 31.4441H0.546875C0.244453 31.4441 0 31.1996 0 30.8972V16.1316C0 15.8297 0.244453 15.5847 0.546875 15.5847H6.01562C6.31805 15.5847 6.5625 15.8297 6.5625 16.1316V30.8972C6.5625 31.1996 6.31805 31.4441 6.01562 31.4441ZM1.09375 30.3503H5.46875V16.6785H1.09375V30.3503Z" fill="#76B82A"/>
<path d="M21.3276 21.6004C21.0618 21.6004 20.8289 21.4068 20.7878 21.1355C20.7425 20.8369 20.9475 20.558 21.2461 20.5126L31.8101 18.9043C32.1065 18.8567 32.3876 19.0639 32.433 19.3625C32.4784 19.6611 32.2733 19.94 31.9747 19.9854L21.4102 21.5938C21.3828 21.5982 21.355 21.6004 21.3276 21.6004Z" fill="#76B82A"/>
<path d="M19.1406 23.7879C18.8382 23.7879 18.5938 23.5434 18.5938 23.241C18.5938 22.9386 18.8382 22.6941 19.1406 22.6941C20.0452 22.6941 20.7812 21.958 20.7812 21.0535C20.7812 20.2523 20.2103 19.5726 19.4234 19.4369C19.1259 19.3855 18.9262 19.1028 18.9777 18.8053C19.0291 18.5078 19.3118 18.3093 19.6093 18.3596C20.9223 18.5849 21.875 19.7186 21.875 21.0535C21.875 22.5612 20.6484 23.7879 19.1406 23.7879Z" fill="#76B82A"/>
<path d="M19.5169 19.4451C19.4824 19.4451 19.4469 19.4419 19.4119 19.4348L10.8325 17.7619C10.5361 17.7045 10.3425 17.4168 10.4005 17.1204C10.4573 16.824 10.7461 16.6282 11.0419 16.6884L19.6213 18.3612C19.9177 18.4187 20.1113 18.7063 20.0534 19.0027C20.0025 19.2641 19.7734 19.4451 19.5169 19.4451Z" fill="#76B82A"/>
<path d="M10.9375 17.7722H6.01562C5.7132 17.7722 5.46875 17.5272 5.46875 17.2253C5.46875 16.9235 5.7132 16.6785 6.01562 16.6785H10.9375C11.2399 16.6785 11.4844 16.9235 11.4844 17.2253C11.4844 17.5272 11.2399 17.7722 10.9375 17.7722Z" fill="#76B82A"/>
<path d="M18.911 23.7752C18.8973 23.7752 18.8825 23.7746 18.8683 23.7735L11.9892 23.2392C11.6879 23.2157 11.4625 22.9532 11.4861 22.6519C11.5096 22.3506 11.7754 22.1263 12.0734 22.1488L18.9525 22.6831C19.2539 22.7066 19.4792 22.9691 19.4557 23.2704C19.4333 23.557 19.1943 23.7752 18.911 23.7752Z" fill="#76B82A"/>
<path d="M31.8909 19.9908C31.629 19.9908 31.3971 19.8016 31.3523 19.5342C31.3025 19.2361 31.5032 18.954 31.8013 18.9047C31.9538 18.879 32.1097 18.8665 32.2656 18.8665C32.568 18.8665 32.8124 19.1109 32.8124 19.4133C32.8124 19.7158 32.568 19.9602 32.2656 19.9602C32.1688 19.9602 32.0736 19.9684 31.9817 19.9837C31.9516 19.9886 31.921 19.9908 31.8909 19.9908Z" fill="#76B82A"/>
<path d="M19.1406 23.788C19.0422 23.788 18.9454 23.7825 18.8502 23.7716C18.55 23.7377 18.3345 23.4664 18.3684 23.1673C18.4023 22.867 18.6686 22.6461 18.9727 22.6855C19.0285 22.6915 19.0837 22.6948 19.1406 22.6948C19.443 22.6948 19.6875 22.9392 19.6875 23.2416C19.6875 23.5441 19.443 23.788 19.1406 23.788Z" fill="#76B82A"/>
<path d="M32.2656 10.3348C31.9631 10.3348 31.7187 10.0898 31.7187 9.7879C31.7187 8.76743 30.9897 7.90501 29.9856 7.73712C29.6876 7.68735 29.4869 7.40517 29.5367 7.10767C29.587 6.81017 29.8686 6.60892 30.1661 6.65868C31.6996 6.91517 32.8124 8.2315 32.8124 9.7879C32.8124 10.0903 32.568 10.3348 32.2656 10.3348Z" fill="#76B82A"/>
<path d="M32.2656 11.2119C31.9632 11.2119 31.7188 10.9669 31.7188 10.665V9.78784C31.7188 9.48597 31.9632 9.24097 32.2656 9.24097C32.568 9.24097 32.8125 9.48597 32.8125 9.78784V10.665C32.8125 10.9669 32.568 11.2119 32.2656 11.2119Z" fill="#76B82A"/>
<path d="M32.8113 13.3978C32.5089 13.3978 32.2644 13.1528 32.2644 12.8509V11.2119H31.9363C31.6339 11.2119 31.3894 10.9669 31.3894 10.665C31.3894 10.3632 31.6339 10.1182 31.9363 10.1182H32.8113C33.1137 10.1182 33.3582 10.3632 33.3582 10.665V12.8509C33.3582 13.1528 33.1137 13.3978 32.8113 13.3978Z" fill="#76B82A"/>
<path d="M24.6592 13.3977H14.711C14.4085 13.3977 14.1641 13.1527 14.1641 12.8508C14.1641 12.549 14.4085 12.304 14.711 12.304H24.6586C24.961 12.304 25.2055 12.549 25.2055 12.8508C25.2055 13.1527 24.9616 13.3977 24.6592 13.3977Z" fill="#76B82A"/>
<path d="M8.20249 13.3977C8.08272 13.3977 7.96241 13.3584 7.86124 13.278L6.22061 11.9644C5.98436 11.7757 5.94663 11.4312 6.13585 11.1955C6.32397 10.9603 6.6685 10.9215 6.9042 11.1102L8.54483 12.4238C8.78108 12.6124 8.81882 12.957 8.6296 13.1927C8.52186 13.3277 8.36327 13.3977 8.20249 13.3977Z" fill="#76B82A"/>
<path d="M6.5625 12.0842C6.26008 12.0842 6.01562 11.8392 6.01562 11.5373V6.29004C6.01562 5.98816 6.26008 5.74316 6.5625 5.74316C6.86492 5.74316 7.10938 5.98816 7.10938 6.29004V11.5373C7.10938 11.8392 6.86492 12.0842 6.5625 12.0842Z" fill="#76B82A"/>
<path d="M8.95836 6.83691H6.5625C6.26008 6.83691 6.01562 6.59191 6.01562 6.29004C6.01562 5.98816 6.26008 5.74316 6.5625 5.74316H8.95836C9.26078 5.74316 9.50523 5.98816 9.50523 6.29004C9.50523 6.59191 9.26078 6.83691 8.95836 6.83691Z" fill="#76B82A"/>
<path d="M25.1552 7.38215C25.0026 7.38215 24.8506 7.31871 24.7423 7.19457C24.715 7.1634 21.9948 4.10254 17.5001 4.10254C12.9151 4.10254 9.31773 6.70457 9.28218 6.73082C9.03773 6.9091 8.69538 6.8566 8.51819 6.61379C8.33937 6.37043 8.39187 6.02809 8.63523 5.84926C8.79273 5.73332 12.5607 3.00879 17.5001 3.00879C22.5094 3.00879 25.4462 6.33652 25.5687 6.47816C25.7661 6.70621 25.7409 7.05074 25.5134 7.24871C25.4101 7.33785 25.2821 7.38215 25.1552 7.38215Z" fill="#76B82A"/>
<path d="M30.0776 7.74466C30.0645 7.74466 30.0508 7.74411 30.0371 7.74356L25.1152 7.38263C24.8139 7.3602 24.5875 7.09825 24.6099 6.79692C24.6318 6.4956 24.8834 6.27302 25.1951 6.29161L30.117 6.65255C30.4183 6.67497 30.6447 6.93692 30.6223 7.23825C30.6015 7.52536 30.362 7.74466 30.0776 7.74466Z" fill="#76B82A"/>
<path d="M16.9531 7.38391C16.6513 7.38391 16.4062 7.13891 16.4062 6.83703C16.4062 6.53516 16.6507 6.29016 16.9531 6.29016L25.1552 6.28906C25.457 6.28906 25.702 6.53406 25.702 6.83594C25.702 7.13781 25.4576 7.38281 25.1552 7.38281L16.9531 7.38391Z" fill="#76B82A"/>
<path d="M16.9526 7.3837C16.8793 7.3837 16.8044 7.36894 16.7333 7.33722L11.8015 5.1694C11.5248 5.048 11.3996 4.72479 11.521 4.44862C11.6424 4.17245 11.964 4.04557 12.2412 4.16807L17.1729 6.33644C17.4497 6.45784 17.5749 6.78104 17.4535 7.05722C17.3638 7.26175 17.1631 7.3837 16.9526 7.3837Z" fill="#76B82A"/>
<path d="M16.9531 7.38378C16.6507 7.38378 16.4062 7.13878 16.4062 6.8369V3.56714C16.4062 3.26526 16.6507 3.02026 16.9531 3.02026C17.2555 3.02026 17.5 3.26526 17.5 3.56714V6.8369C17.5 7.13878 17.2555 7.38378 16.9531 7.38378Z" fill="#76B82A"/>
<path d="M27.3384 15.5853C25.5288 15.5853 24.0571 14.1136 24.0571 12.3051C24.0571 10.4961 25.5288 9.02441 27.3384 9.02441C29.148 9.02441 30.6196 10.4961 30.6196 12.3051C30.6196 14.1136 29.148 15.5853 27.3384 15.5853ZM27.3384 10.1182C26.132 10.1182 25.1509 11.0993 25.1509 12.3051C25.1509 13.511 26.132 14.4915 27.3384 14.4915C28.5448 14.4915 29.5259 13.511 29.5259 12.3051C29.5259 11.0993 28.5448 10.1182 27.3384 10.1182Z" fill="#76B82A"/>
<path d="M27.3384 13.9452C26.4338 13.9452 25.6978 13.2096 25.6978 12.3051C25.6978 11.4006 26.4338 10.665 27.3384 10.665C28.2429 10.665 28.979 11.4006 28.979 12.3051C28.979 13.2096 28.2435 13.9452 27.3384 13.9452ZM27.3384 11.7588C27.0365 11.7588 26.7915 12.0038 26.7915 12.3051C26.7915 12.6064 27.0365 12.8514 27.3384 12.8514C27.6403 12.8514 27.8853 12.6064 27.8853 12.3051C27.8853 12.0038 27.6403 11.7588 27.3384 11.7588Z" fill="#76B82A"/>
<path d="M12.0312 15.5853C10.2216 15.5853 8.75 14.1136 8.75 12.3051C8.75 10.4961 10.2216 9.02441 12.0312 9.02441C13.8409 9.02441 15.3125 10.4961 15.3125 12.3051C15.3125 14.1136 13.8409 15.5853 12.0312 15.5853ZM12.0312 10.1182C10.8248 10.1182 9.84375 11.0993 9.84375 12.3051C9.84375 13.511 10.8248 14.4915 12.0312 14.4915C13.2377 14.4915 14.2188 13.511 14.2188 12.3051C14.2188 11.0993 13.2377 10.1182 12.0312 10.1182Z" fill="#76B82A"/>
<path d="M12.0312 13.9452C11.1267 13.9452 10.3906 13.2096 10.3906 12.3051C10.3906 11.4006 11.1267 10.665 12.0312 10.665C12.9358 10.665 13.6719 11.4006 13.6719 12.3051C13.6719 13.2096 12.9358 13.9452 12.0312 13.9452ZM12.0312 11.7588C11.7294 11.7588 11.4844 12.0038 11.4844 12.3051C11.4844 12.6064 11.7294 12.8514 12.0312 12.8514C12.3331 12.8514 12.5781 12.6064 12.5781 12.3051C12.5781 12.0038 12.3331 11.7588 12.0312 11.7588Z" fill="#76B82A"/>
<path d="M9.35266 13.3977H8.20312C7.9007 13.3977 7.65625 13.1527 7.65625 12.8508C7.65625 12.549 7.9007 12.304 8.20312 12.304H9.35266C9.65508 12.304 9.89953 12.549 9.89953 12.8508C9.89953 13.1527 9.65453 13.3977 9.35266 13.3977Z" fill="#76B82A"/>
<path d="M32.8114 13.3977H30.0174C29.715 13.3977 29.4706 13.1527 29.4706 12.8508C29.4706 12.549 29.715 12.304 30.0174 12.304H32.8114C33.1138 12.304 33.3583 12.549 33.3583 12.8508C33.3583 13.1527 33.1138 13.3977 32.8114 13.3977Z" fill="#76B82A"/>
</svg>
