<svg width="35" height="32" viewBox="0 0 35 32" fill="none" xmlns="http://www.w3.org/2000/svg">
<path d="M3.29772 29.8037C2.9953 29.8037 2.74811 29.5593 2.74811 29.2568C2.74811 28.9544 2.98983 28.71 3.2917 28.71H3.29772C3.59959 28.71 3.84459 28.9544 3.84459 29.2568C3.84459 29.5593 3.59959 29.8037 3.29772 29.8037Z" fill="#76B82A"/>
<path d="M33.3605 24.0424C33.1712 24.0424 32.9875 23.9445 32.8869 23.7695C32.7354 23.5075 32.8251 23.1734 33.0859 23.0225C33.5923 22.7299 33.9062 22.1852 33.9062 21.6006C33.9062 20.6961 33.1702 19.96 32.2656 19.96C31.9632 19.96 31.7188 19.7155 31.7188 19.4131C31.7188 19.1107 31.9632 18.8662 32.2656 18.8662C33.7734 18.8662 35 20.0929 35 21.6006C35 22.5735 34.4766 23.4813 33.6339 23.9686C33.5475 24.0189 33.4534 24.0424 33.3605 24.0424Z" fill="#76B82A"/>
<path d="M18.5944 31.9913C18.3997 31.9913 18.211 31.8874 18.112 31.7037C17.9688 31.4379 18.0688 31.1059 18.3346 30.9632L33.1002 23.0133C33.3655 22.87 33.698 22.9695 33.8407 23.2358C33.984 23.5016 33.8839 23.8336 33.6181 23.9763L18.8525 31.9262C18.7705 31.9705 18.6819 31.9913 18.5944 31.9913Z" fill="#76B82A"/>
<path d="M18.5943 31.9914C18.5708 31.9914 18.5473 31.9897 18.5232 31.9864L5.94512 30.3458C5.64543 30.307 5.43379 30.0324 5.47371 29.7333C5.51199 29.4336 5.78379 29.2209 6.08621 29.2619L18.6643 30.9025C18.964 30.9414 19.1757 31.2159 19.1357 31.515C19.1002 31.7907 18.865 31.9914 18.5943 31.9914Z" fill="#76B82A"/>
<path d="M6.01562 31.4443H0.546875C0.244453 31.4443 0 31.1999 0 30.8975V16.1318C0 15.83 0.244453 15.585 0.546875 15.585H6.01562C6.31805 15.585 6.5625 15.83 6.5625 16.1318V30.8975C6.5625 31.1999 6.31805 31.4443 6.01562 31.4443ZM1.09375 30.3506H5.46875V16.6787H1.09375V30.3506Z" fill="#76B82A"/>
<path d="M21.3276 21.6006C21.0618 21.6006 20.8289 21.407 20.7878 21.1358C20.7425 20.8372 20.9475 20.5583 21.2461 20.5129L31.8101 18.9045C32.1065 18.8569 32.3876 19.0642 32.433 19.3628C32.4784 19.6614 32.2733 19.9403 31.9747 19.9857L21.4102 21.594C21.3828 21.5984 21.355 21.6006 21.3276 21.6006Z" fill="#76B82A"/>
<path d="M19.1406 23.7881C18.8382 23.7881 18.5938 23.5437 18.5938 23.2413C18.5938 22.9388 18.8382 22.6944 19.1406 22.6944C20.0452 22.6944 20.7812 21.9583 20.7812 21.0538C20.7812 20.2526 20.2103 19.5728 19.4234 19.4372C19.1259 19.3858 18.9262 19.103 18.9777 18.8055C19.0291 18.508 19.3118 18.3095 19.6093 18.3598C20.9223 18.5852 21.875 19.7188 21.875 21.0538C21.875 22.5615 20.6484 23.7881 19.1406 23.7881Z" fill="#76B82A"/>
<path d="M19.5169 19.4454C19.4824 19.4454 19.4469 19.4421 19.4119 19.435L10.8325 17.7621C10.5361 17.7047 10.3425 17.417 10.4005 17.1206C10.4573 16.8242 10.7461 16.6284 11.0419 16.6886L19.6213 18.3615C19.9177 18.4189 20.1113 18.7066 20.0534 19.003C20.0025 19.2644 19.7734 19.4454 19.5169 19.4454Z" fill="#76B82A"/>
<path d="M10.9375 17.7725H6.01562C5.7132 17.7725 5.46875 17.5275 5.46875 17.2256C5.46875 16.9237 5.7132 16.6787 6.01562 16.6787H10.9375C11.2399 16.6787 11.4844 16.9237 11.4844 17.2256C11.4844 17.5275 11.2399 17.7725 10.9375 17.7725Z" fill="#76B82A"/>
<path d="M18.911 23.7754C18.8973 23.7754 18.8825 23.7749 18.8683 23.7738L11.9892 23.2395C11.6879 23.216 11.4625 22.9535 11.4861 22.6521C11.5096 22.3508 11.7754 22.1266 12.0734 22.149L18.9525 22.6833C19.2539 22.7068 19.4792 22.9693 19.4557 23.2706C19.4333 23.5572 19.1943 23.7754 18.911 23.7754Z" fill="#76B82A"/>
<path d="M31.8909 19.9911C31.629 19.9911 31.3971 19.8019 31.3522 19.5344C31.3025 19.2364 31.5032 18.9542 31.8012 18.905C31.9538 18.8793 32.1097 18.8667 32.2655 18.8667C32.5679 18.8667 32.8124 19.1112 32.8124 19.4136C32.8124 19.716 32.5679 19.9604 32.2655 19.9604C32.1687 19.9604 32.0736 19.9687 31.9817 19.984C31.9516 19.9889 31.921 19.9911 31.8909 19.9911Z" fill="#76B82A"/>
<path d="M19.1406 23.7882C19.0422 23.7882 18.9454 23.7827 18.8502 23.7718C18.55 23.7379 18.3345 23.4666 18.3684 23.1675C18.4023 22.8673 18.6687 22.6463 18.9727 22.6857C19.0285 22.6917 19.0838 22.695 19.1406 22.695C19.4431 22.695 19.6875 22.9395 19.6875 23.2419C19.6875 23.5443 19.4431 23.7882 19.1406 23.7882Z" fill="#76B82A"/>
<path d="M26.7178 15.7519H16.2198C16.1551 15.7519 16.0915 15.7325 16.0377 15.6968L12.0995 13.0691C12.0083 13.0081 11.9535 12.9057 11.9535 12.7961V5.90814C11.9535 5.72669 12.1002 5.58002 12.2816 5.58002H13.4484L15.6472 3.06461C15.7092 2.99341 15.7998 2.95239 15.8943 2.95239H23.4366C23.5133 2.95239 23.5878 2.9793 23.6469 3.02852L25.5241 4.59466H26.7178C26.8993 4.59466 27.0459 4.74133 27.0459 4.92278V15.4238C27.0459 15.6052 26.8993 15.7519 26.7178 15.7519ZM16.3192 15.0956H26.3897V5.25091H25.4053C25.3285 5.25091 25.254 5.224 25.195 5.17478L23.3174 3.60897H16.0429L13.8441 6.12438C13.7821 6.19558 13.6916 6.23659 13.5971 6.23659H12.6094V12.6206L16.3192 15.0956Z" fill="#76B82A"/>
<path d="M17.5316 10.1729C16.2654 10.1729 15.2347 9.14221 15.2347 7.87598C15.2347 6.60974 16.2654 5.5791 17.5316 5.5791C18.7979 5.5791 19.8285 6.60974 19.8285 7.87598C19.8285 9.14221 18.7979 10.1729 17.5316 10.1729ZM17.5316 6.23535C16.627 6.23535 15.891 6.97134 15.891 7.87598C15.891 8.78062 16.627 9.5166 17.5316 9.5166C18.4363 9.5166 19.1722 8.78062 19.1722 7.87598C19.1722 6.97134 18.4363 6.23535 17.5316 6.23535Z" fill="#76B82A"/>
<path d="M17.5317 9.18848C16.8079 9.18848 16.2192 8.59982 16.2192 7.87598C16.2192 7.15213 16.8079 6.56348 17.5317 6.56348C18.2556 6.56348 18.8442 7.15213 18.8442 7.87598C18.8442 8.59982 18.2556 9.18848 17.5317 9.18848ZM17.5317 7.21973C17.1698 7.21973 16.8755 7.51405 16.8755 7.87598C16.8755 8.2379 17.1698 8.53223 17.5317 8.53223C17.8937 8.53223 18.188 8.2379 18.188 7.87598C18.188 7.51405 17.8933 7.21973 17.5317 7.21973Z" fill="#76B82A"/>
<path d="M22.782 13.4541C22.0582 13.4541 21.4695 12.8654 21.4695 12.1416C21.4695 11.4178 22.0582 10.8291 22.782 10.8291C23.5059 10.8291 24.0945 11.4178 24.0945 12.1416C24.0945 12.8654 23.5059 13.4541 22.782 13.4541ZM22.782 11.4854C22.4201 11.4854 22.1258 11.7797 22.1258 12.1416C22.1258 12.5035 22.4201 12.7979 22.782 12.7979C23.144 12.7979 23.4383 12.5035 23.4383 12.1416C23.4383 11.7797 23.1436 11.4854 22.782 11.4854Z" fill="#76B82A"/>
<path d="M23.515 11.8136C23.4261 11.8136 23.3378 11.7778 23.2735 11.7073L18.7759 6.80605C18.6532 6.67283 18.6621 6.46513 18.7959 6.34274C18.9288 6.22002 19.1372 6.22855 19.2592 6.36275L23.7568 11.264C23.8796 11.3972 23.8707 11.6049 23.7368 11.7273C23.6742 11.785 23.5948 11.8136 23.515 11.8136Z" fill="#76B82A"/>
<path d="M22.2757 13.3143C22.2186 13.3143 22.1608 13.2996 22.1083 13.2681L16.2752 9.79848C16.119 9.70595 16.0682 9.50448 16.1607 9.34895C16.2532 9.19276 16.4547 9.14124 16.6102 9.23443L22.4433 12.704C22.5995 12.7966 22.6504 12.998 22.5578 13.1536C22.4968 13.2569 22.3875 13.3143 22.2757 13.3143Z" fill="#76B82A"/>
<path d="M10.3138 6.5625C10.1323 6.5625 9.98566 6.41583 9.98566 6.23438C9.98566 5.51053 10.5743 4.92188 11.2982 4.92188C11.4796 4.92188 11.6263 5.06855 11.6263 5.25C11.6263 5.43145 11.4796 5.57812 11.2982 5.57812C10.9362 5.57812 10.6419 5.87245 10.6419 6.23438C10.6419 6.41583 10.4952 6.5625 10.3138 6.5625Z" fill="#76B82A"/>
<path d="M11.2982 13.7808C10.5743 13.7808 9.98566 13.1921 9.98566 12.4683C9.98566 12.2868 10.1323 12.1401 10.3138 12.1401C10.4952 12.1401 10.6419 12.2868 10.6419 12.4683C10.6419 12.8302 10.9362 13.1245 11.2982 13.1245C11.4796 13.1245 11.6263 13.2712 11.6263 13.4526C11.6263 13.6341 11.4796 13.7808 11.2982 13.7808Z" fill="#76B82A"/>
<path d="M10.3138 12.7964C10.1323 12.7964 9.98566 12.6497 9.98566 12.4683V6.23096C9.98566 6.0495 10.1323 5.90283 10.3138 5.90283C10.4952 5.90283 10.6419 6.0495 10.6419 6.23096V12.4683C10.6419 12.6497 10.4952 12.7964 10.3138 12.7964Z" fill="#76B82A"/>
<path d="M11.2983 13.7808C11.1168 13.7808 10.9702 13.6341 10.9702 13.4527V5.24561C10.9702 5.06415 11.1168 4.91748 11.2983 4.91748C11.4797 4.91748 11.6264 5.06415 11.6264 5.24561V13.4527C11.6264 13.6341 11.4797 13.7808 11.2983 13.7808Z" fill="#76B82A"/>
<path d="M12.282 9.18921H11.2983C11.1168 9.18921 10.9702 9.04254 10.9702 8.86108C10.9702 8.67963 11.1168 8.53296 11.2983 8.53296H12.282C12.4635 8.53296 12.6101 8.67963 12.6101 8.86108C12.6101 9.04254 12.4635 9.18921 12.282 9.18921Z" fill="#76B82A"/>
<path d="M12.282 10.1736H11.2983C11.1168 10.1736 10.9702 10.0269 10.9702 9.84546C10.9702 9.66401 11.1168 9.51733 11.2983 9.51733H12.282C12.4635 9.51733 12.6101 9.66401 12.6101 9.84546C12.6101 10.0269 12.4635 10.1736 12.282 10.1736Z" fill="#76B82A"/>
<path d="M10.3132 10.1729H9.32812C9.14667 10.1729 9 10.0263 9 9.8448V8.86108C9 8.67963 9.14667 8.53296 9.32812 8.53296H10.3132C10.4946 8.53296 10.6413 8.67963 10.6413 8.86108V9.8448C10.6413 10.0263 10.4946 10.1729 10.3132 10.1729ZM9.65625 9.51668H9.98503V9.18921H9.65625V9.51668Z" fill="#76B82A"/>
<path d="M23.4384 2.62598H15.8902C15.3475 2.62598 14.9058 2.18433 14.9058 1.64161V0.984375C14.9058 0.441656 15.3475 0 15.8902 0H23.4384C23.9811 0 24.4228 0.441656 24.4228 0.984375V1.64161C24.4228 2.18433 23.9811 2.62598 23.4384 2.62598ZM15.8902 0.65625C15.7091 0.65625 15.5621 0.80325 15.5621 0.984375V1.64161C15.5621 1.82273 15.7091 1.96973 15.8902 1.96973H23.4384C23.6195 1.96973 23.7665 1.82273 23.7665 1.64161V0.984375C23.7665 0.80325 23.6195 0.65625 23.4384 0.65625H15.8902Z" fill="#76B82A"/>
<path d="M17.2035 3.60871C17.022 3.60871 16.8754 3.46204 16.8754 3.28059V2.29785C16.8754 2.1164 17.022 1.96973 17.2035 1.96973C17.3849 1.96973 17.5316 2.1164 17.5316 2.29785V3.28059C17.5316 3.46204 17.3849 3.60871 17.2035 3.60871Z" fill="#76B82A"/>
<path d="M22.1242 3.60871C21.9428 3.60871 21.7961 3.46204 21.7961 3.28059V2.29785C21.7961 2.1164 21.9428 1.96973 22.1242 1.96973C22.3057 1.96973 22.4523 2.1164 22.4523 2.29785V3.28059C22.4523 3.46204 22.3057 3.60871 22.1242 3.60871Z" fill="#76B82A"/>
<path d="M29.6716 14.4385H27.7029C27.5214 14.4385 27.3748 14.2918 27.3748 14.1104V6.23535C27.3748 6.0539 27.5214 5.90723 27.7029 5.90723H29.6716C29.8531 5.90723 29.9998 6.0539 29.9998 6.23535V14.1104C29.9998 14.2918 29.8531 14.4385 29.6716 14.4385ZM28.031 13.7822H29.3435V6.56348H28.031V13.7822Z" fill="#76B82A"/>
<path d="M27.7034 13.4541H26.7184C26.5369 13.4541 26.3903 13.3074 26.3903 13.126C26.3903 12.9445 26.5369 12.7979 26.7184 12.7979H27.7034C27.8849 12.7979 28.0315 12.9445 28.0315 13.126C28.0315 13.3074 27.8849 13.4541 27.7034 13.4541Z" fill="#76B82A"/>
<path d="M27.7034 7.54785H26.7184C26.5369 7.54785 26.3903 7.40118 26.3903 7.21973C26.3903 7.03827 26.5369 6.8916 26.7184 6.8916H27.7034C27.8849 6.8916 28.0315 7.03827 28.0315 7.21973C28.0315 7.40118 27.8849 7.54785 27.7034 7.54785Z" fill="#76B82A"/>
</svg>
