<svg width="54" height="27" viewBox="0 0 54 27" fill="none" xmlns="http://www.w3.org/2000/svg">
<path fill-rule="evenodd" clip-rule="evenodd" d="M26.014 10.3465C25.7458 10.1354 25.4503 9.95918 25.1349 9.82251C24.8984 9.73091 24.6461 9.68405 24.3915 9.68444C23.5641 9.68444 22.8757 10.1175 22.3198 10.9835C21.7749 11.8232 21.4879 12.7963 21.4923 13.7887C21.4736 14.1607 21.5877 14.5276 21.8155 14.8273C21.9063 14.9499 22.0257 15.05 22.1638 15.1192C22.302 15.1885 22.4551 15.225 22.6106 15.2258C22.9842 15.2182 23.345 15.0926 23.6384 14.8681C24.1962 14.4081 24.6496 13.8407 24.9701 13.2019C25.4442 12.2988 25.793 11.3386 26.0076 10.3465H26.014ZM26.7897 8.81841L27.3877 8.01826H29.5694L28.1278 14.1998C28.0594 14.4657 28.0119 14.7364 27.9856 15.0093C27.9837 15.0612 27.9941 15.1127 28.0159 15.1601C28.0378 15.2074 28.0705 15.2492 28.1117 15.2823C28.1555 15.3201 28.2067 15.349 28.2622 15.3674C28.3177 15.3857 28.3764 15.393 28.4349 15.389C28.6201 15.3741 28.7998 15.3206 28.9617 15.2321C29.2163 15.1019 29.4512 14.9382 29.6599 14.7457L30.7491 15.9601C30.2607 16.4302 29.692 16.8145 29.0684 17.096C28.5411 17.3228 27.9709 17.4404 27.3941 17.4411C27.0202 17.4459 26.6494 17.3754 26.3049 17.234C25.9914 17.1031 25.7111 16.9071 25.484 16.6598C25.2603 16.4214 25.0995 16.1339 25.0153 15.822C24.7269 16.1625 24.3882 16.4596 24.0101 16.7037C23.6648 16.943 23.2861 17.1332 22.8854 17.2686C22.4933 17.388 22.0842 17.4463 21.6733 17.4411C21.0505 17.4618 20.4348 17.3073 19.9003 16.9961C19.3659 16.6849 18.9355 16.2303 18.661 15.6871C18.3541 15.066 18.2035 14.3832 18.2214 13.6946C18.2134 12.9262 18.3646 12.1641 18.6661 11.4536C18.9676 10.7432 19.4132 10.0988 19.9765 9.55893C20.4853 9.01302 21.1055 8.57575 21.7977 8.27488C22.4898 7.974 23.2389 7.8161 23.9972 7.81118C24.4942 7.80394 24.9887 7.88147 25.4581 8.04023C25.9522 8.2292 26.41 8.49757 26.8124 8.8341L26.7897 8.81841ZM5.18315 7.79548L4.74681 9.67817C5.08551 9.25699 5.47385 8.87576 5.9039 8.54228C6.22374 8.30841 6.5778 8.12226 6.95434 7.99003C7.30479 7.86697 7.67414 7.80226 8.04679 7.79862C8.42902 7.79684 8.80752 7.87161 9.15863 8.01826C9.4725 8.14303 9.75397 8.33378 9.98281 8.5768C10.2095 8.84716 10.3708 9.1635 10.4547 9.50245C10.7268 9.14267 11.0537 8.82525 11.4243 8.56111C11.7659 8.31462 12.1441 8.11995 12.5459 7.98375C12.9233 7.85729 13.3198 7.7926 13.7191 7.79234C14.3768 7.76476 15.0191 7.99028 15.5065 8.4199C15.7311 8.6178 15.9092 8.86039 16.0286 9.13113C16.1479 9.40188 16.2058 9.69441 16.1981 9.98881C16.1981 10.1959 16.1982 10.3873 16.1691 10.5725C16.1691 10.6634 16.1109 10.8674 16.0365 11.2L15.3481 14.2562C15.2888 14.474 15.251 14.6968 15.235 14.9215C15.2299 14.9824 15.238 15.0437 15.2585 15.1015C15.2791 15.1593 15.3118 15.2123 15.3546 15.2572C15.3978 15.2964 15.4487 15.3269 15.5042 15.3468C15.5596 15.3667 15.6187 15.3757 15.6778 15.3733C15.8224 15.3657 15.9631 15.3248 16.0883 15.2541C16.3798 15.1107 16.6532 14.9349 16.9027 14.7301L17.9629 15.9193C16.8575 16.9234 15.7198 17.4254 14.5595 17.4254C13.9349 17.4513 13.3243 17.241 12.8562 16.8387C12.6514 16.6674 12.4875 16.4549 12.3759 16.2159C12.2643 15.977 12.2076 15.7173 12.2097 15.4549C12.2162 15.1082 12.2606 14.7632 12.3423 14.4257L13.0533 11.3224C13.1167 11.0934 13.1578 10.8591 13.1761 10.6227C13.179 10.5423 13.1651 10.4621 13.1351 10.3872C13.105 10.3122 13.0596 10.2439 13.0016 10.1865C12.9455 10.1314 12.8785 10.088 12.8046 10.0589C12.7307 10.0298 12.6515 10.0155 12.5717 10.0171C12.265 10.0307 11.9726 10.1472 11.7443 10.3465C11.2018 10.818 10.7763 11.4027 10.5 12.0566C10.0228 13.1787 9.65492 14.3416 9.40104 15.5302L8.99379 17.2058H6.00733L7.33896 11.5107C7.41267 11.2185 7.46559 10.9218 7.49733 10.6227C7.50528 10.5383 7.49402 10.4533 7.46434 10.3737C7.43467 10.294 7.3873 10.2217 7.32562 10.1618C7.26393 10.1019 7.18942 10.0559 7.10738 10.0271C7.02535 9.99831 6.93779 9.98738 6.85091 9.99509C6.72852 9.99612 6.60721 10.0173 6.49215 10.0578C6.29957 10.1347 6.12069 10.2406 5.96208 10.3716C5.7245 10.5804 5.51395 10.8164 5.33505 11.0745C5.0549 11.4729 4.80846 11.8926 4.59814 12.3296C4.37891 12.7564 4.20039 13.2017 4.06484 13.6601L3.48629 15.7969L3.16308 17.2058H0.157227L1.74095 10.3559H0.273582L0.700217 8.57994C1.94492 8.5044 3.16971 8.23969 4.32987 7.79548H5.18315ZM36.0336 0.707153H34.9961C34.188 0.707153 33.2938 0.737488 32.3134 0.798153C31.0572 0.863001 30.2944 0.895424 30.0251 0.895424C29.3334 0.895424 28.5803 0.864047 27.7788 0.798153C27.1485 0.747948 26.7316 0.716567 26.5247 0.707153H26.2468C26.1068 0.704655 25.969 0.740543 25.8492 0.810697C25.7964 0.86376 25.7568 0.927779 25.7333 0.997905C25.7098 1.06803 25.703 1.14243 25.7135 1.21548C25.711 1.27424 25.7219 1.3328 25.7454 1.38702C25.7689 1.44124 25.8043 1.4898 25.8492 1.52926C26.0561 1.70498 26.9287 1.88697 27.2131 1.92149C29.5887 2.20075 31.612 1.99052 33.7614 1.92149C35.9721 1.85559 37.7013 2.43923 38.9328 3.4904C40.1642 4.54156 40.7944 5.96613 40.7944 7.80489C40.7944 9.58299 40.273 10.8747 39.2301 11.6801C38.1872 12.4855 36.4947 12.885 34.1525 12.8787H33.784C33.3865 12.8787 33.0503 12.8787 32.7788 12.8442C32.391 13.2333 32.391 13.6517 32.7788 14.0994C33.0236 14.0739 33.2696 14.0613 33.5157 14.0617C34.6858 14.0617 35.4873 14.1684 35.9301 14.3755C36.4427 14.6456 36.8679 15.0486 37.1583 15.5396L41.0369 21.5015C42.2629 23.3716 43.3198 24.611 44.2075 25.2198C45.1265 25.8387 46.2246 26.1574 47.3427 26.1297H47.3815C47.9241 26.1538 48.4676 26.1073 48.9975 25.9917C49.1142 25.9664 49.2187 25.9037 49.2943 25.8138C49.37 25.7239 49.4123 25.612 49.4145 25.4959C49.4145 25.3045 49.1979 25.1821 48.768 25.088C48.4114 25.029 48.0645 24.9235 47.737 24.7742C46.8029 24.3067 45.4551 22.7692 43.6969 20.1365C43.4836 19.851 43.3284 19.6188 43.2217 19.4493L38.9424 13.1329C40.3094 12.5782 41.4981 11.6778 42.3846 10.5254C43.1866 9.45461 43.6137 8.16234 43.6031 6.83845C43.6031 4.91602 42.9029 3.41404 41.5023 2.33254C40.1685 1.30124 38.3456 0.75945 36.0336 0.707153ZM49.1914 4.87732H51.1307L50.3938 8.01513H53.1637L52.7112 9.80682H49.9316L48.9943 13.8515C48.9235 14.124 48.8791 14.4024 48.8618 14.683C48.8551 14.7742 48.8678 14.8658 48.8989 14.9522C48.93 15.0385 48.979 15.1177 49.0428 15.185C49.1066 15.2442 49.1823 15.2901 49.2652 15.3197C49.348 15.3494 49.4362 15.3623 49.5243 15.3576C49.8482 15.3322 50.1593 15.2239 50.4261 15.0438C50.8922 14.7402 51.3103 14.3724 51.6672 13.9519L52.9213 15.0093C52.3082 15.7703 51.5687 16.4268 50.7332 16.9516C50.1304 17.2808 49.45 17.4527 48.7583 17.4505C47.9897 17.4826 47.2384 17.2226 46.6639 16.7257C46.4113 16.5222 46.2073 16.2678 46.0661 15.98C45.9249 15.6923 45.8498 15.3782 45.8462 15.0595C45.8623 14.6121 45.9251 14.1674 46.0337 13.7322L46.9451 9.80682H45.4745L45.8656 8.2693C46.3691 8.14317 46.8452 7.93063 47.2716 7.64173C47.693 7.32697 48.0588 6.94753 48.3543 6.51839C48.7102 6.01973 48.989 5.47319 49.1817 4.89614L49.1914 4.87732Z" fill="#E30613"/>
</svg>
