<svg width="22" height="23" viewBox="0 0 22 23" fill="none" xmlns="http://www.w3.org/2000/svg">
    <path d="M17.387 14.1526C16.9366 13.6837 16.3933 13.4329 15.8176 13.4329C15.2464 13.4329 14.6985 13.679 14.2296 14.148L12.7623 15.6106C12.6416 15.5456 12.5209 15.4852 12.4048 15.4249C12.2376 15.3413 12.0798 15.2624 11.9451 15.1788C10.5707 14.3059 9.32166 13.1683 8.1237 11.6963C7.54329 10.9627 7.15326 10.3452 6.87002 9.71832C7.25077 9.37008 7.60366 9.0079 7.94726 8.65966C8.07727 8.52965 8.20728 8.39499 8.33729 8.26498C9.31237 7.2899 9.31237 6.02694 8.33729 5.05185L7.06968 3.78425C6.92574 3.64031 6.77716 3.49172 6.63786 3.34314C6.35927 3.05526 6.06674 2.75809 5.76493 2.47949C5.31453 2.03374 4.77592 1.79694 4.20944 1.79694C3.64296 1.79694 3.09506 2.03374 2.63074 2.47949C2.62609 2.48414 2.62609 2.48414 2.62145 2.48878L1.04274 4.08142C0.448408 4.67575 0.109451 5.4001 0.0351585 6.24053C-0.0762795 7.59636 0.32304 8.85932 0.629495 9.68582C1.3817 11.7149 2.50537 13.5954 4.18158 15.6106C6.21533 18.039 8.66232 19.9567 11.4576 21.3079C12.5255 21.814 13.951 22.413 15.5436 22.5151C15.6411 22.5198 15.7433 22.5244 15.8361 22.5244C16.9087 22.5244 17.8095 22.139 18.5153 21.3729C18.5199 21.3636 18.5292 21.359 18.5339 21.3497C18.7753 21.0571 19.0539 20.7925 19.3464 20.5092C19.5461 20.3189 19.7504 20.1192 19.9501 19.9103C20.4097 19.432 20.6512 18.8748 20.6512 18.3037C20.6512 17.7279 20.4051 17.1754 19.9361 16.7111L17.387 14.1526ZM19.0493 19.042C19.0446 19.042 19.0446 19.0466 19.0493 19.042C18.8682 19.237 18.6825 19.4134 18.4828 19.6084C18.181 19.8963 17.8745 20.1981 17.5866 20.5371C17.1177 21.0386 16.5651 21.2754 15.8408 21.2754C15.7711 21.2754 15.6968 21.2754 15.6272 21.2707C14.2481 21.1825 12.9666 20.6439 12.0055 20.1842C9.37738 18.912 7.06968 17.1057 5.15202 14.8166C3.56867 12.9082 2.51001 11.1438 1.80888 9.24935C1.37706 8.09318 1.21919 7.19239 1.28884 6.34268C1.33527 5.79942 1.54422 5.34902 1.9296 4.96363L3.51295 3.38028C3.74047 3.16669 3.98192 3.05061 4.21873 3.05061C4.51125 3.05061 4.74806 3.22706 4.89664 3.37564C4.90129 3.38028 4.90593 3.38493 4.91057 3.38957C5.19381 3.65424 5.46312 3.92819 5.74636 4.22071C5.8903 4.3693 6.03888 4.51788 6.18747 4.67111L7.45507 5.93872C7.94726 6.4309 7.94726 6.88594 7.45507 7.37812C7.32042 7.51278 7.19041 7.64743 7.05575 7.77744C6.66572 8.17676 6.29426 8.54822 5.8903 8.9104C5.88101 8.91968 5.87172 8.92433 5.86708 8.93361C5.46776 9.33293 5.54205 9.72296 5.62563 9.98763C5.63028 10.0016 5.63492 10.0155 5.63956 10.0294C5.96923 10.8281 6.43356 11.5803 7.13933 12.4764L7.14398 12.4811C8.42551 14.0598 9.7767 15.2902 11.2672 16.2328C11.4576 16.3535 11.6526 16.451 11.8383 16.5439C12.0055 16.6275 12.1633 16.7064 12.298 16.79C12.3166 16.7993 12.3351 16.8132 12.3537 16.8225C12.5116 16.9014 12.6602 16.9386 12.8134 16.9386C13.1988 16.9386 13.4402 16.6971 13.5192 16.6182L15.1071 15.0302C15.265 14.8723 15.5158 14.682 15.8083 14.682C16.0962 14.682 16.333 14.863 16.4769 15.0209C16.4816 15.0256 16.4816 15.0256 16.4862 15.0302L19.0446 17.5886C19.5229 18.0622 19.5229 18.5498 19.0493 19.042Z" fill="#76B82A"/>
    <path d="M11.8893 5.7576C13.1058 5.9619 14.2109 6.53766 15.0931 7.41988C15.9753 8.3021 16.5464 9.40719 16.7554 10.6237C16.8064 10.9302 17.0711 11.1438 17.3729 11.1438C17.4101 11.1438 17.4426 11.1391 17.4797 11.1345C17.8233 11.0788 18.0508 10.7537 17.9951 10.4101C17.7444 8.93822 17.0479 7.59632 15.9846 6.53302C14.9213 5.46971 13.5794 4.77323 12.1075 4.52249C11.7639 4.46677 11.4435 4.69429 11.3831 5.03325C11.3228 5.37221 11.5457 5.70188 11.8893 5.7576Z" fill="#76B82A"/>
    <path d="M21.9745 10.229C21.5612 7.80524 20.419 5.5997 18.6638 3.84455C16.9087 2.0894 14.7031 0.947159 12.2794 0.53391C11.9404 0.473547 11.62 0.70571 11.5597 1.04467C11.5039 1.38827 11.7315 1.70865 12.0751 1.76901C14.2388 2.13583 16.2122 3.16199 17.7816 4.72676C19.351 6.29618 20.3725 8.26957 20.7394 10.4333C20.7904 10.7398 21.0551 10.9534 21.3569 10.9534C21.3941 10.9534 21.4266 10.9487 21.4637 10.9441C21.8027 10.893 22.0348 10.568 21.9745 10.229Z" fill="#76B82A"/>
</svg>
