<svg width="50" height="50" viewBox="0 0 50 50" fill="none" xmlns="http://www.w3.org/2000/svg">
<path d="M43.9912 10.236C39.7291 9.60169 36.5204 6.27743 36.0069 1.96403C35.8735 0.844321 34.9302 0 33.8128 0H16.1881C15.0707 0 14.1275 0.844321 13.9941 1.96373C13.7807 3.75423 13.0963 5.42578 12.0148 6.79754C11.7644 7.11521 11.8189 7.57574 12.1366 7.82613C12.4542 8.07661 12.9148 8.02203 13.1652 7.70445C14.4137 6.12069 15.2033 4.19553 15.4486 2.13707C15.4943 1.75378 15.8122 1.46472 16.1882 1.46472H33.8129C34.1888 1.46472 34.5067 1.75378 34.5524 2.13717C35.1451 7.11511 38.8516 10.952 43.7757 11.6849C44.3707 11.7734 44.8194 12.3028 44.8194 12.9163V23.0498C44.8194 32.6545 39.548 41.4162 31.0622 45.9155L27.1119 48.0099C25.7922 48.7097 24.2162 48.7098 22.8962 48.0102L18.9422 45.9145C10.4543 41.4158 5.18152 32.6534 5.18152 23.0471V12.9162C5.18152 12.3028 5.63024 11.7734 6.22535 11.6849C7.75305 11.4572 9.17305 10.9385 10.4457 10.1433C10.7887 9.92893 10.893 9.47708 10.6787 9.13402C10.4643 8.79105 10.0124 8.68647 9.66952 8.90101C8.56847 9.58899 7.33705 10.0382 6.00963 10.236C4.70252 10.4307 3.7168 11.5829 3.7168 12.9162V23.0471C3.7168 28.0146 5.07058 32.8902 7.63196 37.1466C10.1932 41.403 13.8671 44.8825 18.2563 47.2089L22.2103 49.3046C23.085 49.7682 24.0444 50 25.0038 50C25.9636 49.9999 26.9233 49.768 27.7981 49.3041L31.7483 47.2097C36.1365 44.8831 39.8095 41.4037 42.3701 37.1477C44.9307 32.8917 46.2842 28.0168 46.2842 23.0499V12.9164C46.2842 11.5828 45.2984 10.4306 43.9912 10.236Z" fill="#76B82A"/>
<path d="M38.2566 36.4582C38.5953 36.6791 39.0491 36.5835 39.27 36.2446C41.9145 32.1874 43.3123 27.4836 43.3123 22.6416V14.2607C43.3123 13.6242 42.8327 13.099 42.1966 13.0386C38.6459 12.7029 33.5838 8.26822 33.2717 4.193C33.2232 3.55981 32.6859 3.06372 32.0487 3.06372H17.7895C17.151 3.06372 16.6137 3.56088 16.5662 4.19554C16.2612 8.27437 11.2903 12.707 7.80271 13.0386C7.16698 13.0991 6.6875 13.6245 6.6875 14.2607V22.5694C6.6875 31.8577 11.7858 40.33 19.9926 44.68L23.5815 46.5822C24.0267 46.8181 24.5151 46.9361 25.0035 46.9361C25.492 46.9361 25.9806 46.818 26.4259 46.5819L30.0718 44.6488C32.7736 43.2162 35.1619 41.3229 37.1702 39.0213C37.4361 38.7165 37.4046 38.2539 37.0999 37.9879C36.7951 37.7221 36.3324 37.7533 36.0664 38.0583C34.1764 40.2244 31.9286 42.0064 29.3855 43.3547L25.7397 45.2878C25.2788 45.5321 24.7284 45.5323 24.2675 45.2879L20.6786 43.3857C12.952 39.2903 8.15222 31.314 8.15222 22.5693V14.4731C10.1159 14.217 12.4219 12.9727 14.3678 11.11C16.4531 9.114 17.7691 6.7283 18.0064 4.52854H31.8322C32.0748 6.72635 33.4208 9.11371 35.5538 11.1149C37.5363 12.9751 39.8713 14.2177 41.8475 14.4734V22.6417C41.8475 27.199 40.5319 31.6262 38.0429 35.4447C37.8221 35.7836 37.9177 36.2373 38.2566 36.4582Z" fill="#76B82A"/>
<path d="M36.9917 18.4693C37.3476 18.277 37.4802 17.8326 37.288 17.4768C36.6978 16.3843 35.9594 15.371 35.0933 14.4649C29.7783 8.90484 20.9274 8.70709 15.363 14.0243C12.6675 16.6 11.1361 20.0705 11.0506 23.7963C10.9652 27.5224 12.3362 31.0578 14.911 33.7514C17.6467 36.6132 21.3182 38.0544 24.9972 38.0542C33.8098 38.0322 40.1198 30.1491 38.7769 21.8562C38.7122 21.4568 38.3357 21.1862 37.9367 21.2504C37.5374 21.3152 37.2662 21.6913 37.3309 22.0906C38.5924 30.0674 32.2889 36.6279 24.9968 36.5903C21.7048 36.59 18.4177 35.3002 15.9698 32.7393C13.6654 30.3287 12.4385 27.1647 12.5151 23.8301C12.5915 20.4953 13.9623 17.3889 16.375 15.0833C21.3554 10.3242 29.2776 10.5007 34.0343 15.4772C34.81 16.2887 35.471 17.1957 35.9991 18.1731C36.1915 18.5289 36.6358 18.6618 36.9917 18.4693Z" fill="#76B82A"/>
<path d="M18.0504 30.7553C17.7717 30.462 17.3081 30.4504 17.015 30.7291C16.7218 31.0078 16.7101 31.4713 16.9888 31.7646C19.0368 33.9214 21.9569 35.1904 24.998 35.1982C29.8865 35.2727 34.6383 31.6622 35.745 26.8078C38.0415 16.9831 27.6576 9.72465 19.3051 14.6428C14.9573 17.2553 12.9418 22.4674 14.4039 27.3178C14.5206 27.7052 14.9293 27.9246 15.3165 27.8077C15.7038 27.691 15.9231 27.2825 15.8063 26.8952C14.538 22.6872 16.287 18.1652 20.0596 15.8985C27.7555 11.4357 36.3112 18.487 34.3238 26.4535C33.7033 28.9424 32.1506 31.0408 29.9518 32.3619C26.126 34.6606 21.1208 33.9851 18.0504 30.7553Z" fill="#76B82A"/>
<path d="M19.5568 18.6527C18.692 19.5174 18.692 20.9247 19.5568 21.7895C20.315 22.5741 21.8116 22.6942 22.6936 21.7895C23.5584 20.9247 23.5584 19.5174 22.6936 18.6526V18.6527C21.9355 17.8679 20.4389 17.7479 19.5568 18.6527ZM21.6578 19.6884C21.9515 19.9821 21.9515 20.4599 21.6578 20.7537C21.4336 20.9678 20.972 21.0951 20.5927 20.7537C20.299 20.4599 20.299 19.9821 20.5927 19.6884C20.8171 19.4744 21.2784 19.3468 21.6578 19.6884Z" fill="#76B82A"/>
<path d="M27.312 26.4068C26.5275 27.1649 26.4073 28.6617 27.312 29.5436C28.0702 30.3282 29.5668 30.4484 30.449 29.5437C31.2335 28.7856 31.3535 27.2889 30.449 26.4068C29.6392 25.5782 28.1742 25.5491 27.312 26.4068ZM29.4131 28.5078C29.1888 28.7221 28.7273 28.8493 28.3478 28.5078C28.1336 28.2836 28.0064 27.822 28.3478 27.4427C28.5829 27.2257 29.0223 27.1016 29.413 27.4427C29.6272 27.6669 29.7545 28.1285 29.4131 28.5078Z" fill="#76B82A"/>
<path d="M29.2153 18.8973L19.8063 28.3064C19.5203 28.5926 19.5203 29.0562 19.8063 29.3422C19.9493 29.4852 20.1368 29.5567 20.3242 29.5567C20.5116 29.5567 20.6991 29.4852 20.842 29.3422L30.2511 19.9331C30.5371 19.647 30.5371 19.1833 30.2511 18.8973C29.9651 18.6114 29.5014 18.6114 29.2153 18.8973Z" fill="#76B82A"/>
</svg>
