<svg width="20" height="20" viewBox="0 0 20 20" fill="none" xmlns="http://www.w3.org/2000/svg">
<path d="M10 0C4.48582 0 0 4.48582 0 10C0 15.5142 4.48582 20 10 20C15.5142 20 20 15.5142 20 10C20 4.48582 15.5142 0 10 0ZM10.8333 10C10.8333 10.4608 10.4608 10.8333 10 10.8333H6.66668C6.20586 10.8333 5.83336 10.4608 5.83336 10C5.83336 9.53918 6.20586 9.16668 6.66668 9.16668H9.16668V4.16668C9.16668 3.70586 9.53918 3.33336 10 3.33336C10.4608 3.33336 10.8333 3.70586 10.8333 4.16668V10Z" fill="white"/>
</svg>
