<svg width="25" height="25" viewBox="0 0 25 25" fill="none" xmlns="http://www.w3.org/2000/svg">
<path d="M24.583 10.365C23.1988 9.92752 21.8043 9.03548 20.4497 9.10383C18.5939 9.19498 17.8636 7.75267 16.975 6.89936C16.3461 6.29897 16.394 5.04806 14.9881 5.39211C13.9491 5.64731 12.5444 5.55389 11.9531 6.20441C11.216 7.01556 10.6304 6.92328 9.81813 6.85493C8.49887 6.741 7.2001 6.57695 5.90704 6.25112C4.91132 6.0039 3.85067 5.93782 2.82419 6.32973C2.11671 6.60315 1.49467 6.84012 2.16684 7.76406C2.57356 8.31888 2.52229 8.7894 1.80455 9.1551C1.40923 9.35447 1.07998 9.75094 0.813393 10.1246C-0.330427 11.7207 -0.266629 13.2485 0.983144 13.3544C2.67267 13.4968 4.39752 14.1963 6.10869 12.9602C7.27302 12.1172 8.91128 12.901 9.61306 14.2431C9.89788 14.7888 10.2807 15.2832 10.6885 15.9041C8.95457 15.7389 8.99444 17.0878 8.43393 17.9696C10.128 18.5164 10.9073 17.384 11.7446 16.4441C12.1206 16.0237 12.5626 15.5464 13.0126 16.0078C13.7144 16.7289 14.5814 16.6002 15.4199 16.7494C15.4005 16.9101 15.3322 17.0217 15.2365 17.1094C14.9517 17.3703 14.4413 17.4113 14.4287 17.8898C14.8184 18.2282 15.6432 18.1428 15.6728 18.8445C15.6762 18.9448 15.6648 19.061 15.6318 19.1988C15.5543 19.5247 16.0567 19.7457 16.2253 19.6375C17.392 18.8992 18.7887 18.6976 19.9325 17.7793C19.7047 17.7622 19.4723 17.7076 19.2512 17.7395C18.6178 17.8283 18.0402 17.7657 17.8385 17.0684C17.6392 16.3792 18.48 16.116 18.7032 16.0738C20.6537 15.6945 22.1769 14.4151 23.9689 13.7361C25.3269 13.2189 24.1375 11.8871 24.8951 11.1796C25.0603 11.0235 25.0786 10.5222 24.583 10.365Z" fill="white"/>
</svg>
