<svg width="43" height="43" viewBox="0 0 43 43" fill="none" xmlns="http://www.w3.org/2000/svg">
<g clip-path="url(#clip0)">
<path d="M17.5003 26.8162L15.9201 26.2909C15.4003 26.1177 15.0498 25.6312 15.0501 25.0833C15.0501 24.2917 15.6917 23.65 16.4834 23.65C17.275 23.65 17.9167 24.2917 17.9167 25.0833H19.35C19.3451 23.7801 18.4619 22.6442 17.2 22.3184V20.7833H15.7667V22.3184C14.5049 22.6442 13.6217 23.7801 13.6167 25.0833C13.6158 26.2482 14.3612 27.2826 15.4664 27.6504L17.0467 28.1757C17.5664 28.3489 17.917 28.8354 17.9167 29.3833C17.9167 30.1749 17.275 30.8166 16.4834 30.8166C15.6917 30.8166 15.0501 30.1749 15.0501 29.3833H13.6167C13.6217 30.6865 14.5049 31.8224 15.7667 32.1482V33.6833H17.2V32.1482C18.4619 31.8224 19.3451 30.6865 19.35 29.3833C19.3509 28.2184 18.6056 27.184 17.5003 26.8162Z" fill="#76B82A"/>
<path d="M42.2841 15.7666H27.7961C26.2816 13.9002 24.3777 12.3872 22.2176 11.3333V8.24163L24.7976 6.30664C24.978 6.17128 25.0842 5.95888 25.0842 5.73331V0.716664C25.0842 0.320886 24.7633 0 24.3676 0H21.5009C21.3108 0 21.1286 0.075608 20.9942 0.209982L20.0676 1.13663L19.1409 0.209982C19.0066 0.075608 18.8243 0 18.6343 0H14.3343C14.1442 0 13.962 0.075608 13.8276 0.209982L12.9009 1.13663L11.9743 0.209982C11.8399 0.075608 11.6577 0 11.4676 0H8.60096C8.20518 0 7.8843 0.320886 7.8843 0.716664V5.73331C7.8843 5.95888 7.99054 6.17128 8.17096 6.30664L10.751 8.24163V11.3405C5.32581 13.9656 0.000999451 21.0169 0.000999451 30.0605C0.000999451 38.2835 6.00879 42.9998 16.4843 42.9998C18.1846 43.0059 19.882 42.8552 21.5547 42.5498C21.6633 42.8208 21.9255 42.9988 22.2176 42.9998H42.2841C42.6799 42.9998 43.0008 42.6789 43.0008 42.2832V16.4833C43.0008 16.0875 42.6799 15.7666 42.2841 15.7666ZM9.31763 5.37498V1.43333H11.1709L12.3943 2.65667C12.6741 2.93644 13.1278 2.93644 13.4076 2.65667L14.631 1.43333H18.3376L19.5609 2.65667C19.8408 2.93644 20.2944 2.93644 20.5743 2.65667L21.7976 1.43333H23.6509V5.37498L21.2623 7.16664H11.7063L9.31763 5.37498ZM20.7842 8.59996V10.75H12.1843V8.59996H20.7842ZM21.5009 33.3055C18.1475 36.0822 13.178 35.6148 10.4012 32.2613C7.62451 28.9079 8.09195 23.9384 11.4454 21.1616C14.3621 18.7465 18.5841 18.7465 21.5008 21.1616V33.3055H21.5009ZM21.5009 16.4833V19.3908C17.1698 16.6128 11.4068 17.8718 8.62882 22.2029C5.85085 26.5339 7.10985 32.297 11.4409 35.075C14.5061 37.041 18.4358 37.041 21.501 35.075V41.1021C19.8477 41.4183 18.1676 41.5738 16.4843 41.5665C11.9593 41.5665 1.43442 40.4456 1.43442 30.0605C1.43442 23.2041 5.54376 14.673 12.4237 12.1833H20.55C22.5772 12.9528 24.4 14.1789 25.8769 15.7666H22.2177C21.8218 15.7666 21.5009 16.0875 21.5009 16.4833ZM41.5675 41.5665H22.9342V22.9332H41.5675V41.5665ZM41.5675 21.4999H22.9342V17.1999H41.5675V21.4999Z" fill="#76B82A"/>
<path d="M27.9498 24.3666H25.0832C24.6874 24.3666 24.3665 24.6875 24.3665 25.0832V27.9499C24.3665 28.3457 24.6874 28.6666 25.0832 28.6666H27.9498C28.3456 28.6666 28.6665 28.3457 28.6665 27.9499V25.0832C28.6665 24.6875 28.3456 24.3666 27.9498 24.3666ZM27.2332 27.2332H25.7998V25.7999H27.2332V27.2332Z" fill="#76B82A"/>
<path d="M33.6833 24.3666H30.8167C30.4209 24.3666 30.1 24.6875 30.1 25.0832V27.9499C30.1 28.3457 30.4209 28.6666 30.8167 28.6666H33.6833C34.0791 28.6666 34.4 28.3457 34.4 27.9499V25.0832C34.4 24.6875 34.0791 24.3666 33.6833 24.3666ZM32.9667 27.2332H31.5334V25.7999H32.9667V27.2332Z" fill="#76B82A"/>
<path d="M39.4167 24.3666H36.55C36.1542 24.3666 35.8334 24.6875 35.8334 25.0832V27.9499C35.8334 28.3457 36.1542 28.6666 36.55 28.6666H39.4167C39.8125 28.6666 40.1333 28.3457 40.1333 27.9499V25.0832C40.1333 24.6875 39.8125 24.3666 39.4167 24.3666ZM38.7 27.2332H37.2667V25.7999H38.7V27.2332Z" fill="#76B82A"/>
<path d="M27.9498 30.0999H25.0832C24.6874 30.0999 24.3665 30.4207 24.3665 30.8165V33.6832C24.3665 34.0789 24.6874 34.3998 25.0832 34.3998H27.9498C28.3456 34.3998 28.6665 34.0789 28.6665 33.6832V30.8165C28.6665 30.4207 28.3456 30.0999 27.9498 30.0999ZM27.2332 32.9665H25.7998V31.5332H27.2332V32.9665Z" fill="#76B82A"/>
<path d="M33.6833 30.0999H30.8167C30.4209 30.0999 30.1 30.4207 30.1 30.8165V33.6832C30.1 34.0789 30.4209 34.3998 30.8167 34.3998H33.6833C34.0791 34.3998 34.4 34.0789 34.4 33.6832V30.8165C34.4 30.4207 34.0791 30.0999 33.6833 30.0999ZM32.9667 32.9665H31.5334V31.5332H32.9667V32.9665Z" fill="#76B82A"/>
<path d="M27.9498 35.8331H25.0832C24.6874 35.8331 24.3665 36.154 24.3665 36.5498V39.4165C24.3665 39.8122 24.6874 40.1331 25.0832 40.1331H27.9498C28.3456 40.1331 28.6665 39.8122 28.6665 39.4165V36.5498C28.6665 36.154 28.3456 35.8331 27.9498 35.8331ZM27.2332 38.6998H25.7998V37.2665H27.2332V38.6998Z" fill="#76B82A"/>
<path d="M33.6833 35.8331H30.8167C30.4209 35.8331 30.1 36.154 30.1 36.5498V39.4165C30.1 39.8122 30.4209 40.1331 30.8167 40.1331H33.6833C34.0791 40.1331 34.4 39.8122 34.4 39.4165V36.5498C34.4 36.154 34.0791 35.8331 33.6833 35.8331ZM32.9667 38.6998H31.5334V37.2665H32.9667V38.6998Z" fill="#76B82A"/>
<path d="M39.4167 30.0999H36.55C36.1542 30.0999 35.8334 30.4207 35.8334 30.8165V39.4165C35.8334 39.8122 36.1542 40.1331 36.55 40.1331H39.4167C39.8125 40.1331 40.1333 39.8122 40.1333 39.4165V30.8165C40.1333 30.4207 39.8125 30.0999 39.4167 30.0999ZM38.7 38.6998H37.2667V31.5332H38.7V38.6998Z" fill="#76B82A"/>
<path d="M40.1332 18.6332H38.6998V20.0665H40.1332V18.6332Z" fill="#76B82A"/>
<path d="M37.2667 18.6332H35.8334V20.0665H37.2667V18.6332Z" fill="#76B82A"/>
<path d="M34.3998 18.6332H32.9665V20.0665H34.3998V18.6332Z" fill="#76B82A"/>
</g>
<defs>
<clipPath id="clip0">
<rect width="43" height="43" fill="white"/>
</clipPath>
</defs>
</svg>
