<svg width="70" height="70" viewBox="0 0 70 70" fill="none" xmlns="http://www.w3.org/2000/svg">
<g clip-path="url(#clip0)">
<path d="M69.9082 35.7901L67.7207 32.5089C67.6395 32.3877 67.5145 32.3039 67.3714 32.2756L51.2664 29.1097C50.0957 28.2702 40.1088 21.3279 30.0783 21.3279C20.5817 21.3279 14.7701 23.1148 13.6689 23.4849L10.5638 22.4499C10.2748 22.3549 9.96729 22.5093 9.87224 22.7955C9.77652 23.0823 9.93146 23.392 10.2177 23.487L13.4989 24.5809C13.6159 24.6199 13.743 24.6177 13.8584 24.5767C13.9182 24.5548 19.9215 22.4217 30.0781 22.4217C40.1642 22.4217 50.6156 29.9878 50.7193 30.0642C50.7845 30.1117 50.8593 30.1443 50.9373 30.1598L66.9366 33.3053L68.9061 36.2593V42.1092C68.9061 42.1135 68.8985 42.5364 68.2513 42.6667C67.4162 42.8335 63.6425 43.092 61.7637 43.2042C61.4624 43.2224 61.2328 43.4808 61.251 43.782C61.2681 44.0725 61.5093 44.297 61.7968 44.297C61.8075 44.297 61.8181 44.297 61.8302 44.2956C62.0543 44.2818 67.349 43.9634 68.4674 43.739C69.6797 43.4956 70.0001 42.5662 70.0001 42.1091V36.0936C70.0001 35.9857 69.9681 35.8798 69.9082 35.7901Z" fill="#76B82A"/>
<path d="M10.8985 24.9535C10.7864 24.6721 10.4659 24.5359 10.1877 24.6486C4.67783 26.8526 1.3913 30.1012 1.254 30.2385C1.15144 30.3411 1.09373 30.48 1.09373 30.6253V33.7772L0.0577088 35.8493C0.0198289 35.9252 0 36.009 0 36.0939V41.5626C0 41.71 0.0672815 42.4824 1.39664 43.1456C2.54056 43.7159 6.58387 44.2351 7.04157 44.2928C7.06455 44.2949 7.08752 44.297 7.10995 44.297C7.38181 44.297 7.61729 44.0941 7.65203 43.8186C7.68936 43.5184 7.47685 43.2449 7.17723 43.2077C5.98627 43.0582 2.71355 42.5806 1.8847 42.1673C1.1963 41.8235 1.09647 41.5285 1.09373 41.5585V36.2233L2.12989 34.1511C2.16764 34.0752 2.18747 33.9914 2.18747 33.9065V30.8596C2.90103 30.197 5.95427 27.5202 10.5935 25.6644C10.8739 25.5522 11.0106 25.2339 10.8985 24.9535Z" fill="#76B82A"/>
<path d="M48.672 43.2032H20.2345C19.9323 43.2032 19.6877 43.4478 19.6877 43.75C19.6877 44.0523 19.9323 44.297 20.2345 44.297H48.672C48.9743 44.297 49.2189 44.0523 49.2189 43.75C49.2189 43.4478 48.9743 43.2032 48.672 43.2032Z" fill="#76B82A"/>
<path d="M35.5469 32.2657H33.3594C33.0572 32.2657 32.8125 32.5103 32.8125 32.8126C32.8125 33.1148 33.0572 33.3595 33.3594 33.3595H35.5469C35.8492 33.3595 36.0937 33.1148 36.0937 32.8126C36.0937 32.5103 35.8492 32.2657 35.5469 32.2657Z" fill="#76B82A"/>
<path d="M23.5158 32.2657H21.3283C21.0261 32.2657 20.7815 32.5103 20.7815 32.8126C20.7815 33.1148 21.0261 33.3595 21.3283 33.3595H23.5158C23.818 33.3595 24.0627 33.1148 24.0627 32.8126C24.0627 32.5103 23.818 32.2657 23.5158 32.2657Z" fill="#76B82A"/>
<path d="M48.6719 28.9846H22.4221C17.3736 28.9846 15.3382 25.0768 15.2544 24.9108C15.1176 24.6417 14.7914 24.5321 14.52 24.6683C14.2508 24.804 14.1419 25.1314 14.2765 25.401C14.3721 25.5922 16.6814 30.0783 22.4219 30.0783H48.6719C48.9743 30.0783 49.2188 29.8337 49.2188 29.5316C49.2188 29.2292 48.9743 28.9846 48.6719 28.9846Z" fill="#76B82A"/>
<path d="M10.3907 22.422C10.0883 22.422 9.84381 22.6666 9.84381 22.9689V24.0626C9.84381 24.365 10.0883 24.6095 10.3907 24.6095C10.6929 24.6095 10.9377 24.3648 10.9375 24.0626V22.9689C10.9375 22.6666 10.6929 22.422 10.3907 22.422Z" fill="#76B82A"/>
<path d="M3.8282 37.7344H0.546866C0.244647 37.7344 0 37.979 0 38.2812C0 38.5836 0.244647 38.8281 0.546866 38.8281H3.8282C4.13042 38.8281 4.37507 38.5836 4.37507 38.2812C4.37507 37.979 4.13042 37.7344 3.8282 37.7344Z" fill="#76B82A"/>
<path d="M7.6169 31.5158C7.50477 31.2349 7.18436 31.0983 6.90607 31.211L1.43741 33.3985C1.15707 33.5106 1.02032 33.829 1.13245 34.1093C1.21792 34.3235 1.4236 34.4533 1.64035 34.4533C1.70817 34.4533 1.7771 34.4409 1.84328 34.4141L7.31195 32.2267C7.59229 32.1145 7.72904 31.7962 7.6169 31.5158Z" fill="#76B82A"/>
<path d="M7.21643 31.1827L1.74763 30.0889C1.4491 30.0281 1.16288 30.2219 1.10408 30.5178C1.04473 30.8141 1.237 31.102 1.53293 31.1613L7.00173 32.2551C7.03811 32.2626 7.07448 32.2657 7.10963 32.2657C7.3648 32.2657 7.59345 32.0862 7.64528 31.8262C7.70449 31.5298 7.51236 31.2419 7.21643 31.1827Z" fill="#76B82A"/>
<path d="M30.6144 28.3303L29.5207 22.8615C29.4614 22.5651 29.1784 22.3696 28.8772 22.4326C28.5812 22.492 28.389 22.7798 28.4483 23.0762L29.542 28.545C29.5939 28.8051 29.8224 28.9845 30.0777 28.9845C30.113 28.9845 30.1493 28.9813 30.1856 28.9738C30.4814 28.9145 30.6738 28.6266 30.6144 28.3303Z" fill="#76B82A"/>
<path d="M69.5425 35.5543L62.9801 34.4605C62.6851 34.4065 62.4011 34.6117 62.3509 34.9102C62.3007 35.2083 62.5026 35.4897 62.8006 35.5394L69.3629 36.6331C69.3929 36.6384 69.4238 36.6406 69.4537 36.6406C69.7155 36.6406 69.9473 36.4505 69.9921 36.1835C70.0423 35.8853 69.8405 35.6039 69.5425 35.5543Z" fill="#76B82A"/>
<path d="M63.1348 34.5111L60.9474 33.4174C60.6783 33.2838 60.3492 33.3922 60.2137 33.6619C60.0792 33.9321 60.188 34.2606 60.4582 34.3957L62.6457 35.4894C62.7247 35.5284 62.808 35.5471 62.8903 35.5471C63.09 35.5471 63.2834 35.4365 63.3795 35.2449C63.5141 34.9747 63.4052 34.6462 63.1348 34.5111Z" fill="#76B82A"/>
<path d="M65.8086 33.3596H60.703C60.4007 33.3596 60.1562 33.6043 60.1562 33.9065C60.1562 34.2087 60.4007 34.4534 60.703 34.4534H65.8086C66.1108 34.4534 66.3555 34.2087 66.3555 33.9065C66.3555 33.6043 66.1108 33.3596 65.8086 33.3596Z" fill="#76B82A"/>
<path d="M55.2674 42.1094H55.2556C54.9545 42.1094 54.7152 42.354 54.7152 42.6562C54.7152 42.9586 54.9652 43.2032 55.2674 43.2032C55.5687 43.2032 55.8143 42.9586 55.8143 42.6562C55.8143 42.354 55.5687 42.1094 55.2674 42.1094Z" fill="#76B82A"/>
<path d="M55.2342 36.6409C51.9177 36.6409 49.2187 39.3388 49.2187 42.6564C49.2187 45.974 51.9177 48.6721 55.2342 48.6721C58.5507 48.6721 61.2499 45.974 61.2499 42.6564C61.2499 39.3388 58.5507 36.6409 55.2342 36.6409ZM55.2342 47.5782C52.5202 47.5782 50.3124 45.3705 50.3124 42.6563C50.3124 39.9423 52.5201 37.7345 55.2342 37.7345C57.9484 37.7345 60.1561 39.9423 60.1561 42.6563C60.1561 45.3704 57.9484 47.5782 55.2342 47.5782Z" fill="#76B82A"/>
<path d="M55.2344 38.8282C54.9322 38.8282 54.6876 39.0729 54.6876 39.3751V40.4688C54.6876 40.7712 54.9322 41.0157 55.2344 41.0157C55.5368 41.0157 55.7814 40.7712 55.7814 40.4688V39.3751C55.7814 39.0729 55.5368 38.8282 55.2344 38.8282Z" fill="#76B82A"/>
<path d="M55.2344 44.2969C54.9322 44.2969 54.6876 44.5414 54.6876 44.8436V45.9373C54.6876 46.2397 54.9322 46.4843 55.2344 46.4843C55.5368 46.4843 55.7814 46.2397 55.7814 45.9373V44.8436C55.7814 44.5414 55.5368 44.2969 55.2344 44.2969Z" fill="#76B82A"/>
<path d="M53.0466 42.1094H51.9529C51.6507 42.1094 51.406 42.354 51.406 42.6562C51.406 42.9586 51.6507 43.2032 51.9529 43.2032H53.0466C53.349 43.2032 53.5935 42.9586 53.5935 42.6562C53.5935 42.354 53.349 42.1094 53.0466 42.1094Z" fill="#76B82A"/>
<path d="M58.5156 42.1094H57.4218C57.1196 42.1094 56.8751 42.354 56.8751 42.6562C56.8751 42.9586 57.1196 43.2032 57.4218 43.2032H58.5156C58.8179 43.2032 59.0626 42.9586 59.0626 42.6562C59.0626 42.354 58.8179 42.1094 58.5156 42.1094Z" fill="#76B82A"/>
<path d="M54.0743 40.7232L53.3011 39.9499C53.0875 39.7363 52.7414 39.7363 52.5278 39.9499C52.3142 40.1635 52.3142 40.5096 52.5278 40.7232L53.3011 41.4964C53.4079 41.6032 53.5478 41.6567 53.6877 41.6567C53.8277 41.6567 53.9675 41.6032 54.0743 41.4964C54.2879 41.2829 54.2879 40.9368 54.0743 40.7232Z" fill="#76B82A"/>
<path d="M57.941 44.5895L57.1677 43.8162C56.9541 43.6026 56.608 43.6026 56.3944 43.8162C56.1808 44.0298 56.1808 44.3759 56.3944 44.5895L57.1677 45.3629C57.2745 45.4697 57.4144 45.523 57.5543 45.523C57.6942 45.523 57.8342 45.4698 57.941 45.3629C58.1546 45.1492 58.1546 44.8031 57.941 44.5895Z" fill="#76B82A"/>
<path d="M54.0743 43.8162C53.8608 43.6026 53.5147 43.6026 53.3011 43.8162L52.5278 44.5895C52.3142 44.803 52.3142 45.1492 52.5278 45.3629C52.6346 45.4697 52.7746 45.523 52.9143 45.523C53.0542 45.523 53.1943 45.4698 53.3011 45.3629L54.0743 44.5895C54.2879 44.3759 54.2879 44.0298 54.0743 43.8162Z" fill="#76B82A"/>
<path d="M57.9409 39.9499C57.7273 39.7363 57.3812 39.7363 57.1676 39.9499L56.3942 40.7232C56.1806 40.9368 56.1806 41.2828 56.3942 41.4964C56.501 41.6032 56.6411 41.6567 56.781 41.6567C56.9209 41.6567 57.0608 41.6032 57.1676 41.4964L57.9409 40.7232C58.1545 40.5096 58.1545 40.1635 57.9409 39.9499Z" fill="#76B82A"/>
<path d="M13.7048 42.1094H13.6942C13.3919 42.1094 13.1526 42.354 13.1526 42.6562C13.1526 42.9586 13.403 43.2032 13.7048 43.2032C14.007 43.2032 14.2517 42.9586 14.2517 42.6562C14.2517 42.354 14.007 42.1094 13.7048 42.1094Z" fill="#76B82A"/>
<path d="M13.6717 36.6409C10.3552 36.6409 7.65714 39.3388 7.65714 42.6564C7.65714 45.974 10.3552 48.6721 13.6717 48.6721C16.9886 48.6721 19.6872 45.974 19.6872 42.6564C19.6872 39.3388 16.9887 36.6409 13.6717 36.6409ZM13.6717 47.5782C10.9583 47.5782 8.751 45.3705 8.751 42.6563C8.751 39.9423 10.9582 37.7345 13.6717 37.7345C16.3857 37.7345 18.5935 39.9423 18.5935 42.6563C18.5935 45.3704 16.3858 47.5782 13.6717 47.5782Z" fill="#76B82A"/>
<path d="M13.6719 38.8282C13.3697 38.8282 13.125 39.0729 13.125 39.3751V40.4688C13.125 40.7712 13.3697 41.0157 13.6719 41.0157C13.9741 41.0157 14.2188 40.7712 14.2188 40.4688V39.3751C14.2188 39.0729 13.9741 38.8282 13.6719 38.8282Z" fill="#76B82A"/>
<path d="M13.6719 44.2969C13.3697 44.2969 13.125 44.5414 13.125 44.8436V45.9373C13.125 46.2397 13.3697 46.4843 13.6719 46.4843C13.9741 46.4843 14.2188 46.2397 14.2188 45.9373V44.8436C14.2188 44.5414 13.9741 44.2969 13.6719 44.2969Z" fill="#76B82A"/>
<path d="M11.4843 42.1094H10.3917C10.0893 42.1094 9.84479 42.354 9.84479 42.6562C9.84479 42.9586 10.0893 43.2032 10.3917 43.2032H11.4843C11.7864 43.2032 12.0312 42.9586 12.0312 42.6562C12.0312 42.354 11.7865 42.1094 11.4843 42.1094Z" fill="#76B82A"/>
<path d="M16.953 42.1094H15.8593C15.5571 42.1094 15.3124 42.354 15.3124 42.6562C15.3124 42.9586 15.5571 43.2032 15.8593 43.2032H16.953C17.2552 43.2032 17.4999 42.9586 17.4999 42.6562C17.4999 42.354 17.2552 42.1094 16.953 42.1094Z" fill="#76B82A"/>
<path d="M12.5116 40.7232L11.7383 39.9499C11.5247 39.7363 11.1786 39.7363 10.965 39.9499C10.7513 40.1635 10.7513 40.5096 10.965 40.7232L11.7383 41.4964C11.8451 41.6032 11.9851 41.6567 12.125 41.6567C12.2649 41.6567 12.4048 41.6032 12.5116 41.4964C12.7252 41.2829 12.7252 40.9368 12.5116 40.7232Z" fill="#76B82A"/>
<path d="M16.3782 44.5895L15.6049 43.8162C15.3913 43.6026 15.0452 43.6026 14.8316 43.8162C14.618 44.0298 14.618 44.3759 14.8316 44.5895L15.6049 45.3629C15.7117 45.4697 15.8518 45.523 15.9916 45.523C16.1315 45.523 16.2714 45.4698 16.3782 45.3629C16.5918 45.1492 16.5918 44.8031 16.3782 44.5895Z" fill="#76B82A"/>
<path d="M12.5117 43.8162C12.2981 43.6026 11.952 43.6026 11.7384 43.8162L10.9651 44.5895C10.7515 44.803 10.7515 45.1492 10.9651 45.3629C11.0719 45.4697 11.2118 45.523 11.3517 45.523C11.4916 45.523 11.6315 45.4698 11.7384 45.3629L12.5117 44.5895C12.7253 44.3759 12.7253 44.0298 12.5117 43.8162Z" fill="#76B82A"/>
<path d="M16.3784 39.9499C16.1648 39.7363 15.8186 39.7363 15.605 39.9499L14.8317 40.7232C14.6181 40.9368 14.6181 41.2828 14.8317 41.4964C14.9385 41.6032 15.0784 41.6567 15.2183 41.6567C15.3583 41.6567 15.4982 41.6032 15.605 41.4964L16.3784 40.7232C16.592 40.5096 16.592 40.1635 16.3784 39.9499Z" fill="#76B82A"/>
</g>
<defs>
<clipPath id="clip0">
<rect width="70" height="70" fill="white"/>
</clipPath>
</defs>
</svg>
