<svg width="46" height="46" viewBox="0 0 46 46" fill="none" xmlns="http://www.w3.org/2000/svg">
<path d="M38.7451 5.33171H35.6797V2.2666C35.6797 2.184 35.6635 2.1022 35.6319 2.02587C35.6003 1.94955 35.554 1.8802 35.4956 1.82179C35.4372 1.76338 35.3678 1.71706 35.2915 1.68547C35.2152 1.65388 35.1334 1.63765 35.0508 1.6377H14.7155C14.6748 1.63773 14.6343 1.64182 14.5944 1.64991H14.5908C14.5367 1.66147 14.4844 1.68008 14.4352 1.70526C14.4244 1.71065 14.4144 1.7164 14.4036 1.72251C14.3541 1.74971 14.3086 1.78344 14.2681 1.82277L6.81143 9.2816C6.77214 9.32163 6.73853 9.36685 6.71152 9.41601C6.70505 9.42715 6.69894 9.43793 6.69319 9.44943C6.66857 9.49806 6.65021 9.54963 6.63857 9.60288V9.61115C6.63098 9.64926 6.62701 9.68801 6.62671 9.72687V40.0394C6.62671 40.2062 6.69297 40.3662 6.81091 40.4841C6.92885 40.6021 7.08882 40.6683 7.25562 40.6683H10.3214V43.7334C10.3214 43.816 10.3376 43.8979 10.3692 43.9742C10.4008 44.0505 10.4471 44.1198 10.5055 44.1783C10.5639 44.2367 10.6333 44.283 10.7096 44.3146C10.7859 44.3462 10.8677 44.3624 10.9503 44.3624H38.7458C38.8284 44.3624 38.9102 44.3462 38.9866 44.3146C39.0629 44.283 39.1322 44.2367 39.1907 44.1783C39.2491 44.1198 39.2954 44.0505 39.327 43.9742C39.3586 43.8979 39.3748 43.816 39.3748 43.7334V5.96062C39.3748 5.87795 39.3585 5.79609 39.3269 5.71972C39.2953 5.64335 39.2489 5.57397 39.1904 5.51555C39.1319 5.45714 39.0625 5.41083 38.9861 5.37928C38.9097 5.34773 38.8278 5.33157 38.7451 5.33171ZM14.0877 3.7846V9.09796H8.77326L14.0877 3.7846ZM7.8838 10.3558H14.7155C14.7981 10.3558 14.8799 10.3396 14.9562 10.308C15.0326 10.2764 15.1019 10.2301 15.1603 10.1717C15.2187 10.1133 15.2651 10.0439 15.2967 9.9676C15.3282 9.89127 15.3445 9.80947 15.3444 9.72687V8.75188H29.3288C29.4956 8.75188 29.6555 8.68562 29.7735 8.56768C29.8914 8.44974 29.9577 8.28977 29.9577 8.12298C29.9577 7.95618 29.8914 7.79622 29.7735 7.67827C29.6555 7.56033 29.4956 7.49407 29.3288 7.49407H15.3455V2.89551H34.4218V39.4105H7.8838V10.3558ZM38.1162 43.1045H11.5785V40.6683H35.0508C35.1334 40.6684 35.2152 40.6521 35.2915 40.6206C35.3678 40.589 35.4372 40.5426 35.4956 40.4842C35.554 40.4258 35.6003 40.3565 35.6319 40.2802C35.6635 40.2038 35.6797 40.122 35.6797 40.0394V6.58952H38.1162V43.1045Z" fill="#76B82A"/>
<path d="M12.9767 17.4384H29.3282C29.495 17.4384 29.655 17.3721 29.7729 17.2542C29.8909 17.1362 29.9571 16.9762 29.9571 16.8094C29.9571 16.6427 29.8909 16.4827 29.7729 16.3647C29.655 16.2468 29.495 16.1805 29.3282 16.1805H12.9767C12.8099 16.1805 12.6499 16.2468 12.5319 16.3647C12.414 16.4827 12.3477 16.6427 12.3477 16.8094C12.3477 16.9762 12.414 17.1362 12.5319 17.2542C12.6499 17.3721 12.8099 17.4384 12.9767 17.4384Z" fill="#76B82A"/>
<path d="M12.9767 21.7817H29.3282C29.495 21.7817 29.655 21.7155 29.7729 21.5975C29.8909 21.4796 29.9571 21.3196 29.9571 21.1528C29.9571 20.986 29.8909 20.8261 29.7729 20.7081C29.655 20.5902 29.495 20.5239 29.3282 20.5239H12.9767C12.8099 20.5239 12.6499 20.5902 12.5319 20.7081C12.414 20.8261 12.3477 20.986 12.3477 21.1528C12.3477 21.3196 12.414 21.4796 12.5319 21.5975C12.6499 21.7155 12.8099 21.7817 12.9767 21.7817Z" fill="#76B82A"/>
<path d="M12.9767 26.1266H29.3282C29.495 26.1266 29.655 26.0603 29.7729 25.9424C29.8909 25.8244 29.9571 25.6645 29.9571 25.4977C29.9571 25.3309 29.8909 25.1709 29.7729 25.053C29.655 24.935 29.495 24.8688 29.3282 24.8688H12.9767C12.8099 24.8688 12.6499 24.935 12.5319 25.053C12.414 25.1709 12.3477 25.3309 12.3477 25.4977C12.3477 25.6645 12.414 25.8244 12.5319 25.9424C12.6499 26.0603 12.8099 26.1266 12.9767 26.1266Z" fill="#76B82A"/>
<path d="M12.9767 30.4681H29.3282C29.495 30.4681 29.655 30.4019 29.7729 30.2839C29.8909 30.166 29.9571 30.006 29.9571 29.8392C29.9571 29.6724 29.8909 29.5125 29.7729 29.3945C29.655 29.2766 29.495 29.2103 29.3282 29.2103H12.9767C12.8099 29.2103 12.6499 29.2766 12.5319 29.3945C12.414 29.5125 12.3477 29.6724 12.3477 29.8392C12.3477 30.006 12.414 30.166 12.5319 30.2839C12.6499 30.4019 12.8099 30.4681 12.9767 30.4681Z" fill="#76B82A"/>
<path d="M12.9767 34.8116H29.3282C29.495 34.8116 29.655 34.7454 29.7729 34.6274C29.8909 34.5095 29.9571 34.3495 29.9571 34.1827C29.9571 34.0159 29.8909 33.856 29.7729 33.738C29.655 33.6201 29.495 33.5538 29.3282 33.5538H12.9767C12.8099 33.5538 12.6499 33.6201 12.5319 33.738C12.414 33.856 12.3477 34.0159 12.3477 34.1827C12.3477 34.3495 12.414 34.5095 12.5319 34.6274C12.6499 34.7454 12.8099 34.8116 12.9767 34.8116Z" fill="#76B82A"/>
<path d="M12.9767 13.0948H29.3282C29.495 13.0948 29.655 13.0286 29.7729 12.9106C29.8909 12.7927 29.9571 12.6327 29.9571 12.4659C29.9571 12.2991 29.8909 12.1392 29.7729 12.0212C29.655 11.9033 29.495 11.837 29.3282 11.837H12.9767C12.8099 11.837 12.6499 11.9033 12.5319 12.0212C12.414 12.1392 12.3477 12.2991 12.3477 12.4659C12.3477 12.6327 12.414 12.7927 12.5319 12.9106C12.6499 13.0286 12.8099 13.0948 12.9767 13.0948Z" fill="#76B82A"/>
</svg>
