<svg width="45" height="45" viewBox="0 0 45 45" fill="none" xmlns="http://www.w3.org/2000/svg">
<path d="M14.7204 6.45463C15.1792 6.45463 15.5512 6.08265 15.5512 5.6238C15.5512 5.16494 15.1792 4.79297 14.7204 4.79297C14.2615 4.79297 13.8895 5.16494 13.8895 5.6238C13.8895 6.08265 14.2615 6.45463 14.7204 6.45463Z" fill="#76B82A"/>
<path d="M13.0731 30.7258C12.9288 30.7258 12.7878 30.7686 12.6678 30.8488C12.5479 30.9289 12.4544 31.0429 12.3992 31.1762C12.3439 31.3095 12.3295 31.4561 12.3576 31.5976C12.3858 31.7391 12.4553 31.8691 12.5573 31.9711C12.6593 32.0732 12.7893 32.1426 12.9308 32.1708C13.0723 32.1989 13.219 32.1845 13.3523 32.1293C13.4856 32.0741 13.5995 31.9806 13.6797 31.8606C13.7598 31.7406 13.8026 31.5996 13.8026 31.4553C13.8023 31.2619 13.7254 31.0766 13.5886 30.9398C13.4519 30.8031 13.2665 30.7261 13.0731 30.7258Z" fill="#76B82A"/>
<path d="M13.0731 33.6598C12.9288 33.6598 12.7878 33.7026 12.6678 33.7827C12.5479 33.8629 12.4544 33.9768 12.3992 34.1101C12.3439 34.2434 12.3295 34.3901 12.3576 34.5316C12.3858 34.6731 12.4553 34.8031 12.5573 34.9051C12.6593 35.0071 12.7893 35.0766 12.9308 35.1048C13.0723 35.1329 13.219 35.1185 13.3523 35.0632C13.4856 35.008 13.5995 34.9145 13.6797 34.7946C13.7598 34.6746 13.8026 34.5336 13.8026 34.3893C13.8023 34.1959 13.7254 34.0105 13.5886 33.8738C13.4519 33.737 13.2665 33.6601 13.0731 33.6598Z" fill="#76B82A"/>
<path d="M41.408 18.1374H23.1907C23.0508 18.1374 22.9167 18.1929 22.8178 18.2918C22.7189 18.3907 22.6633 18.5249 22.6633 18.6647V25.5192C21.7647 25.0816 20.778 24.8547 19.7784 24.8559H18.2823V22.2919C19.5034 21.6441 20.5251 20.6763 21.238 19.4921C21.9509 18.3079 22.3281 16.952 22.3292 15.5698V11.2221L22.9756 11.0132C23.0479 10.9899 23.1143 10.9512 23.1702 10.8998C23.2262 10.8484 23.2704 10.7855 23.2998 10.7155C23.3292 10.6454 23.3431 10.5699 23.3406 10.4939C23.338 10.418 23.3191 10.3435 23.2852 10.2756L22.3711 8.44745L23.3138 5.61965C23.354 5.49922 23.3493 5.36836 23.3007 5.25108C23.2522 5.1338 23.1629 5.03798 23.0494 4.98122L14.9558 0.934467C14.8825 0.897849 14.8018 0.878784 14.7199 0.878784C14.638 0.878784 14.5573 0.897849 14.4841 0.934467L6.39057 4.98122C6.27702 5.03798 6.18777 5.1338 6.13919 5.25108C6.09061 5.36836 6.08596 5.49922 6.1261 5.61965L7.06873 8.44762L6.15467 10.2757C6.12069 10.3437 6.1018 10.4182 6.09928 10.4941C6.09675 10.57 6.11067 10.6456 6.14006 10.7157C6.16946 10.7857 6.21364 10.8486 6.26959 10.9C6.32554 10.9514 6.39193 10.9901 6.46422 11.0134L7.11066 11.2222V15.57C7.11172 16.9522 7.48891 18.3081 8.2018 19.4922C8.91469 20.6764 9.9364 21.6442 11.1574 22.292V24.8561H9.66151C7.91234 24.8581 6.23537 25.5538 4.99852 26.7906C3.76167 28.0275 3.06595 29.7044 3.064 31.4536V43.5937C3.064 43.7335 3.11955 43.8677 3.21845 43.9666C3.31735 44.0655 3.45148 44.121 3.59134 44.121H41.408C41.5479 44.121 41.682 44.0655 41.7809 43.9666C41.8798 43.8677 41.9354 43.7335 41.9354 43.5937V18.6647C41.9354 18.5249 41.8798 18.3907 41.7809 18.2918C41.682 18.1929 41.5479 18.1374 41.408 18.1374ZM22.5976 26.681L15.2472 34.1191V28.3875L17.1296 30.2933C17.1786 30.3429 17.237 30.3824 17.3015 30.4093C17.3659 30.4362 17.435 30.4501 17.5048 30.4501C17.5169 30.4501 17.529 30.4501 17.5413 30.4488C17.6172 30.4436 17.691 30.422 17.7578 30.3856C17.8245 30.3492 17.8826 30.2988 17.9281 30.2378L21.0448 26.0562C21.5913 26.184 22.1149 26.3947 22.5976 26.681ZM14.7199 26.5052L12.2122 25.1678V22.7539C13.836 23.3208 15.6039 23.3208 17.2277 22.7539V25.168L14.7199 26.5052ZM19.7784 25.9103C19.7979 25.9103 19.8173 25.9112 19.8367 25.9114L17.4486 29.1155L15.5919 27.2356L18.0031 25.9497C18.0248 25.9381 18.0456 25.9251 18.0654 25.9106L19.7784 25.9103ZM14.7199 1.99531L22.1685 5.71967L21.4214 7.96027H8.01821L7.27114 5.71967L14.7199 1.99531ZM7.96399 9.01539H21.4759L22.0674 10.1982L18.5429 11.3367C18.5275 11.3417 18.5124 11.3474 18.4974 11.3538C17.3031 11.863 16.0182 12.1254 14.7199 12.1254C13.4216 12.1254 12.1367 11.863 10.9423 11.3538C10.9274 11.3474 10.9122 11.3417 10.8967 11.3367L7.37231 10.1982L7.96399 9.01539ZM8.16543 15.5698V11.5627L10.5497 12.3329C11.8691 12.8918 13.2873 13.1798 14.7201 13.1798C16.153 13.1798 17.5712 12.8918 18.8905 12.3329L21.2748 11.5627V15.5698C21.2748 17.3082 20.5842 18.9754 19.355 20.2046C18.1258 21.4338 16.4586 22.1244 14.7202 22.1244C12.9819 22.1244 11.3147 21.4338 10.0855 20.2046C8.85626 18.9754 8.16569 17.3082 8.16569 15.5698H8.16543ZM9.66151 25.9106H11.3744C11.3942 25.9251 11.4151 25.9381 11.4367 25.9497L13.819 27.2203L11.7565 29.1363L9.35837 25.9195C9.45883 25.9138 9.55973 25.9106 9.66151 25.9106ZM4.11868 31.4534C4.11868 31.306 4.12624 31.1602 4.13758 31.0156C4.74382 31.0935 5.30073 31.3902 5.7036 31.8498C6.10646 32.3095 6.32751 32.9005 6.32519 33.5117C6.32287 34.123 6.09733 34.7123 5.69099 35.1689C5.28465 35.6255 4.7255 35.9179 4.11868 35.9911V31.4534ZM4.11868 43.0663V37.0509C4.99075 36.9772 5.80514 36.5849 6.40646 35.9491C7.00777 35.3132 7.35392 34.4781 7.37884 33.6033C7.40375 32.7285 7.1057 31.8751 6.54156 31.206C5.97742 30.5369 5.18667 30.099 4.32022 29.9757C4.5775 29.0533 5.06856 28.2129 5.74587 27.5359C6.42318 26.8588 7.26379 26.3681 8.18635 26.1113L11.2621 30.2377C11.3063 30.2971 11.3626 30.3465 11.4272 30.3826C11.4918 30.4188 11.5633 30.441 11.637 30.4477C11.653 30.4492 11.669 30.4499 11.6848 30.4499C11.8179 30.45 11.9462 30.3998 12.0438 30.3093L14.1925 28.313V35.1869L6.40621 43.0663H4.11868ZM14.1925 43.0663H11.9394L14.1925 40.7957V43.0663ZM22.6633 43.0663H15.2472V39.7328L22.6633 32.2594V43.0663ZM22.6633 30.7622L10.4536 43.0663H7.88884L22.6633 28.1149L22.6633 30.7622ZM40.8807 43.0663H23.718V19.1921H40.8807V43.0663Z" fill="#76B82A"/>
<path d="M34.5608 31.0511H34.6886L34.7322 30.9908C35.0371 30.8127 35.3219 30.6018 35.5812 30.3618L35.7789 30.179L35.5819 29.9954C35.4719 29.8929 35.3577 29.7981 35.242 29.7088L34.9962 29.5194L34.8634 29.7998C34.7291 30.0834 34.5705 30.3548 34.3894 30.6109L33.6158 31.0511H34.5607H34.5608ZM35.9299 29.563L36.0016 29.6287H36.0988H36.099H36.2316L36.306 29.5189C36.7405 28.8773 37.0135 28.1403 37.1018 27.3705L37.1337 27.092H36.8534H35.7275H35.492L35.478 27.3271C35.4478 27.8303 35.3649 28.329 35.2305 28.815L35.1828 28.9874L35.3307 29.0882C35.5416 29.2319 35.7418 29.3905 35.9299 29.563ZM36.0988 24.0006H35.6275L35.7684 24.2086C35.6284 24.3269 35.4823 24.4379 35.3307 24.5411L35.1827 24.6419L35.2304 24.8144C35.3648 25.3003 35.4478 25.799 35.478 26.3023L35.492 26.5373H35.7275H36.8534H37.1337L37.1018 26.2588C37.0217 25.5609 36.7898 24.8899 36.4233 24.2925L36.7418 24.0006H36.099H36.0988ZM35.6347 23.5627L35.4415 23.4181L35.5809 23.2675C35.308 23.015 35.0071 22.7946 34.684 22.6107L34.3576 22.9743C34.5518 23.2433 34.721 23.5295 34.8632 23.8294L34.9958 24.1093L35.2414 23.9206C35.2972 23.8776 35.3525 23.8335 35.407 23.7878L35.4856 23.8606L35.6346 23.5629L35.6347 23.5627ZM32.9778 22.3559L32.5772 22.0534V22.5554V24.6348V24.914L32.8547 24.8833C33.3472 24.8288 33.8282 24.698 34.2805 24.4955L34.5067 24.3942L34.4074 24.1672C34.0942 23.4508 33.6019 22.827 32.9778 22.3559ZM32.805 25.4441L32.5772 25.4643L32.5772 25.6931L32.5771 26.2869L32.5771 26.537H32.8271H34.6706H34.9389L34.92 26.2693C34.8948 25.9133 34.8414 25.5599 34.7602 25.2123L34.6925 24.9225L34.4187 25.0392C33.9054 25.258 33.3608 25.3946 32.805 25.4441ZM32.8272 27.0917H32.5772V27.3417V27.9352V28.164L32.8051 28.1842C33.3609 28.2335 33.9055 28.3702 34.4187 28.5891L34.6925 28.7059L34.7603 28.416C34.8414 28.0686 34.8948 27.7152 34.92 27.3593L34.9389 27.0917H34.6706H32.8272ZM32.8546 28.7455L32.5772 28.7149L32.5772 28.994L32.5771 31.074L32.5771 31.576L32.9778 31.2735C33.6019 30.8023 34.0943 30.1784 34.4076 29.4618L34.5068 29.2348L34.2808 29.1335C33.8284 28.9308 33.3473 28.7999 32.8546 28.7455ZM31.6219 31.2735L32.0225 31.5761V31.074V28.9976V28.7174L31.7441 28.7492C31.2528 28.8054 30.773 28.9367 30.3215 29.1385L30.0948 29.2398L30.1945 29.4672C30.5079 30.1815 30.9993 30.8035 31.6219 31.2735ZM31.7957 28.1866L32.0225 28.1655L32.0225 27.9376L32.0224 27.342L32.0224 27.092H31.7724H29.929H29.6607L29.6796 27.3596C29.7049 27.7176 29.7589 28.0731 29.8409 28.4225L29.9089 28.712L30.1825 28.5952C30.6957 28.3761 31.24 28.2382 31.7957 28.1866ZM32.0225 22.5556V22.3056H31.7725H31.7724H31.6886L31.6218 22.3561C30.9992 22.8261 30.5078 23.4482 30.1946 24.1628L30.095 24.39L30.3215 24.4913C30.7729 24.6933 31.2528 24.8246 31.7442 24.8806L32.0225 24.9124V24.6323V22.5556ZM32.0225 25.6919V25.4419H31.7841C31.2324 25.3895 30.692 25.2521 30.1823 25.0344L29.9088 24.9175L29.8408 25.2071C29.7587 25.5564 29.7048 25.9117 29.6795 26.2697L29.6605 26.5373H29.9288H31.7725H32.0225V26.2873V25.6919ZM30.2416 22.9746L30.528 22.5782H30.039H30.0388H29.9727L29.9152 22.6109C29.5927 22.7942 29.2923 23.014 29.0198 23.2657L28.821 23.4494L29.0199 23.633C29.1299 23.7345 29.2439 23.8287 29.3596 23.9173L29.6048 24.1051L29.7374 23.8261C29.8793 23.5275 30.048 23.2425 30.2416 22.9746ZM29.5116 29.6605H29.1162L29.2008 29.8387C29.1397 29.8893 29.0795 29.9416 29.0205 29.9958L28.8205 30.1793L29.0198 30.3636C29.2921 30.6153 29.5924 30.835 29.9147 31.0184L30.2411 30.6548C30.0871 30.4414 29.9488 30.2172 29.8273 29.9839L30.2498 29.6605H29.5119H29.5116ZM28.6699 24.0641L28.4566 23.8701L28.2948 24.1087C27.8594 24.7508 27.5858 25.4886 27.4974 26.2593L27.4655 26.5378H27.7458H28.8716H29.107L29.1211 26.3027C29.1515 25.7978 29.2349 25.2975 29.37 24.81L29.418 24.6371L29.2695 24.5364C29.0587 24.3933 28.8583 24.2355 28.6699 24.0641ZM29.1211 27.3279L29.1071 27.0929L28.8717 27.0928L27.746 27.0924L27.4656 27.0924L27.4975 27.3709C27.5858 28.1417 27.8594 28.8797 28.2948 29.5218L28.4567 29.7605L28.67 29.5664C28.8584 29.395 29.0587 29.2372 29.2695 29.0943L29.418 28.9935L29.37 28.8206C29.2348 28.3331 29.1514 27.8328 29.1211 27.3279ZM35.2942 31.2962C34.4079 31.8884 33.366 32.2045 32.3001 32.2045C30.871 32.2029 29.5009 31.6345 28.4904 30.624C27.4799 29.6135 26.9116 28.2435 26.9099 26.8145C26.9099 25.7486 27.226 24.7065 27.8183 23.8202C28.4105 22.9339 29.2523 22.243 30.2372 21.8351C31.222 21.4271 32.3057 21.3204 33.3513 21.5284C34.3968 21.7363 35.3572 22.2497 36.111 23.0035C36.8648 23.7572 37.3781 24.7176 37.5861 25.7632C37.794 26.8087 37.6873 27.8924 37.2794 28.8773C36.8714 29.8621 36.1806 30.7039 35.2942 31.2962Z" fill="#76B82A" stroke="white" stroke-width="0.5"/>
<path d="M36.6142 35.3959H27.9848C27.8449 35.3959 27.7108 35.4514 27.6119 35.5503C27.513 35.6492 27.4575 35.7834 27.4575 35.9232C27.4575 36.0631 27.513 36.1972 27.6119 36.2961C27.7108 36.395 27.8449 36.4506 27.9848 36.4506H36.6142C36.754 36.4506 36.8882 36.395 36.9871 36.2961C37.086 36.1972 37.1415 36.0631 37.1415 35.9232C37.1415 35.7834 37.086 35.6492 36.9871 35.5503C36.8882 35.4514 36.754 35.3959 36.6142 35.3959Z" fill="#76B82A"/>
<path d="M34.6967 38.4641H29.9027C29.7628 38.4641 29.6287 38.5197 29.5298 38.6186C29.4309 38.7175 29.3754 38.8516 29.3754 38.9915C29.3754 39.1313 29.4309 39.2654 29.5298 39.3643C29.6287 39.4632 29.7628 39.5188 29.9027 39.5188H34.6967C34.8366 39.5188 34.9707 39.4632 35.0696 39.3643C35.1685 39.2654 35.224 39.1313 35.224 38.9915C35.224 38.8516 35.1685 38.7175 35.0696 38.6186C34.9707 38.5197 34.8366 38.4641 34.6967 38.4641Z" fill="#76B82A"/>
</svg>
