<svg width="49" height="49" viewBox="0 0 49 49" fill="none" xmlns="http://www.w3.org/2000/svg">
<path d="M35.4973 32.6978C35.5366 32.6988 35.5758 32.6992 35.6149 32.6991C38.1842 32.6991 40.3059 30.7068 40.3694 28.2065C40.3844 27.6109 40.2809 27.0182 40.065 26.4629C39.8491 25.9076 39.5251 25.4008 39.1118 24.9717C38.6742 24.5128 38.1499 24.1454 37.5693 23.8908C36.9886 23.6361 36.3632 23.4993 35.7293 23.4883C33.1096 23.4275 30.9217 25.4412 30.8571 27.9796C30.8422 28.5752 30.9457 29.1678 31.1616 29.7231C31.3775 30.2784 31.7015 30.7853 32.1147 31.2144C32.5523 31.6733 33.0766 32.0407 33.6572 32.2953C34.2379 32.55 34.8633 32.6868 35.4973 32.6978ZM32.0052 28.009C32.053 26.1313 33.6623 24.6356 35.612 24.6356C35.642 24.6356 35.672 24.6356 35.7022 24.6366C36.1851 24.6444 36.6616 24.748 37.1041 24.9414C37.5466 25.1348 37.9463 25.4142 38.28 25.7633C38.5889 26.0833 38.8312 26.4615 38.9928 26.8758C39.1544 27.2902 39.2321 27.7325 39.2214 28.1772C39.1728 30.0838 37.5157 31.5979 35.5244 31.5496C35.0415 31.5417 34.5649 31.4381 34.1224 31.2447C33.6799 31.0513 33.2802 30.7719 32.9465 30.4227C32.6377 30.1027 32.3954 29.7246 32.2338 29.3103C32.0722 28.8959 31.9945 28.4536 32.0052 28.009Z" fill="#76B82A"/>
<path d="M45.2833 1.078H3.71673C1.93119 1.078 0.478516 2.48742 0.478516 4.21975V32.7636C0.478516 34.4958 1.93119 35.9053 3.71673 35.9053H28.766L25.8812 45.8647C25.8502 45.9717 25.851 46.0855 25.8835 46.192C25.9161 46.2986 25.9789 46.3934 26.0644 46.4649C26.1499 46.5364 26.2543 46.5815 26.365 46.5946C26.4756 46.6078 26.5877 46.5885 26.6876 46.539L30.0622 44.8671L32.4313 47.715C32.4977 47.7948 32.5845 47.8552 32.6825 47.8896C32.7804 47.924 32.8859 47.9312 32.9877 47.9105C33.0894 47.8897 33.1836 47.8417 33.2602 47.7717C33.3369 47.7016 33.3931 47.6121 33.4229 47.5126L36.2994 37.9128L38.5315 46.928C38.5565 47.0288 38.6082 47.1209 38.6813 47.1945C38.7544 47.2682 38.8461 47.3207 38.9467 47.3464C39.0472 47.3721 39.1529 47.37 39.2524 47.3405C39.3519 47.311 39.4415 47.255 39.5117 47.1786L42.0237 44.4445L45.3092 46.2737C45.4105 46.33 45.5265 46.3544 45.6418 46.3435C45.7572 46.3327 45.8666 46.2872 45.9557 46.213C46.0447 46.1389 46.1093 46.0395 46.1408 45.928C46.1723 45.8164 46.1693 45.698 46.1323 45.5882L42.8592 35.9053H45.2828C47.0683 35.9053 48.521 34.4959 48.521 32.7636V4.21975C48.5215 2.48742 47.0688 1.078 45.2833 1.078ZM32.6299 46.1576L30.655 43.7842C30.5724 43.6849 30.4587 43.6164 30.3324 43.5896C30.206 43.5629 30.0743 43.5796 29.9586 43.6369L27.3475 44.9307L30.2771 34.8164C30.3794 35.1922 30.5509 35.5361 30.9021 35.7395C31.4469 36.0553 32.0768 35.816 32.6325 35.6046C32.8774 35.5116 33.287 35.3558 33.4194 35.3926C33.5371 35.4294 33.7927 35.7591 33.9458 35.9561C34.3151 36.432 34.7337 36.9706 35.3762 36.9925L32.6299 46.1576ZM29.0677 29.6288C28.946 29.152 28.5388 28.8124 28.1449 28.4839C27.9553 28.3257 27.6043 28.0331 27.5735 27.903C27.6106 27.7746 27.9763 27.4996 28.1739 27.3509C28.5839 27.0425 29.008 26.7235 29.1539 26.2531C29.3039 25.7697 29.1323 25.2569 28.9665 24.761C28.8922 24.5389 28.7559 24.131 28.7846 23.998C28.8935 23.9153 29.3253 23.8704 29.5603 23.8461C30.0812 23.7919 30.6199 23.736 30.9958 23.3973C31.3691 23.0607 31.4789 22.5324 31.5846 22.0216C31.6339 21.7838 31.725 21.3436 31.8157 21.2574C31.9469 21.2383 32.3421 21.4105 32.5571 21.5037C33.0429 21.7149 33.5456 21.9335 34.0473 21.8191C34.533 21.7083 34.8815 21.3012 35.2186 20.9075C35.3821 20.7161 35.6866 20.3606 35.8059 20.3407C35.9325 20.3666 36.2192 20.7361 36.3733 20.9346C36.691 21.3437 37.0193 21.7672 37.499 21.9002C37.9945 22.0381 38.5066 21.8436 39.0015 21.6553C39.2332 21.5674 39.617 21.4217 39.7491 21.4438C39.8397 21.5465 39.9077 21.9813 39.9447 22.2177C40.0252 22.7327 40.1085 23.2652 40.4649 23.6194C40.8234 23.9757 41.3583 24.0579 41.8757 24.1373C42.1085 24.1731 42.536 24.2387 42.6413 24.3263C42.6628 24.4609 42.5063 24.8599 42.4212 25.0773C42.2303 25.5638 42.033 26.067 42.1582 26.5573C42.28 27.0341 42.6871 27.3738 43.081 27.7022C43.2706 27.8604 43.6216 28.1531 43.6523 28.2831C43.6152 28.4115 43.2496 28.6865 43.052 28.8353C42.6419 29.1437 42.2179 29.4627 42.072 29.9331C41.922 30.4165 42.0935 30.9292 42.2594 31.4251C42.3337 31.6472 42.47 32.0551 42.4413 32.1882C42.3323 32.2709 41.9006 32.3157 41.6656 32.3401C41.1447 32.3942 40.606 32.4502 40.2301 32.7888C39.8568 33.1254 39.7471 33.6537 39.6414 34.1645C39.5921 34.4024 39.501 34.8425 39.4103 34.9288C39.279 34.9479 38.8839 34.7757 38.6689 34.6824C38.183 34.4711 37.6802 34.2528 37.1786 34.3666C36.6949 34.4769 36.3473 34.8811 36.0117 35.2733C36.0062 35.2773 36.0011 35.2815 35.9959 35.2857C35.9906 35.29 35.9839 35.2953 35.978 35.3006C35.9702 35.307 35.9627 35.3138 35.9553 35.321C35.9488 35.3273 35.9425 35.3337 35.9361 35.3401C35.9298 35.3465 35.924 35.353 35.9182 35.3597C35.9125 35.3664 35.9051 35.3752 35.8991 35.3833C35.8941 35.3897 35.8895 35.3961 35.8847 35.4024C35.8785 35.4109 35.8727 35.4197 35.867 35.4286C35.8626 35.4356 35.8584 35.4426 35.8543 35.4498C35.8514 35.4547 35.8483 35.4594 35.8456 35.4644C35.689 35.6406 35.5064 35.8302 35.4203 35.8445C35.2938 35.8186 35.007 35.4491 34.8529 35.2511C34.5352 34.842 34.2068 34.419 33.7272 34.2856C33.6123 34.254 33.4936 34.2383 33.3745 34.2389C32.9911 34.2389 32.6027 34.3865 32.2242 34.5304C31.9925 34.6183 31.6089 34.7641 31.4765 34.7419C31.386 34.6391 31.318 34.2044 31.281 33.968C31.2005 33.4529 31.1171 32.9204 30.7608 32.5662C30.4023 32.21 29.8673 32.1278 29.35 32.0484C29.1172 32.0127 28.6897 31.947 28.5844 31.8594C28.5629 31.7248 28.7195 31.3257 28.8045 31.1084C28.9956 30.6222 29.1929 30.1191 29.0677 29.6288ZM42.1867 43.2209C42.074 43.1581 41.9434 43.1351 41.816 43.1556C41.6886 43.1762 41.5718 43.239 41.4845 43.334L39.3894 45.6142L36.9851 35.9039C37.1425 35.7233 37.3381 35.5115 37.4343 35.4868C37.5683 35.4559 37.971 35.631 38.2115 35.7356C38.757 35.9728 39.3748 36.2416 39.9341 35.9522C40.5054 35.657 40.6439 34.9878 40.7662 34.3973C40.8048 34.1854 40.8582 33.9763 40.926 33.7718L44.5679 44.5467L42.1867 43.2209ZM47.373 32.7636C47.373 33.8627 46.4352 34.7569 45.2833 34.7569H42.4715L42.0313 33.4553C42.5606 33.3924 43.1079 33.2769 43.4083 32.8124C43.7552 32.2756 43.5393 31.6302 43.3487 31.061C43.2664 30.8152 43.1286 30.4035 43.169 30.2737C43.2073 30.156 43.5422 29.904 43.7425 29.7533C44.231 29.3857 44.7848 28.9692 44.8014 28.3126C44.8181 27.656 44.2861 27.212 43.8167 26.8205C43.6247 26.6604 43.3036 26.3925 43.2712 26.2735C43.2376 26.142 43.3956 25.7382 43.4907 25.4969C43.7098 24.938 43.9583 24.3047 43.6387 23.7514C43.3192 23.1982 42.6446 23.0937 42.05 23.0024C41.7948 22.9632 41.3676 22.8976 41.2748 22.8051C41.1854 22.7163 41.1192 22.2933 41.0797 22.0404C40.9865 21.4448 40.8808 20.7696 40.3242 20.4473C39.7793 20.1314 39.1496 20.3707 38.594 20.5821C38.349 20.6751 37.9393 20.8309 37.8069 20.7942C37.6892 20.7573 37.4337 20.4276 37.2806 20.2306C36.9088 19.7521 36.4872 19.2086 35.8374 19.1933C35.1872 19.1818 34.7405 19.7005 34.346 20.161C34.1833 20.3509 33.9115 20.6687 33.7922 20.6996C33.6573 20.7304 33.2554 20.5553 33.015 20.4508C32.4695 20.2137 31.8516 19.945 31.2923 20.2342C30.7211 20.5295 30.5825 21.1986 30.4603 21.7891C30.4083 22.0399 30.3215 22.4596 30.2274 22.5444C30.1295 22.6325 29.6992 22.6773 29.442 22.704C28.8438 22.7662 28.1656 22.8366 27.8182 23.374C27.4708 23.9113 27.6872 24.5561 27.8777 25.1253C27.96 25.3713 28.0979 25.7829 28.0574 25.9128C28.0191 26.0305 27.6841 26.2826 27.4839 26.4331C26.9954 26.8007 26.4417 27.2172 26.425 27.8739C26.4082 28.5306 26.9403 28.9745 27.4098 29.3658C27.6012 29.5259 27.9229 29.7939 27.9553 29.913C27.9889 30.0445 27.8309 30.4482 27.7358 30.6895C27.5167 31.2484 27.2681 31.8818 27.5878 32.435C27.9074 32.9883 28.5817 33.0927 29.1764 33.184C29.2875 33.201 29.4313 33.2232 29.5659 33.2503C29.5311 33.3008 29.5047 33.3564 29.4877 33.4152L29.099 34.7569H3.71673C2.56484 34.7569 1.62695 33.8627 1.62695 32.7636V4.21975C1.62695 3.12069 2.56484 2.22644 3.71673 2.22644H45.2833C46.4352 2.22644 47.373 3.12069 47.373 4.21975V32.7636Z" fill="#76B82A"/>
<path d="M18.6926 19.0658C18.8956 19.0655 19.0902 18.9848 19.2337 18.8413C19.3772 18.6977 19.458 18.5031 19.4582 18.3001V6.70093C19.458 6.49794 19.3772 6.30333 19.2337 6.1598C19.0902 6.01627 18.8956 5.93553 18.6926 5.9353H6.64289C6.43991 5.93553 6.2453 6.01627 6.10177 6.1598C5.95823 6.30333 5.8775 6.49794 5.87727 6.70093V18.3001C5.8775 18.5031 5.95823 18.6977 6.10177 18.8413C6.2453 18.9848 6.43991 19.0655 6.64289 19.0658H18.6926ZM7.02571 7.08374H18.3098V17.9173H7.02571V7.08374Z" fill="#76B82A"/>
<path d="M22.5396 9.48633H22.5442L40.9645 9.34277C41.1168 9.34219 41.2626 9.28113 41.3699 9.17303C41.4772 9.06493 41.5371 8.91865 41.5365 8.76636C41.5359 8.61406 41.4749 8.46824 41.3668 8.36097C41.2587 8.25369 41.1124 8.19376 40.9601 8.19434H40.9555L22.5352 8.33789C22.3829 8.33848 22.237 8.39954 22.1298 8.50763C22.0225 8.61573 21.9626 8.76202 21.9631 8.91431C21.9637 9.0666 22.0248 9.21243 22.1329 9.3197C22.241 9.42697 22.3873 9.48691 22.5396 9.48633Z" fill="#76B82A"/>
<path d="M40.9798 15.2831H40.9753L22.5549 15.4266C22.4026 15.4272 22.2568 15.4883 22.1495 15.5964C22.0422 15.7045 21.9823 15.8508 21.9829 16.0031C21.9834 16.1554 22.0445 16.3012 22.1526 16.4084C22.2607 16.5157 22.407 16.5757 22.5593 16.5751H22.5638L40.9842 16.4315C41.1365 16.4309 41.2823 16.3699 41.3896 16.2618C41.4969 16.1537 41.5568 16.0074 41.5562 15.8551C41.5556 15.7028 41.4946 15.557 41.3865 15.4497C41.2784 15.3424 41.1321 15.2825 40.9798 15.2831Z" fill="#76B82A"/>
<path d="M7.16951 24.1464H7.1743L24.1477 24.0093C24.2231 24.0087 24.2977 23.9932 24.3671 23.9638C24.4365 23.9343 24.4995 23.8915 24.5524 23.8377C24.6052 23.784 24.647 23.7203 24.6753 23.6504C24.7036 23.5805 24.7178 23.5057 24.7172 23.4303C24.7165 23.3549 24.7011 23.2803 24.6716 23.2109C24.6422 23.1415 24.5994 23.0785 24.5456 23.0257C24.4918 22.9728 24.4282 22.931 24.3583 22.9027C24.2884 22.8745 24.2136 22.8602 24.1382 22.8609L7.16501 22.998C7.01272 22.9986 6.8669 23.0597 6.75964 23.1678C6.65237 23.2759 6.59245 23.4222 6.59304 23.5745C6.59364 23.7268 6.65471 23.8726 6.76282 23.9798C6.87093 24.0871 7.01722 24.147 7.16951 24.1464Z" fill="#76B82A"/>
<path d="M24.1636 29.9492H24.159L7.18543 30.0864C7.03314 30.087 6.88732 30.148 6.78006 30.2561C6.67279 30.3643 6.61286 30.5105 6.61346 30.6628C6.61406 30.8151 6.67513 30.9609 6.78324 31.0682C6.89135 31.1755 7.03764 31.2354 7.18993 31.2348H7.19471L24.1682 31.0977C24.3205 31.0971 24.4663 31.036 24.5736 30.9279C24.6809 30.8197 24.7408 30.6734 24.7402 30.5211C24.7396 30.3689 24.6785 30.223 24.5704 30.1158C24.4622 30.0085 24.3159 29.9486 24.1636 29.9492Z" fill="#76B82A"/>
</svg>
