<svg width="67" height="67" viewBox="0 0 67 67" fill="none" xmlns="http://www.w3.org/2000/svg">
<g clip-path="url(#clip0)">
<path d="M61.2419 31.4062H5.75738C5.46811 31.4062 5.23395 31.6403 5.23395 31.9297C5.23395 32.219 5.46811 32.4531 5.75738 32.4531H61.2419C61.5312 32.4531 61.7653 32.219 61.7653 31.9297C61.7653 31.6402 61.5312 31.4062 61.2419 31.4062Z" fill="#76B82A"/>
<path d="M61.2419 31.4062C60.9526 31.4062 60.7185 31.6403 60.7185 31.9297C60.7185 34.2165 59.514 37.0158 57.722 38.8969C57.5226 39.1064 57.5307 39.4377 57.7403 39.6369C57.8416 39.7331 57.9715 39.7812 58.1013 39.7812C58.2393 39.7812 58.3772 39.727 58.4805 39.6186C60.4761 37.5249 61.7653 34.506 61.7653 31.9297C61.7653 31.6402 61.5312 31.4062 61.2419 31.4062Z" fill="#76B82A"/>
<path d="M10.3155 38.8877L9.26862 37.8408C9.06417 37.6364 8.73288 37.6364 8.52843 37.8408C8.32398 38.0453 8.32398 38.3764 8.52843 38.5809L9.5753 39.6277C9.67752 39.73 9.81156 39.7812 9.94546 39.7812C10.0794 39.7812 10.2133 39.7301 10.3155 39.6277C10.5199 39.4236 10.5199 39.0923 10.3155 38.8877Z" fill="#76B82A"/>
<path d="M12.0392 36.6406H6.8048C6.51554 36.6406 6.28137 36.8748 6.28137 37.1641C6.28137 37.4535 6.51554 37.6875 6.8048 37.6875H12.0392C12.3285 37.6875 12.5627 37.4535 12.5627 37.1641C12.5627 36.8748 12.3285 36.6406 12.0392 36.6406Z" fill="#76B82A"/>
<path d="M6.80424 36.6405C6.51589 36.6405 6.28081 36.4053 6.28081 36.1171C6.28081 35.8278 6.04665 35.5936 5.75738 35.5936C5.46811 35.5936 5.23395 35.8278 5.23395 36.1171C5.23395 36.983 5.93827 37.6874 6.80424 37.6874C7.09364 37.6874 7.32767 37.4533 7.32767 37.1639C7.32767 36.8747 7.09351 36.6405 6.80424 36.6405Z" fill="#76B82A"/>
<path d="M5.75738 31.4061C5.46811 31.4061 5.23395 31.6402 5.23395 31.9296V36.117C5.23395 36.4063 5.46811 36.6404 5.75738 36.6404C6.04678 36.6404 6.28081 36.4063 6.28081 36.117V31.9296C6.28081 31.6402 6.04665 31.4061 5.75738 31.4061Z" fill="#76B82A"/>
<path d="M5.75738 26.1719C5.46811 26.1719 5.23395 26.406 5.23395 26.6953V31.9298C5.23395 32.219 5.46811 32.4532 5.75738 32.4532C6.04678 32.4532 6.28081 32.219 6.28081 31.9298V26.6953C6.28081 26.406 6.04665 26.1719 5.75738 26.1719Z" fill="#76B82A"/>
<path d="M4.71095 26.1719H2.61709C2.32782 26.1719 2.09366 26.406 2.09366 26.6953C2.09366 26.9847 2.32782 27.2187 2.61709 27.2187H4.71082C5.00022 27.2187 5.23425 26.9847 5.23438 26.6953C5.23438 26.406 5.00022 26.1719 4.71095 26.1719Z" fill="#76B82A"/>
<path d="M2.61716 27.2186H0.523431C0.234163 27.2186 0 27.4528 0 27.7421C0 28.0315 0.234163 28.2656 0.523431 28.2656H2.61716C2.90656 28.2656 3.14059 28.0315 3.14059 27.7421C3.14059 27.4528 2.90656 27.2186 2.61716 27.2186Z" fill="#76B82A"/>
<path d="M61.2421 29.3125C60.9529 29.3125 60.7187 29.5465 60.7187 29.8359V31.9297C60.7187 32.2189 60.9529 32.4531 61.2421 32.4531C61.5314 32.4531 61.7656 32.2189 61.7656 31.9297V29.8359C61.7656 29.5465 61.5314 29.3125 61.2421 29.3125Z" fill="#76B82A"/>
<path d="M12.0391 27.7422C11.7498 27.7422 11.5156 27.9764 11.5156 28.2657V30.8829C11.5156 31.1722 11.7498 31.4063 12.0391 31.4063C12.3283 31.4063 12.5625 31.1722 12.5625 30.8829V28.2657C12.5625 27.9764 12.3283 27.7422 12.0391 27.7422Z" fill="#76B82A"/>
<path d="M53.9141 28.2657H12.0391C11.7498 28.2657 11.5156 28.4998 11.5156 28.7892C11.5156 29.0784 11.7498 29.3126 12.0391 29.3126H53.9141C54.2035 29.3126 54.4376 29.0784 54.4376 28.7892C54.4376 28.4996 54.2035 28.2657 53.9141 28.2657Z" fill="#76B82A"/>
<path d="M14.1327 27.7422C13.8434 27.7422 13.6093 27.9764 13.6093 28.2657V28.7892C13.6093 29.0784 13.8434 29.3126 14.1327 29.3126C14.4221 29.3126 14.6561 29.0784 14.6561 28.7892V28.2657C14.6561 27.9764 14.422 27.7422 14.1327 27.7422Z" fill="#76B82A"/>
<path d="M16.2263 27.7422C15.9371 27.7422 15.7029 27.9764 15.7029 28.2657V28.7892C15.7029 29.0784 15.9371 29.3126 16.2263 29.3126C16.5157 29.3126 16.7498 29.0784 16.7498 28.7892V28.2657C16.7498 27.9764 16.5156 27.7422 16.2263 27.7422Z" fill="#76B82A"/>
<path d="M18.3204 27.7422C18.0312 27.7422 17.797 27.9764 17.797 28.2657V28.7892C17.797 29.0784 18.0312 29.3126 18.3204 29.3126C18.6098 29.3126 18.8439 29.0784 18.8439 28.7892V28.2657C18.8439 27.9764 18.6098 27.7422 18.3204 27.7422Z" fill="#76B82A"/>
<path d="M20.4142 27.7422C20.1249 27.7422 19.8908 27.9764 19.8908 28.2657V28.7892C19.8908 29.0784 20.1249 29.3126 20.4142 29.3126C20.7035 29.3126 20.9376 29.0784 20.9376 28.7892V28.2657C20.9376 27.9764 20.7035 27.7422 20.4142 27.7422Z" fill="#76B82A"/>
<path d="M22.5079 27.7422C22.2186 27.7422 21.9844 27.9764 21.9844 28.2657V28.7892C21.9844 29.0784 22.2186 29.3126 22.5079 29.3126C22.7971 29.3126 23.0313 29.0784 23.0313 28.7892V28.2657C23.0313 27.9764 22.7971 27.7422 22.5079 27.7422Z" fill="#76B82A"/>
<path d="M24.6016 27.7422C24.3122 27.7422 24.0782 27.9764 24.0782 28.2657V28.7892C24.0782 29.0784 24.3122 29.3126 24.6016 29.3126C24.8909 29.3126 25.1251 29.0784 25.1251 28.7892V28.2657C25.1251 27.9764 24.8909 27.7422 24.6016 27.7422Z" fill="#76B82A"/>
<path d="M26.6952 27.7422C26.4058 27.7422 26.1718 27.9764 26.1718 28.2657V28.7892C26.1718 29.0784 26.4058 29.3126 26.6952 29.3126C26.9845 29.3126 27.2187 29.0784 27.2187 28.7892V28.2657C27.2187 27.9764 26.9845 27.7422 26.6952 27.7422Z" fill="#76B82A"/>
<path d="M28.7889 27.7422C28.4996 27.7422 28.2655 27.9764 28.2655 28.2657V28.7892C28.2655 29.0784 28.4996 29.3126 28.7889 29.3126C29.0782 29.3126 29.3123 29.0784 29.3123 28.7892V28.2657C29.3123 27.9764 29.0782 27.7422 28.7889 27.7422Z" fill="#76B82A"/>
<path d="M30.883 27.7422C30.5937 27.7422 30.3596 27.9764 30.3596 28.2657V28.7892C30.3596 29.0784 30.5937 29.3126 30.883 29.3126C31.1723 29.3126 31.4064 29.0784 31.4064 28.7892V28.2657C31.4064 27.9764 31.1723 27.7422 30.883 27.7422Z" fill="#76B82A"/>
<path d="M32.9766 27.7422C32.6874 27.7422 32.4532 27.9764 32.4532 28.2657V28.7892C32.4532 29.0784 32.6874 29.3126 32.9766 29.3126C33.266 29.3126 33.5001 29.0784 33.5001 28.7892V28.2657C33.5001 27.9764 33.266 27.7422 32.9766 27.7422Z" fill="#76B82A"/>
<path d="M35.0703 27.7422C34.781 27.7422 34.5469 27.9764 34.5469 28.2657V28.7892C34.5469 29.0784 34.781 29.3126 35.0703 29.3126C35.3597 29.3126 35.5937 29.0784 35.5937 28.7892V28.2657C35.5937 27.9764 35.3597 27.7422 35.0703 27.7422Z" fill="#76B82A"/>
<path d="M37.1641 27.7422C36.8747 27.7422 36.6405 27.9764 36.6405 28.2657V28.7892C36.6405 29.0784 36.8747 29.3126 37.1641 29.3126C37.4533 29.3126 37.6874 29.0784 37.6874 28.7892V28.2657C37.6874 27.9764 37.4533 27.7422 37.1641 27.7422Z" fill="#76B82A"/>
<path d="M39.2575 27.7422C38.9681 27.7422 38.7339 27.9764 38.7339 28.2657V28.7892C38.7339 29.0784 38.9681 29.3126 39.2575 29.3126C39.5468 29.3126 39.7808 29.0784 39.7808 28.7892V28.2657C39.7808 27.9764 39.5468 27.7422 39.2575 27.7422Z" fill="#76B82A"/>
<path d="M41.3518 27.7422C41.0624 27.7422 40.8284 27.9764 40.8284 28.2657V28.7892C40.8284 29.0784 41.0624 29.3126 41.3518 29.3126C41.6411 29.3126 41.8752 29.0784 41.8752 28.7892V28.2657C41.8752 27.9764 41.6411 27.7422 41.3518 27.7422Z" fill="#76B82A"/>
<path d="M43.4454 27.7422C43.156 27.7422 42.922 27.9764 42.922 28.2657V28.7892C42.922 29.0784 43.156 29.3126 43.4454 29.3126C43.7347 29.3126 43.9689 29.0784 43.9689 28.7892V28.2657C43.9689 27.9764 43.7347 27.7422 43.4454 27.7422Z" fill="#76B82A"/>
<path d="M45.5392 27.7422C45.2498 27.7422 45.0158 27.9764 45.0158 28.2657V28.7892C45.0158 29.0784 45.2498 29.3126 45.5392 29.3126C45.8285 29.3126 46.0627 29.0784 46.0627 28.7892V28.2657C46.0627 27.9764 45.8286 27.7422 45.5392 27.7422Z" fill="#76B82A"/>
<path d="M47.6329 27.7422C47.3435 27.7422 47.1094 27.9764 47.1094 28.2657V28.7892C47.1094 29.0784 47.3435 29.3126 47.6329 29.3126C47.9223 29.3126 48.1563 29.0784 48.1563 28.7892V28.2657C48.1563 27.9764 47.9223 27.7422 47.6329 27.7422Z" fill="#76B82A"/>
<path d="M49.7265 27.7422C49.4372 27.7422 49.2031 27.9764 49.2031 28.2657V28.7892C49.2031 29.0784 49.4372 29.3126 49.7265 29.3126C50.0159 29.3126 50.2499 29.0784 50.2499 28.7892V28.2657C50.2499 27.9764 50.0159 27.7422 49.7265 27.7422Z" fill="#76B82A"/>
<path d="M51.8202 27.7422C51.5309 27.7422 51.2968 27.9764 51.2968 28.2657V28.7892C51.2968 29.0784 51.5309 29.3126 51.8202 29.3126C52.1096 29.3126 52.3436 29.0784 52.3436 28.7892V28.2657C52.3436 27.9764 52.1096 27.7422 51.8202 27.7422Z" fill="#76B82A"/>
<path d="M53.9144 27.7422C53.6251 27.7422 53.3911 27.9764 53.3911 28.2657V30.8829C53.3911 31.1722 53.6251 31.4063 53.9144 31.4063C54.2037 31.4063 54.4379 31.1722 54.4379 30.8829V28.2657C54.4379 27.9764 54.2037 27.7422 53.9144 27.7422Z" fill="#76B82A"/>
<path d="M16.2263 29.3125C15.9371 29.3125 15.7029 29.5465 15.7029 29.8359V30.8828C15.7029 31.1721 15.9371 31.4062 16.2263 31.4062C16.5157 31.4062 16.7498 31.1721 16.7498 30.8828V29.8359C16.7498 29.5465 16.5156 29.3125 16.2263 29.3125Z" fill="#76B82A"/>
<path d="M20.4142 29.3125C20.1249 29.3125 19.8908 29.5465 19.8908 29.8359V30.8828C19.8908 31.1721 20.1249 31.4062 20.4142 31.4062C20.7035 31.4062 20.9376 31.1721 20.9376 30.8828V29.8359C20.9376 29.5465 20.7035 29.3125 20.4142 29.3125Z" fill="#76B82A"/>
<path d="M24.6016 29.3125C24.3122 29.3125 24.0782 29.5465 24.0782 29.8359V30.8828C24.0782 31.1721 24.3122 31.4062 24.6016 31.4062C24.8909 31.4062 25.1251 31.1721 25.1251 30.8828V29.8359C25.1251 29.5465 24.8909 29.3125 24.6016 29.3125Z" fill="#76B82A"/>
<path d="M28.7889 29.3125C28.4996 29.3125 28.2655 29.5465 28.2655 29.8359V30.8828C28.2655 31.1721 28.4996 31.4062 28.7889 31.4062C29.0782 31.4062 29.3123 31.1721 29.3123 30.8828V29.8359C29.3123 29.5465 29.0782 29.3125 28.7889 29.3125Z" fill="#76B82A"/>
<path d="M32.9766 29.3125C32.6874 29.3125 32.4532 29.5465 32.4532 29.8359V30.8828C32.4532 31.1721 32.6874 31.4062 32.9766 31.4062C33.266 31.4062 33.5001 31.1721 33.5001 30.8828V29.8359C33.5001 29.5465 33.266 29.3125 32.9766 29.3125Z" fill="#76B82A"/>
<path d="M37.1641 29.3125C36.8747 29.3125 36.6405 29.5465 36.6405 29.8359V30.8828C36.6405 31.1721 36.8747 31.4062 37.1641 31.4062C37.4533 31.4062 37.6874 31.1721 37.6874 30.8828V29.8359C37.6874 29.5465 37.4533 29.3125 37.1641 29.3125Z" fill="#76B82A"/>
<path d="M41.3518 29.3125C41.0624 29.3125 40.8284 29.5465 40.8284 29.8359V30.8828C40.8284 31.1721 41.0624 31.4062 41.3518 31.4062C41.6411 31.4062 41.8752 31.1721 41.8752 30.8828V29.8359C41.8752 29.5465 41.6411 29.3125 41.3518 29.3125Z" fill="#76B82A"/>
<path d="M45.5392 29.3125C45.2498 29.3125 45.0158 29.5465 45.0158 29.8359V30.8828C45.0158 31.1721 45.2498 31.4062 45.5392 31.4062C45.8285 31.4062 46.0627 31.1721 46.0627 30.8828V29.8359C46.0627 29.5465 45.8286 29.3125 45.5392 29.3125Z" fill="#76B82A"/>
<path d="M49.7265 29.3125C49.4372 29.3125 49.2031 29.5465 49.2031 29.8359V30.8828C49.2031 31.1721 49.4372 31.4062 49.7265 31.4062C50.0159 31.4062 50.2499 31.1721 50.2499 30.8828V29.8359C50.2499 29.5465 50.0159 29.3125 49.7265 29.3125Z" fill="#76B82A"/>
<path d="M17.273 24.078C16.9837 24.078 16.7496 24.3122 16.7496 24.6014V27.2186C16.7496 27.508 16.9837 27.742 17.273 27.742C17.5624 27.742 17.7964 27.508 17.7964 27.2186V24.6014C17.7964 24.3122 17.5624 24.078 17.273 24.078Z" fill="#76B82A"/>
<path d="M50.773 24.6014H17.273C16.9837 24.6014 16.7496 24.8356 16.7496 25.1249C16.7496 25.4143 16.9837 25.6483 17.273 25.6483H50.7731C51.0625 25.6483 51.2966 25.4143 51.2964 25.1249C51.2964 24.8356 51.0624 24.6014 50.773 24.6014Z" fill="#76B82A"/>
<path d="M19.3672 24.078C19.078 24.078 18.8438 24.3122 18.8438 24.6014V25.1249C18.8438 25.4143 19.078 25.6483 19.3672 25.6483C19.6566 25.6483 19.8908 25.4143 19.8908 25.1249V24.6014C19.8908 24.3122 19.6566 24.078 19.3672 24.078Z" fill="#76B82A"/>
<path d="M21.461 24.078C21.1718 24.078 20.9376 24.3122 20.9376 24.6014V25.1249C20.9376 25.4143 21.1718 25.6483 21.461 25.6483C21.7503 25.6483 21.9845 25.4143 21.9845 25.1249V24.6014C21.9845 24.3122 21.7503 24.078 21.461 24.078Z" fill="#76B82A"/>
<path d="M23.5547 24.078C23.2654 24.078 23.0312 24.3122 23.0312 24.6014V25.1249C23.0312 25.4143 23.2654 25.6483 23.5547 25.6483C23.8441 25.6483 24.0782 25.4143 24.0782 25.1249V24.6014C24.0782 24.3122 23.8439 24.078 23.5547 24.078Z" fill="#76B82A"/>
<path d="M25.6484 24.078C25.359 24.078 25.125 24.3122 25.125 24.6014V25.1249C25.125 25.4143 25.359 25.6483 25.6484 25.6483C25.9377 25.6483 26.1719 25.4143 26.1719 25.1249V24.6014C26.1719 24.3122 25.9377 24.078 25.6484 24.078Z" fill="#76B82A"/>
<path d="M27.7421 24.078C27.4528 24.078 27.2187 24.3122 27.2187 24.6014V25.1249C27.2187 25.4143 27.4528 25.6483 27.7421 25.6483C28.0314 25.6483 28.2655 25.4143 28.2655 25.1249V24.6014C28.2655 24.3122 28.0314 24.078 27.7421 24.078Z" fill="#76B82A"/>
<path d="M29.8363 24.078C29.5471 24.078 29.3129 24.3122 29.3129 24.6014V25.1249C29.3129 25.4143 29.5471 25.6483 29.8363 25.6483C30.1256 25.6483 30.3598 25.4143 30.3598 25.1249V24.6014C30.3598 24.3122 30.1256 24.078 29.8363 24.078Z" fill="#76B82A"/>
<path d="M31.9298 24.078C31.6405 24.078 31.4064 24.3122 31.4064 24.6014V25.1249C31.4064 25.4143 31.6405 25.6483 31.9298 25.6483C32.2191 25.6483 32.4532 25.4143 32.4532 25.1249V24.6014C32.4532 24.3122 32.2191 24.078 31.9298 24.078Z" fill="#76B82A"/>
<path d="M34.0234 24.078C33.7342 24.078 33.5 24.3122 33.5 24.6014V25.1249C33.5 25.4143 33.7342 25.6483 34.0234 25.6483C34.3128 25.6483 34.5469 25.4143 34.5469 25.1249V24.6014C34.5469 24.3122 34.3128 24.078 34.0234 24.078Z" fill="#76B82A"/>
<path d="M36.1171 24.078C35.8279 24.078 35.5937 24.3122 35.5937 24.6014V25.1249C35.5937 25.4143 35.8279 25.6483 36.1171 25.6483C36.4065 25.6483 36.6406 25.4143 36.6406 25.1249V24.6014C36.6406 24.3122 36.4065 24.078 36.1171 24.078Z" fill="#76B82A"/>
<path d="M38.2109 24.078C37.9215 24.078 37.6873 24.3122 37.6873 24.6014V25.1249C37.6873 25.4143 37.9215 25.6483 38.2109 25.6483C38.5001 25.6483 38.7342 25.4143 38.7342 25.1249V24.6014C38.7342 24.3122 38.5001 24.078 38.2109 24.078Z" fill="#76B82A"/>
<path d="M40.305 24.078C40.0156 24.078 39.7814 24.3122 39.7814 24.6014V25.1249C39.7814 25.4143 40.0156 25.6483 40.305 25.6483C40.5943 25.6483 40.8284 25.4143 40.8284 25.1249V24.6014C40.8284 24.3122 40.5943 24.078 40.305 24.078Z" fill="#76B82A"/>
<path d="M42.3986 24.078C42.1092 24.078 41.8752 24.3122 41.8752 24.6014V25.1249C41.8752 25.4143 42.1092 25.6483 42.3986 25.6483C42.6879 25.6483 42.922 25.4143 42.922 25.1249V24.6014C42.922 24.3122 42.6879 24.078 42.3986 24.078Z" fill="#76B82A"/>
<path d="M44.4923 24.078C44.2029 24.078 43.9689 24.3122 43.9689 24.6014V25.1249C43.9689 25.4143 44.2029 25.6483 44.4923 25.6483C44.7816 25.6483 45.0157 25.4143 45.0157 25.1249V24.6014C45.0157 24.3122 44.7816 24.078 44.4923 24.078Z" fill="#76B82A"/>
<path d="M46.586 24.078C46.2966 24.078 46.0626 24.3122 46.0626 24.6014V25.1249C46.0626 25.4143 46.2966 25.6483 46.586 25.6483C46.8754 25.6483 47.1094 25.4143 47.1094 25.1249V24.6014C47.1094 24.3122 46.8754 24.078 46.586 24.078Z" fill="#76B82A"/>
<path d="M48.6797 24.078C48.3904 24.078 48.1562 24.3122 48.1562 24.6014V25.1249C48.1562 25.4143 48.3904 25.6483 48.6797 25.6483C48.9691 25.6483 49.2031 25.4143 49.2031 25.1249V24.6014C49.2031 24.3122 48.9691 24.078 48.6797 24.078Z" fill="#76B82A"/>
<path d="M21.461 25.6482C21.1718 25.6482 20.9376 25.8824 20.9376 26.1716V27.2185C20.9376 27.5079 21.1718 27.7419 21.461 27.7419C21.7503 27.7419 21.9845 27.5079 21.9845 27.2185V26.1716C21.9845 25.8824 21.7503 25.6482 21.461 25.6482Z" fill="#76B82A"/>
<path d="M25.6484 25.6482C25.359 25.6482 25.125 25.8824 25.125 26.1716V27.2185C25.125 27.5079 25.359 27.7419 25.6484 27.7419C25.9377 27.7419 26.1719 27.5079 26.1719 27.2185V26.1716C26.1719 25.8824 25.9377 25.6482 25.6484 25.6482Z" fill="#76B82A"/>
<path d="M29.8363 25.6482C29.5471 25.6482 29.3129 25.8824 29.3129 26.1716V27.2185C29.3129 27.5079 29.5471 27.7419 29.8363 27.7419C30.1256 27.7419 30.3598 27.5079 30.3598 27.2185V26.1716C30.3598 25.8824 30.1256 25.6482 29.8363 25.6482Z" fill="#76B82A"/>
<path d="M34.0234 25.6482C33.7342 25.6482 33.5 25.8824 33.5 26.1716V27.2185C33.5 27.5079 33.7342 27.7419 34.0234 27.7419C34.3128 27.7419 34.5469 27.5079 34.5469 27.2185V26.1716C34.5469 25.8824 34.3128 25.6482 34.0234 25.6482Z" fill="#76B82A"/>
<path d="M38.2109 25.6482C37.9215 25.6482 37.6873 25.8824 37.6873 26.1716V27.2185C37.6873 27.5079 37.9215 27.7419 38.2109 27.7419C38.5001 27.7419 38.7342 27.5079 38.7342 27.2185V26.1716C38.7342 25.8824 38.5001 25.6482 38.2109 25.6482Z" fill="#76B82A"/>
<path d="M42.3986 25.6482C42.1092 25.6482 41.8752 25.8824 41.8752 26.1716V27.2185C41.8752 27.5079 42.1092 27.7419 42.3986 27.7419C42.6879 27.7419 42.922 27.5079 42.922 27.2185V26.1716C42.922 25.8824 42.6879 25.6482 42.3986 25.6482Z" fill="#76B82A"/>
<path d="M46.586 25.6482C46.2966 25.6482 46.0626 25.8824 46.0626 26.1716V27.2185C46.0626 27.5079 46.2966 27.7419 46.586 27.7419C46.8754 27.7419 47.1094 27.5079 47.1094 27.2185V26.1716C47.1094 25.8824 46.8754 25.6482 46.586 25.6482Z" fill="#76B82A"/>
<path d="M50.7733 24.078C50.484 24.078 50.2499 24.3122 50.2499 24.6014V27.2186C50.2499 27.508 50.484 27.742 50.7733 27.742C51.0627 27.742 51.2967 27.508 51.2967 27.2186V24.6014C51.2967 24.3122 51.0627 24.078 50.7733 24.078Z" fill="#76B82A"/>
<path d="M24.6016 21.9844C24.3122 21.9844 24.0782 22.2185 24.0782 22.5078V23.5547C24.0782 23.8441 24.3122 24.0781 24.6016 24.0781C24.8909 24.0781 25.1251 23.8441 25.1251 23.5547V22.5078C25.1251 22.2185 24.8909 21.9844 24.6016 21.9844Z" fill="#76B82A"/>
<path d="M25.6485 20.9365C24.7825 20.9365 24.0782 21.641 24.0782 22.5079C24.0782 22.7973 24.3122 23.0313 24.6016 23.0313C24.8909 23.0313 25.125 22.7971 25.125 22.5079C25.125 22.2186 25.3601 21.9834 25.6485 21.9834C25.9377 21.9834 26.1719 21.7494 26.1719 21.46C26.1719 21.1707 25.9377 20.9365 25.6485 20.9365Z" fill="#76B82A"/>
<path d="M41.3518 21.9844C41.0624 21.9844 40.8284 22.2185 40.8284 22.5078V23.5547C40.8284 23.8441 41.0624 24.0781 41.3518 24.0781C41.6411 24.0781 41.8752 23.8441 41.8752 23.5547V22.5078C41.8752 22.2185 41.6411 21.9844 41.3518 21.9844Z" fill="#76B82A"/>
<path d="M40.305 20.9365C40.0156 20.9365 39.7814 21.1707 39.7814 21.46C39.7814 21.7494 40.0156 21.9834 40.305 21.9834C40.5932 21.9834 40.8284 22.2186 40.8284 22.5079C40.8284 22.7973 41.0625 23.0313 41.3519 23.0313C41.6411 23.0313 41.8753 22.7971 41.8753 22.5079C41.8753 21.641 41.1708 20.9365 40.305 20.9365Z" fill="#76B82A"/>
<path d="M40.3048 20.9365H25.6484C25.359 20.9365 25.125 21.1707 25.125 21.46C25.125 21.7494 25.359 21.9834 25.6484 21.9834H40.3046C40.5939 21.9834 40.8281 21.7494 40.8282 21.46C40.8282 21.1707 40.594 20.9365 40.3048 20.9365Z" fill="#76B82A"/>
<path d="M30.883 18.8438C30.5937 18.8438 30.3596 19.0779 30.3596 19.3672V21.374C30.3596 21.6634 30.5937 21.8974 30.883 21.8974C31.1723 21.8974 31.4064 21.6634 31.4064 21.374V19.3672C31.4064 19.0779 31.1723 18.8438 30.883 18.8438Z" fill="#76B82A"/>
<path d="M39.2575 18.8438C38.9681 18.8438 38.7339 19.0779 38.7339 19.3672V21.4599C38.7339 21.7493 38.9681 21.9833 39.2575 21.9833C39.5468 21.9833 39.7808 21.7493 39.7808 21.4599V19.3672C39.7808 19.0779 39.5468 18.8438 39.2575 18.8438Z" fill="#76B82A"/>
<path d="M39.2579 18.8438H35.0703C34.781 18.8438 34.5469 19.0779 34.5469 19.3672C34.5469 19.6564 34.781 19.8906 35.0703 19.8906H39.2579C39.5472 19.8906 39.7812 19.6564 39.7812 19.3672C39.7812 19.0779 39.5472 18.8438 39.2579 18.8438Z" fill="#76B82A"/>
<path d="M35.0703 18.8438C34.781 18.8438 34.5469 19.0779 34.5469 19.3672V21.4599C34.5469 21.7493 34.781 21.9833 35.0703 21.9833C35.3597 21.9833 35.5937 21.7493 35.5937 21.4599V19.3672C35.5937 19.0779 35.3597 18.8438 35.0703 18.8438Z" fill="#76B82A"/>
<path d="M28.7889 18.8438C28.4996 18.8438 28.2655 19.0779 28.2655 19.3672V21.4599C28.2655 21.7493 28.4996 21.9833 28.7889 21.9833C29.0782 21.9833 29.3123 21.7493 29.3123 21.4599V19.3672C29.3123 19.0779 29.0782 18.8438 28.7889 18.8438Z" fill="#76B82A"/>
<path d="M20.4142 16.7497C20.1259 16.7497 19.8908 16.5145 19.8908 16.2263C19.8908 15.9379 20.1259 15.7029 20.4142 15.7029C20.7035 15.7029 20.9377 15.4687 20.9377 15.1794C20.9377 14.89 20.7035 14.656 20.4142 14.656C19.5483 14.656 18.8438 15.3603 18.8438 16.2263C18.8438 17.0921 19.5483 17.7966 20.4142 17.7966C20.7035 17.7966 20.9377 17.5624 20.9377 17.2732C20.9377 16.9839 20.7035 16.7497 20.4142 16.7497Z" fill="#76B82A"/>
<path d="M35.0703 14.6562C34.781 14.6562 34.5469 14.8903 34.5469 15.1797C34.5469 15.469 34.781 15.7031 35.0703 15.7031C35.3587 15.7031 35.5937 15.9382 35.5937 16.2265C35.5937 16.5148 35.3587 16.75 35.0703 16.75C34.781 16.75 34.5469 16.984 34.5469 17.2734C34.5469 17.5627 34.781 17.7968 35.0703 17.7968C35.9363 17.7968 36.6406 17.0924 36.6406 16.2265C36.6406 15.3604 35.9363 14.6562 35.0703 14.6562Z" fill="#76B82A"/>
<path d="M35.0704 16.75H20.4142C20.1249 16.75 19.8908 16.984 19.8908 17.2734C19.8908 17.5627 20.1249 17.7969 20.4142 17.7969H35.0704C35.3598 17.7969 35.5939 17.5627 35.5939 17.2734C35.5939 16.984 35.3598 16.75 35.0704 16.75Z" fill="#76B82A"/>
<path d="M1.57029 14.6562C1.28207 14.6562 1.04686 14.421 1.04686 14.1328C1.04686 13.8444 1.28207 13.6094 1.57029 13.6094C1.85969 13.6094 2.09373 13.3752 2.09373 13.0859C2.09373 12.7965 1.85969 12.5625 1.57029 12.5625C0.704453 12.5624 0 13.2668 0 14.1327C0 14.9985 0.704453 15.703 1.57029 15.703C1.85969 15.703 2.09373 15.4688 2.09373 15.1795C2.09373 14.8903 1.85969 14.6562 1.57029 14.6562Z" fill="#76B82A"/>
<path d="M32.9766 12.5624C32.6873 12.5624 32.4532 12.7964 32.4532 13.0858C32.4532 13.3751 32.6873 13.6092 32.9766 13.6092C33.265 13.6092 33.5 13.8443 33.5 14.1327C33.5 14.4209 33.265 14.6561 32.9766 14.6561C32.6873 14.6561 32.4532 14.8901 32.4532 15.1795C32.4532 15.4688 32.6873 15.703 32.9766 15.703C33.8426 15.703 34.5469 14.9985 34.5469 14.1327C34.5469 13.2668 33.8426 12.5624 32.9766 12.5624Z" fill="#76B82A"/>
<path d="M23.5546 14.6562H1.57025C1.28098 14.6562 1.04681 14.8903 1.04681 15.1797C1.04681 15.4689 1.28098 15.7031 1.57025 15.7031H23.5546C23.844 15.7031 24.0782 15.4689 24.0782 15.1797C24.0782 14.8903 23.8439 14.6562 23.5546 14.6562Z" fill="#76B82A"/>
<path d="M32.9765 12.5625H1.57024C1.28098 12.5625 1.04681 12.7965 1.04681 13.0859C1.04681 13.3752 1.28098 13.6094 1.57024 13.6094H32.9765C33.2659 13.6094 33.4999 13.3752 33.4999 13.0859C33.4999 12.7965 33.2659 12.5625 32.9765 12.5625Z" fill="#76B82A"/>
<path d="M35.0704 14.6562H32.9766C32.6874 14.6562 32.4532 14.8903 32.4532 15.1797C32.4532 15.4689 32.6874 15.7031 32.9766 15.7031H35.0704C35.3598 15.7031 35.5938 15.4689 35.5938 15.1797C35.5938 14.8903 35.3598 14.6562 35.0704 14.6562Z" fill="#76B82A"/>
<path d="M63.706 39.9346C63.5017 39.7301 63.1704 39.7301 62.966 39.9346L62.2891 40.6114L61.6123 39.9346C61.4078 39.7301 61.0767 39.7301 60.8722 39.9346L60.1954 40.6114L59.5186 39.9346C59.3141 39.7301 58.983 39.7301 58.7785 39.9346L58.1017 40.6114L57.4248 39.9346C57.2204 39.7301 56.8891 39.7301 56.6847 39.9346L56.0078 40.6114L55.3311 39.9346C55.1267 39.7301 54.7954 39.7301 54.5909 39.9346L53.9141 40.6114L53.2374 39.9346C53.0329 39.7301 52.7017 39.7301 52.4972 39.9346L51.8204 40.6114L51.1437 39.9346C50.9392 39.7301 50.6079 39.7301 50.4035 39.9346L49.7266 40.6114L49.0499 39.9346C48.8455 39.7301 48.5142 39.7301 48.3097 39.9346L47.6329 40.6114L46.9561 39.9346C46.7518 39.7301 46.4205 39.7301 46.216 39.9346L45.5392 40.6114L44.8624 39.9346C44.658 39.7301 44.3266 39.7301 44.1222 39.9346L43.4455 40.6114L42.7686 39.9346C42.5643 39.7301 42.2329 39.7301 42.0284 39.9346L41.3517 40.6114L40.6749 39.9346C40.4705 39.7301 40.1392 39.7301 39.9347 39.9346L39.258 40.6114L38.5812 39.9346C38.3767 39.7301 38.0454 39.7301 37.841 39.9346L37.1643 40.6114L36.4874 39.9346C36.283 39.7301 35.9517 39.7301 35.7473 39.9346L35.0704 40.6114L34.3936 39.9346C34.1893 39.7301 33.858 39.7301 33.6535 39.9346L32.9767 40.6114L32.3 39.9346C32.0955 39.7301 31.7643 39.7301 31.5598 39.9346L30.883 40.6114L30.2061 39.9346C30.0018 39.7301 29.6705 39.7301 29.4661 39.9346L28.7893 40.6114L28.1124 39.9346C27.908 39.7301 27.5767 39.7301 27.3722 39.9346L26.6955 40.6114L26.0187 39.9346C25.8142 39.7301 25.483 39.7301 25.2785 39.9346L24.6018 40.6114L23.925 39.9346C23.7205 39.7301 23.3892 39.7301 23.1848 39.9346L22.5081 40.6114L21.8314 39.9346C21.6269 39.7301 21.2956 39.7301 21.0912 39.9346L20.4145 40.6114L19.7378 39.9346C19.5333 39.7301 19.202 39.7301 18.9976 39.9346L18.3208 40.6114L17.644 39.9346C17.4396 39.7301 17.1083 39.7301 16.9039 39.9346L16.227 40.6114L15.5503 39.9346C15.3459 39.7301 15.0146 39.7301 14.8101 39.9346L14.1333 40.6114L13.4565 39.9346C13.2521 39.7301 12.9209 39.7301 12.7164 39.9346L12.0396 40.6114L11.3627 39.9346C11.1583 39.7301 10.827 39.7301 10.6226 39.9346L9.94585 40.6114L9.26902 39.9346C9.06456 39.7301 8.73328 39.7301 8.52883 39.9346L7.85212 40.6114L7.17529 39.9346C6.97084 39.7301 6.63955 39.7301 6.4351 39.9346L5.7584 40.6114L5.08169 39.9346C4.87724 39.7301 4.54596 39.7301 4.34151 39.9346L3.6648 40.6114L2.9881 39.9346C2.78365 39.7301 2.45236 39.7301 2.24791 39.9346C2.04346 40.139 2.04346 40.4703 2.24791 40.6748L3.29478 41.7217C3.49923 41.9261 3.83051 41.9261 4.03496 41.7217L4.71167 41.0448L5.38837 41.7217C5.59282 41.9261 5.92411 41.9261 6.12856 41.7217L6.80526 41.0448L7.48197 41.7217C7.68642 41.9261 8.0177 41.9261 8.22215 41.7217L8.89899 41.0448L9.57569 41.7217C9.78014 41.9261 10.1114 41.9261 10.3159 41.7217L10.9927 41.0448L11.6694 41.7217C11.8739 41.9261 12.2052 41.9261 12.4096 41.7217L13.0864 41.0448L13.7633 41.7217C13.9676 41.9261 14.2989 41.9261 14.5033 41.7217L15.1802 41.0448L15.857 41.7217C16.0615 41.9261 16.3927 41.9261 16.5972 41.7217L17.2739 41.0448L17.9507 41.7217C18.1552 41.9261 18.4865 41.9261 18.6909 41.7217L19.3676 41.0448L20.0445 41.7217C20.2489 41.9261 20.5802 41.9261 20.7846 41.7217L21.4613 41.0448L22.138 41.7217C22.3425 41.9261 22.6738 41.9261 22.8782 41.7217L23.5549 41.0448L24.2316 41.7217C24.4361 41.9261 24.7674 41.9261 24.9718 41.7217L25.6487 41.0448L26.3254 41.7217C26.5298 41.9261 26.8611 41.9261 27.0656 41.7217L27.7424 41.0448L28.4191 41.7217C28.6235 41.9261 28.9548 41.9261 29.1593 41.7217L29.8361 41.0448L30.5129 41.7217C30.7173 41.9261 31.0486 41.9261 31.253 41.7217L31.9298 41.0448L32.6067 41.7217C32.8111 41.9261 33.1424 41.9261 33.3469 41.7217L34.0236 41.0448L34.7004 41.7217C34.9049 41.9261 35.236 41.9261 35.4405 41.7217L36.1173 41.0448L36.7941 41.7217C36.9986 41.9261 37.3299 41.9261 37.5343 41.7217L38.2112 41.0448L38.8879 41.7217C39.0923 41.9261 39.4236 41.9261 39.628 41.7217L40.3049 41.0448L40.9816 41.7217C41.186 41.9261 41.5173 41.9261 41.7218 41.7217L42.3986 41.0448L43.0753 41.7217C43.2798 41.9261 43.611 41.9261 43.8155 41.7217L44.4923 41.0448L45.169 41.7217C45.3735 41.9261 45.7048 41.9261 45.9092 41.7217L46.5861 41.0448L47.2629 41.7217C47.4672 41.9261 47.7985 41.9261 48.0029 41.7217L48.6798 41.0448L49.3566 41.7217C49.5609 41.9261 49.8923 41.9261 50.0968 41.7217L50.7735 41.0448L51.4503 41.7217C51.6547 41.9261 51.9861 41.9261 52.1905 41.7217L52.8672 41.0448L53.5441 41.7217C53.7485 41.9261 54.0798 41.9261 54.2843 41.7217L54.961 41.0448L55.6378 41.7217C55.8422 41.9261 56.1735 41.9261 56.378 41.7217L57.0547 41.0448L57.7315 41.7217C57.936 41.9261 58.2673 41.9261 58.4717 41.7217L59.1485 41.0448L59.8254 41.7217C60.0297 41.9261 60.361 41.9261 60.5654 41.7217L61.2423 41.0448L61.9191 41.7217C62.0213 41.8238 62.1552 41.8749 62.2891 41.8749C62.4232 41.8749 62.5569 41.8239 62.6592 41.7217L63.706 40.6748C63.9105 40.4702 63.9105 40.139 63.706 39.9346Z" fill="#76B82A"/>
<path d="M2.98726 39.9345C2.78281 39.73 2.45153 39.73 2.24708 39.9345L1.20021 40.9824C0.995762 41.1868 0.995762 41.5181 1.20021 41.7226C1.30244 41.8247 1.43634 41.8759 1.57024 41.8759C1.70414 41.8759 1.83804 41.8248 1.94027 41.7226L2.98726 40.6747C3.19171 40.4702 3.19171 40.1389 2.98726 39.9345Z" fill="#76B82A"/>
<path d="M1.94045 40.9825L0.893585 39.9346C0.689134 39.7301 0.35785 39.7301 0.153399 39.9346C-0.0510517 40.139 -0.0510517 40.4703 0.153399 40.6748L1.20026 41.7227C1.30249 41.8248 1.43639 41.876 1.57029 41.876C1.70419 41.876 1.83809 41.8249 1.94045 41.7227C2.1449 41.5181 2.1449 41.187 1.94045 40.9825Z" fill="#76B82A"/>
<path d="M64.7526 40.9815L63.7058 39.9346C63.5015 39.7301 63.1702 39.7301 62.9657 39.9346C62.7613 40.139 62.7613 40.4703 62.9657 40.6748L64.0126 41.7217C64.1148 41.8238 64.2487 41.8749 64.3826 41.8749C64.5166 41.8749 64.6504 41.8239 64.7526 41.7217C64.9571 41.5171 64.9571 41.1859 64.7526 40.9815Z" fill="#76B82A"/>
<path d="M65.8001 39.9356C65.5957 39.7311 65.2645 39.7311 65.06 39.9356L64.0131 40.9814C63.8087 41.1859 63.8087 41.5171 64.0131 41.7216C64.1154 41.8237 64.2493 41.8749 64.3832 41.8749C64.5172 41.8749 64.651 41.8238 64.7532 41.7216L65.8001 40.6758C66.0045 40.4712 66.0045 40.14 65.8001 39.9356Z" fill="#76B82A"/>
<path d="M66.8467 40.9814L65.7998 39.9356C65.5955 39.7311 65.2642 39.7311 65.0598 39.9356C64.8553 40.14 64.8553 40.4713 65.0598 40.6758L66.1066 41.7216C66.2089 41.8237 66.3429 41.8749 66.4767 41.8749C66.6107 41.8749 66.7446 41.8238 66.8467 41.7216C67.0512 41.517 67.0512 41.1859 66.8467 40.9814Z" fill="#76B82A"/>
<path d="M23.9248 47.2626L22.8779 46.2157C22.6735 46.0113 22.3422 46.0113 22.1377 46.2157L21.461 46.8926L20.7843 46.2157C20.5799 46.0113 20.2486 46.0113 20.0441 46.2157L19.3673 46.8926L18.6906 46.2157C18.4861 46.0113 18.1548 46.0113 17.9504 46.2157L17.2736 46.8926L16.5969 46.2157C16.3924 46.0113 16.0611 46.0113 15.8567 46.2157L15.1798 46.8926L14.503 46.2157C14.2987 46.0113 13.9674 46.0113 13.7629 46.2157L12.7161 47.2626C12.5116 47.467 12.5116 47.7983 12.7161 48.0028C12.9204 48.2072 13.2517 48.2072 13.4561 48.0028L14.133 47.3259L14.8098 48.0028C15.0143 48.2072 15.3455 48.2072 15.55 48.0028L16.2267 47.3259L16.9035 48.0028C17.108 48.2072 17.4393 48.2072 17.6437 48.0028L18.3204 47.3259L18.9973 48.0028C19.2017 48.2072 19.533 48.2072 19.7374 48.0028L20.4142 47.3259L21.0909 48.0028C21.2953 48.2072 21.6266 48.2072 21.831 48.0028L22.5077 47.3259L23.1845 48.0028C23.2868 48.105 23.4207 48.1562 23.5546 48.1562C23.6885 48.1562 23.8224 48.105 23.9248 48.0028C24.1292 47.7985 24.1292 47.467 23.9248 47.2626Z" fill="#76B82A"/>
<path d="M59.5186 49.3565L58.4718 48.3096C58.2673 48.1051 57.936 48.1051 57.7316 48.3096L57.0547 48.9864L56.378 48.3096C56.1736 48.1051 55.8423 48.1051 55.6378 48.3096L54.961 48.9864L54.2843 48.3096C54.0799 48.1051 53.7486 48.1051 53.5441 48.3096L52.8673 48.9864L52.1906 48.3096C51.9861 48.1051 51.6548 48.1051 51.4504 48.3096L50.7736 48.9864L50.0968 48.3096C49.8924 48.1051 49.5611 48.1051 49.3567 48.3096L48.6798 48.9864L48.003 48.3096C47.7987 48.1051 47.4674 48.1051 47.2629 48.3096L46.5861 48.9864L45.9093 48.3096C45.7049 48.1051 45.3735 48.1051 45.1691 48.3096L44.1222 49.3565C43.9178 49.5609 43.9178 49.8922 44.1222 50.0967C44.3267 50.3011 44.6579 50.3011 44.8624 50.0967L45.5392 49.4198L46.2161 50.0967C46.4204 50.3011 46.7517 50.3011 46.9561 50.0967L47.633 49.4198L48.3098 50.0967C48.5141 50.3011 48.8455 50.3011 49.05 50.0967L49.7267 49.4198L50.4035 50.0967C50.6078 50.3011 50.9393 50.3011 51.1437 50.0967L51.8204 49.4198L52.4973 50.0967C52.7017 50.3011 53.033 50.3011 53.2374 50.0967L53.9141 49.4198L54.591 50.0967C54.7954 50.3011 55.1267 50.3011 55.3312 50.0967L56.0079 49.4198L56.6847 50.0967C56.8892 50.3011 57.2204 50.3011 57.4249 50.0967L58.1017 49.4198L58.7786 50.0967C58.8807 50.1989 59.0147 50.2501 59.1486 50.2501C59.2825 50.2501 59.4164 50.1989 59.5186 50.0967C59.7231 49.8923 59.7231 49.5609 59.5186 49.3565Z" fill="#76B82A"/>
<path d="M35.4402 53.5438L34.3933 52.497C34.189 52.2925 33.8577 52.2925 33.6533 52.497L32.9764 53.1738L32.2997 52.497C32.0953 52.2925 31.764 52.2925 31.5595 52.497L30.8827 53.1738L30.2059 52.497C30.0016 52.2925 29.6703 52.2925 29.4658 52.497L28.789 53.1738L28.1121 52.497C27.9077 52.2925 27.5764 52.2925 27.372 52.497L26.3251 53.5438C26.1206 53.7481 26.1206 54.0796 26.3251 54.284C26.5295 54.4885 26.8608 54.4885 27.0653 54.284L27.7421 53.6072L28.4188 54.284C28.6233 54.4885 28.9546 54.4885 29.159 54.284L29.8358 53.6072L30.5127 54.284C30.717 54.4885 31.0483 54.4885 31.2527 54.284L31.9296 53.6072L32.6064 54.284C32.8109 54.4885 33.1421 54.4885 33.3466 54.284L34.0233 53.6072L34.7001 54.284C34.8024 54.3861 34.9364 54.4373 35.0702 54.4373C35.2042 54.4373 35.3381 54.3861 35.4402 54.284C35.6447 54.0797 35.6447 53.7484 35.4402 53.5438Z" fill="#76B82A"/>
</g>
<defs>
<clipPath id="clip0">
<rect width="67" height="67" fill="white"/>
</clipPath>
</defs>
</svg>
