<svg width="50" height="50" viewBox="0 0 50 50" fill="none" xmlns="http://www.w3.org/2000/svg">
<path d="M29.5925 6.01352C29.0673 5.88706 28.5406 6.20981 28.4143 6.73403C28.2879 7.25834 28.6105 7.78588 29.1348 7.91224C37.05 9.82034 42.578 16.8471 42.578 25C42.578 34.6925 34.6926 42.578 24.9999 42.578C15.3073 42.578 7.42187 34.6925 7.42187 25C7.42187 16.8474 12.9496 9.82064 20.8644 7.91234C21.3887 7.78588 21.7113 7.25834 21.5849 6.73412C21.4584 6.20981 20.9307 5.88745 20.4067 6.01362C16.2192 7.02328 12.4254 9.44388 9.7241 12.8295C6.94023 16.3187 5.46875 20.5271 5.46875 25C5.46875 35.7695 14.2304 44.5311 24.9999 44.5311C35.7694 44.5311 44.5311 35.7696 44.5311 25C44.5311 20.527 43.0596 16.3185 40.2755 12.8292C37.5742 9.44368 33.7802 7.02309 29.5925 6.01352Z" fill="#76B82A"/>
<path d="M49.4116 22.6511L48.2691 20.5195L48.4596 17.8844C48.6428 16.1953 47.9691 14.5469 46.655 13.4719L44.7586 11.919L44.0126 9.67174C43.5948 7.95348 42.2898 6.57243 40.5967 6.06101L38.2558 5.35379L36.463 3.28153C35.4023 2.03378 33.7967 1.38476 32.1679 1.54482L29.7382 1.78691L27.3498 0.588767C25.878 -0.195898 24.1231 -0.196581 22.651 0.58867L20.5196 1.73105L17.8846 1.54042C16.1948 1.35722 14.547 2.03105 13.4721 3.34501L11.919 5.24148L9.67189 5.98748C7.95353 6.40525 6.57248 7.71022 6.06106 9.40328L5.35393 11.7442L3.28168 13.5371C2.03403 14.5978 1.38461 16.2031 1.54487 17.8322L1.78696 20.2618L0.588816 22.6502C-0.195946 24.1222 -0.196532 25.8769 0.588621 27.3491L1.7311 29.4805L1.54047 32.1157C1.35737 33.8047 2.0311 35.4531 3.34506 36.5282L5.24153 38.0811L5.98753 40.3284C6.4052 42.0466 7.71018 43.4277 9.40343 43.9391L11.7442 44.6462L13.5371 46.7186C14.5979 47.9662 16.2028 48.6156 17.8322 48.4553L20.2618 48.2132L22.65 49.4111C23.3862 49.8037 24.1932 50.0001 25.0002 50.0001C25.8067 50.0001 26.6131 49.804 27.349 49.4115L29.4805 48.2691L32.1155 48.4598C33.8045 48.6426 35.4529 47.9691 36.5281 46.6552L38.0811 44.7587L40.3284 44.0128C42.0466 43.595 43.4275 42.2901 43.9389 40.5969L44.6462 38.2561L46.7185 36.4632C47.9662 35.4025 48.6156 33.7972 48.4553 32.168L48.2131 29.7386L49.4112 27.3502C50.1959 25.8781 50.1967 24.1232 49.4116 22.6511ZM47.6836 26.4388C47.6793 26.4468 47.6751 26.4548 47.6711 26.4628L46.3404 29.1156C46.2575 29.2808 46.2232 29.4663 46.2415 29.6504L46.5117 32.3603C46.6091 33.3512 46.2135 34.3288 45.447 34.9805L43.1543 36.9641C43.0144 37.0851 42.9119 37.2432 42.8585 37.4202L42.0693 40.032C41.7548 41.0734 40.9002 41.8741 39.8392 42.1214C39.8101 42.1282 39.7814 42.1363 39.7532 42.1456L37.1972 42.994C37.0217 43.0523 36.8663 43.1591 36.7492 43.3022L35.0168 45.418C34.3588 46.2223 33.348 46.633 32.3136 46.5166C32.3007 46.5151 32.2877 46.514 32.2749 46.513L29.3392 46.3007C29.1543 46.2874 28.9703 46.3267 28.8075 46.414L26.4282 47.6892C25.5309 48.1677 24.4592 48.1657 23.5613 47.6836C23.5533 47.6794 23.5453 47.6752 23.5373 47.6712L20.8845 46.3405C20.7482 46.2722 20.5982 46.2368 20.4466 46.2368C20.4144 46.2368 20.3821 46.2384 20.3498 46.2416L17.6398 46.5116C16.649 46.6095 15.6714 46.2135 15.0196 45.4471L13.036 43.1543C12.9151 43.0145 12.7569 42.9118 12.5799 42.8584L9.96808 42.0695C8.92658 41.7549 8.12599 40.9003 7.87863 39.8392C7.87189 39.8102 7.86379 39.7816 7.85441 39.7533L7.00608 37.1971C6.94787 37.0216 6.84104 36.8664 6.69797 36.7493L4.58226 35.0168C3.77796 34.3587 3.36722 33.3482 3.48363 32.3136C3.48509 32.3008 3.48627 32.2879 3.48724 32.2749L3.69955 29.339C3.71292 29.1547 3.67357 28.9703 3.58627 28.8073L2.31098 26.4282C1.83246 25.531 1.83451 24.4593 2.31645 23.5613C2.32074 23.5534 2.32484 23.5454 2.32885 23.5374L3.65951 20.8846C3.74242 20.7194 3.77669 20.5339 3.75834 20.3499L3.48832 17.6398C3.39086 16.6489 3.78646 15.6713 4.55296 15.0196L6.84573 13.036C6.98557 12.915 7.08811 12.7569 7.14162 12.5799L7.93068 9.96803C8.24523 8.92662 9.09982 8.12604 10.1609 7.87858C10.19 7.87184 10.2186 7.86374 10.2469 7.85436L12.8028 7.00593C12.9783 6.94773 13.1336 6.84089 13.2507 6.69782L14.9833 4.58201C15.6413 3.77782 16.6521 3.36727 17.6864 3.48348C17.6993 3.48495 17.7122 3.48612 17.7251 3.4871L20.6608 3.6994C20.8447 3.71249 21.0296 3.67342 21.1925 3.58612L23.5717 2.31093C24.4689 1.83241 25.5407 1.83437 26.4385 2.3164C26.4464 2.3206 26.4544 2.3248 26.4625 2.3288L29.1154 3.65946C29.2806 3.74237 29.466 3.77674 29.65 3.75829L32.3601 3.48827C33.3509 3.39061 34.3285 3.78641 34.9803 4.55291L36.9639 6.84568C37.0848 6.98552 37.243 7.08806 37.42 7.14157L40.0318 7.93063C41.0732 8.24518 41.8738 9.09987 42.1213 10.1609C42.128 10.1899 42.1361 10.2185 42.1455 10.2468L42.9939 12.8028C43.0522 12.9783 43.159 13.1335 43.302 13.2506L45.4178 14.9831C46.2221 15.6411 46.6328 16.6516 46.5164 17.6863C46.5149 17.6991 46.5137 17.712 46.5129 17.725L46.3005 20.6609C46.2872 20.8452 46.3265 21.0296 46.4137 21.1926L47.689 23.5718C48.1676 24.4692 48.1656 25.5409 47.6836 26.4388Z" fill="#76B82A"/>
<path d="M20.7623 19.6793C20.6056 19.3492 20.2702 19.1204 19.8805 19.1204H14.7207C14.1813 19.1204 13.7441 19.5576 13.7441 20.0969V34.8787C13.7441 35.4181 14.1813 35.8553 14.7207 35.8553H19.8805C20.2853 35.8553 20.6325 35.6091 20.7805 35.2582C21.525 35.3627 22.2919 35.5744 23.0903 35.7955C24.2907 36.1278 25.5318 36.4715 26.8213 36.4715H32.4589C34.2017 36.4715 35.6139 35.5476 36.2366 33.9998C36.5399 33.2457 36.5931 32.4631 36.4158 31.8079C36.74 31.5164 37.0141 31.1535 37.2213 30.7298C37.6413 29.8712 37.7252 28.9057 37.4871 28.0925C37.9309 27.6638 38.2619 27.0977 38.435 26.4302C38.5968 25.8062 38.5939 25.1905 38.45 24.657C39.3309 24.1388 39.9241 23.1974 39.9241 22.1367C39.9241 21.3047 39.6002 20.5381 39.0119 19.9782C38.4471 19.4405 37.6947 19.1443 36.8936 19.1443L28.9472 19.1445C28.3435 18.3872 28.1556 17.3594 28.4994 16.5322C29.2048 14.8344 29.1611 13.3972 28.3579 11.8724C27.7616 10.7406 26.1582 9.61387 24.8107 9.80625C23.9961 9.92266 23.4068 10.4983 23.2339 11.3464C23.1831 11.5959 23.1691 11.8654 23.153 12.1775C23.1131 12.9474 23.0585 14.0019 22.3938 15.2753C21.9433 16.1385 21.793 17.0262 21.6604 17.8095C21.4705 18.9316 21.3784 19.4721 20.7623 19.6793ZM15.6973 21.0735H18.904V33.9022H15.6973V21.0735ZM23.5862 18.1355C23.7 17.4635 23.8175 16.7686 24.1253 16.1791C24.987 14.5283 25.0599 13.12 25.1036 12.2786C25.1152 12.0545 25.1261 11.8428 25.1478 11.7363C25.1479 11.7356 25.1481 11.7349 25.1483 11.7342C25.4871 11.7389 26.3207 12.1962 26.6298 12.7829C27.1648 13.7981 27.1826 14.6113 26.6958 15.783C26.2569 16.8394 26.2899 18.0653 26.7241 19.1552C26.249 19.2213 25.883 19.6281 25.883 20.1213C25.883 20.6606 26.3203 21.0979 26.8595 21.0979L36.8936 21.0976C37.1911 21.0976 37.4652 21.2025 37.6652 21.3929C37.8048 21.5256 37.971 21.7626 37.971 22.1368C37.971 22.6606 37.4908 23.1135 36.9224 23.1259L34.4088 23.1806C33.8696 23.1923 33.442 23.6389 33.4537 24.1782C33.4653 24.7102 33.9001 25.1335 34.4297 25.1335C34.4368 25.1335 34.4441 25.1335 34.4514 25.1333L36.5447 25.0878C36.613 25.2813 36.6485 25.6503 36.5048 26.0731C36.3824 26.4327 36.054 27.0358 35.2278 27.0358C34.6886 27.0358 34.2513 27.473 34.2513 28.0123C34.2513 28.5517 34.6886 28.9889 35.2278 28.9889C35.3759 28.9889 35.5212 28.9797 35.6634 28.9616C35.6755 29.238 35.6187 29.5617 35.467 29.8717C35.2877 30.2381 34.9333 30.675 34.2632 30.675C33.7239 30.675 33.2866 31.1122 33.2866 31.6516C33.2866 32.1909 33.7239 32.6281 34.2632 32.6281C34.3643 32.6281 34.4643 32.6236 34.563 32.6148C34.5605 32.8022 34.5224 33.0364 34.4158 33.2927C34.2627 33.6612 33.7653 34.5184 32.4591 34.5184H26.8215C25.7974 34.5184 24.7357 34.2244 23.6117 33.9132C22.7172 33.6655 21.8002 33.4118 20.8573 33.2985V21.6557C23.0559 21.2573 23.359 19.4774 23.5862 18.1355Z" fill="#76B82A"/>
<path d="M25.0022 7.42188C25.5416 7.42188 25.9788 6.98467 25.9788 6.44531C25.9788 5.90596 25.5416 5.46875 25.0022 5.46875H25.0016C24.4622 5.46875 24.0254 5.90596 24.0254 6.44531C24.0254 6.98467 24.4629 7.42188 25.0022 7.42188Z" fill="#76B82A"/>
</svg>
