<svg width="50" height="50" viewBox="0 0 50 50" fill="none" xmlns="http://www.w3.org/2000/svg">
<path d="M48.8185 23.3951C48.07 22.7046 47.0519 22.2781 46.025 22.2247C44.8588 22.1645 43.7663 22.5803 42.9526 23.3943L37.3931 28.8955C37.2832 28.7051 37.1577 28.5255 37.0169 28.3588C36.333 27.5466 35.3327 27.0995 34.2009 27.0995H26.4182C24.9507 27.0995 23.519 26.9092 22.1633 26.5342C18.6286 25.5565 15.2518 26.2706 12.3972 28.6006C11.2364 29.5482 10.3896 30.5789 9.85398 31.3304L8.45857 29.9762C8.27508 29.7981 8.02636 29.697 7.77039 29.697C7.76811 29.697 7.7662 29.697 7.76391 29.697C7.49879 29.6989 7.24244 29.8091 7.05857 29.9999L0.274894 37.0422C0.093314 37.2306 -0.00548666 37.4839 0.000235386 37.7456C0.00595743 38.0077 0.115439 38.2564 0.30503 38.4368L11.7785 49.3617C11.9689 49.5429 12.213 49.6333 12.4568 49.6333C12.7127 49.6333 12.9687 49.5338 13.1613 49.3362L19.8817 42.4415C20.0652 42.253 20.167 41.9956 20.1621 41.7323C20.1571 41.4729 20.0484 41.2227 19.8622 41.0419L19.2771 40.4743L20.6164 40.3236C21.4266 40.2294 22.2506 40.1817 23.0662 40.1817H34.9074C36.8315 40.1817 38.4657 39.7609 39.765 38.9308C39.7757 38.924 39.7864 38.9167 39.7971 38.9095C40.2625 38.586 40.6848 38.2026 41.0517 37.7704L49.0313 28.3828C50.397 26.7764 50.3115 24.7718 48.8185 23.3951ZM12.4312 47.2671L2.37794 37.6945L7.79366 32.072L17.7882 41.7709L12.4312 47.2671ZM47.5325 27.1087L39.5529 36.4967C39.2996 36.7946 39.0093 37.0593 38.6893 37.2836C37.7139 37.9012 36.4417 38.2148 34.9074 38.2148H23.0658C22.1751 38.2148 21.2744 38.2671 20.3929 38.3697L17.4487 38.7L11.2841 32.7178C11.7125 32.0827 12.5002 31.0561 13.6412 30.1246C16.0132 28.1883 18.7041 27.618 21.6387 28.4301C23.1654 28.8524 24.7733 29.0668 26.4182 29.0668H34.2009C35.5986 29.0668 35.9717 30.2776 35.9717 30.9928C35.9717 31.5154 35.8039 32.0129 35.5113 32.3577C35.1939 32.7312 34.7426 32.9204 34.17 32.9204H27.3951C26.8519 32.9204 26.4117 33.361 26.4117 33.9042C26.4117 34.4474 26.8519 34.8876 27.3951 34.8876H34.17C35.3137 34.8876 36.3223 34.4413 37.0104 33.6311C37.583 32.9574 37.9096 32.0716 37.937 31.1248L44.34 24.789C45.2551 23.8738 46.6849 24.1035 47.4848 24.8412C47.8984 25.2227 48.4545 26.0242 47.5325 27.1087Z" fill="#76B82A"/>
<path d="M24.328 33.6421C24.204 33.113 23.6749 32.7853 23.1458 32.9089C22.6171 33.0329 22.2887 33.562 22.413 34.0911L22.4222 34.1311C22.5286 34.5843 22.9326 34.8902 23.3789 34.8902C23.4533 34.8902 23.5288 34.8818 23.6044 34.8643C24.1335 34.7403 24.4615 34.2108 24.3375 33.6821L24.328 33.6421Z" fill="#76B82A"/>
<path d="M6.64909 21.1426H16.2331C16.755 21.1426 17.2379 20.9732 17.6308 20.6871C18.0238 20.9732 18.5067 21.1426 19.0286 21.1426H28.613C29.1348 21.1426 29.6178 20.9732 30.0107 20.6871C30.4036 20.9732 30.8865 21.1426 31.4084 21.1426H40.9924C42.3055 21.1426 43.3736 20.0741 43.3736 18.7611V14.2918C43.3736 12.2845 42.2502 10.5408 40.5686 9.68056C41.3835 8.69789 41.874 7.43752 41.874 6.06423C41.874 2.93579 39.3289 0.390625 36.2004 0.390625C33.072 0.390625 30.5268 2.93579 30.5268 6.06423C30.5268 7.43752 31.0174 8.69828 31.8322 9.68056C31.1055 10.0529 30.4833 10.5904 30.0107 11.2423C29.538 10.59 28.9159 10.0525 28.1888 9.68056C29.0036 8.69828 29.4942 7.43752 29.4942 6.06423C29.4942 2.93579 26.949 0.390625 23.8206 0.390625C20.6921 0.390625 18.147 2.93579 18.147 6.06423C18.147 7.43752 18.6379 8.69828 19.4527 9.68094C18.7257 10.0529 18.1035 10.5904 17.6308 11.2427C17.1582 10.5904 16.536 10.0529 15.8089 9.68056C16.6238 8.69828 17.1143 7.43752 17.1143 6.06461C17.1143 2.93579 14.5692 0.390625 11.4407 0.390625C8.31268 0.390625 5.76752 2.93579 5.76752 6.06461C5.76752 7.43752 6.25809 8.69828 7.07291 9.68094C5.39139 10.5412 4.26758 12.2852 4.26758 14.2921V18.7611C4.26758 20.0741 5.33608 21.1426 6.64909 21.1426ZM36.2008 2.35786C38.2443 2.35786 39.9072 4.02031 39.9072 6.06423C39.9072 8.10776 38.2443 9.77059 36.2008 9.77059C34.1569 9.77059 32.4944 8.10814 32.4944 6.06423C32.4941 4.02031 34.1569 2.35786 36.2008 2.35786ZM33.6453 11.1275C34.414 11.517 35.2818 11.7378 36.2004 11.7378C37.1194 11.7378 37.9872 11.517 38.7555 11.1275C40.2841 11.3937 41.4067 12.711 41.4067 14.2918V18.7611C41.4067 18.9896 41.2209 19.1753 40.9924 19.1753H31.4084C31.1803 19.1753 30.9945 18.9896 30.9945 18.7611V14.2918C30.9941 12.7113 32.1172 11.3937 33.6453 11.1275ZM23.821 2.35786C25.8645 2.35786 27.5273 4.02031 27.5273 6.06423C27.5273 8.10776 25.8645 9.77059 23.821 9.77059C21.777 9.77059 20.1146 8.10814 20.1146 6.06423C20.1146 4.02031 21.777 2.35786 23.821 2.35786ZM21.2659 11.1275C22.0342 11.517 22.902 11.7378 23.821 11.7378C24.7399 11.7378 25.6074 11.517 26.376 11.1275C27.9042 11.3937 29.0273 12.711 29.0273 14.2918V18.7611C29.0273 18.9896 28.8415 19.1753 28.613 19.1753H19.0289C18.8004 19.1753 18.6147 18.9896 18.6147 18.7611V14.2918C18.6147 12.7113 19.7377 11.3937 21.2659 11.1275ZM11.4411 2.35786C13.4847 2.35786 15.1475 4.02031 15.1475 6.06423C15.1475 8.10776 13.4847 9.77059 11.4411 9.77059C9.39758 9.77059 7.73476 8.10776 7.73476 6.06423C7.73476 4.02031 9.39758 2.35786 11.4411 2.35786ZM6.23482 14.2918C6.23482 12.7113 7.35787 11.3937 8.88603 11.1275C9.6547 11.517 10.5222 11.7378 11.4411 11.7378C12.3601 11.7378 13.2275 11.517 13.9962 11.1275C15.5248 11.3937 16.6474 12.711 16.6474 14.2918V18.7611C16.6474 18.9896 16.4616 19.1753 16.2331 19.1753H6.64909C6.42059 19.1753 6.23482 18.9896 6.23482 18.7611V14.2918Z" fill="#76B82A"/>
</svg>
