<svg width="50" height="50" viewBox="0 0 50 50" fill="none" xmlns="http://www.w3.org/2000/svg">
<path d="M49.7166 0.286035C49.5334 0.10293 49.285 0 49.0259 0L25.003 0.00126953C24.4638 0.00126953 24.0266 0.438574 24.0266 0.977832V3.77051L14.7698 6.25088C14.2488 6.39053 13.9396 6.92598 14.0793 7.44687L18.8769 25.3514L14.7266 29.5017C14.1983 28.7304 13.3114 28.2231 12.3082 28.2231H2.9335C1.31807 28.2231 0.00390625 29.5374 0.00390625 31.1527V47.0703C0.00390625 48.6857 1.31807 50 2.9335 50H12.3083C13.6807 50 14.8352 49.0512 15.1516 47.7754L16.3127 48.788C17.2091 49.5696 18.3575 50.0001 19.5469 50.0001H49.0261C49.5653 50.0001 50.0026 49.5628 50.0026 49.0235V0.976562C50.0024 0.717578 49.8997 0.469141 49.7166 0.286035ZM13.2847 47.0704C13.2847 47.6088 12.8466 48.047 12.3081 48.047H2.9334C2.39492 48.047 1.95684 47.6089 1.95684 47.0704V31.1528C1.95684 30.6144 2.39492 30.1763 2.9334 30.1763H6.64424V41.4258C6.64424 41.965 7.08154 42.4023 7.6208 42.4023C8.16006 42.4023 8.59736 41.965 8.59736 41.4258V30.1763H12.3082C12.8467 30.1763 13.2848 30.6144 13.2848 31.1528V47.0704H13.2847ZM16.2186 7.88467L24.0266 5.79248V9.41113L23.3721 9.58652C23.1218 9.65361 22.9086 9.81719 22.7791 10.0415C22.6496 10.2658 22.6145 10.5323 22.6815 10.7825C23.0568 12.183 22.2228 13.6276 20.8223 14.0029C20.5718 14.0701 20.3582 14.234 20.2288 14.4588C20.0994 14.6835 20.0646 14.9505 20.1322 15.2009L23.9388 29.2964H21.9788L20.9688 25.3448C20.9366 25.219 20.8804 25.1031 20.8051 25.0023L16.2186 7.88467ZM24.0266 13.8896V22.1299L22.2454 15.5347C22.9895 15.1505 23.5983 14.5757 24.0266 13.8896ZM38.0563 48.0469H19.5467C18.8294 48.0469 18.1367 47.7873 17.5961 47.3159L15.2378 45.2592V31.7526L19.5013 27.4892L20.2745 30.5145C20.3851 30.9469 20.7744 31.2492 21.2206 31.2492L40.4202 31.2504C41.1741 31.2504 41.7874 31.8637 41.7874 32.6176C41.7874 33.3715 41.1741 33.9848 40.4202 33.9848H30.5823C30.0431 33.9848 29.6058 34.4221 29.6058 34.9613C29.6058 35.5006 30.0431 35.9379 30.5823 35.9379H43.4769C44.2308 35.9379 44.844 36.5512 44.844 37.3051C44.844 38.059 44.2308 38.6723 43.4769 38.6723H30.5823C30.0431 38.6723 29.6058 39.1096 29.6058 39.6488C29.6058 40.1881 30.0431 40.6254 30.5823 40.6254H41.3873C42.1412 40.6254 42.7545 41.2387 42.7545 41.9926C42.7545 42.7465 42.1412 43.3598 41.3873 43.3598H30.5823C30.0431 43.3598 29.6058 43.7971 29.6058 44.3363C29.6058 44.8756 30.0431 45.3129 30.5823 45.3129H38.0563C38.8102 45.3129 39.4234 45.9262 39.4234 46.6801C39.4233 47.4336 38.8101 48.0469 38.0563 48.0469ZM48.0495 48.0469H48.0494H41.0808C41.2701 47.6296 41.3765 47.167 41.3765 46.6797C41.3765 46.1924 41.2701 45.7298 41.0808 45.3125H41.3873C43.2181 45.3125 44.7075 43.823 44.7075 41.9923C44.7075 41.4583 44.5801 40.9537 44.3551 40.5062C45.7609 40.1201 46.797 38.8315 46.797 37.3049C46.797 36.5643 46.553 35.8796 46.1416 35.3269V22.9499C46.1416 22.4106 45.7043 21.9733 45.165 21.9733C44.6258 21.9733 44.1885 22.4106 44.1885 22.9499V34.0624C43.959 34.0121 43.721 33.9848 43.4767 33.9848H43.4446C43.634 33.5675 43.7403 33.1049 43.7403 32.6176C43.7403 30.7867 42.2509 29.2974 40.4201 29.2974H38.8503C40.5172 28.5825 41.6879 26.9257 41.6879 25C41.6879 22.4229 39.5914 20.3264 37.0144 20.3264C34.4374 20.3264 32.3408 22.4229 32.3408 25C32.3408 26.9257 33.5116 28.5825 35.1784 29.2974H29.8402V10.7288C31.5848 10.3486 32.9613 8.97217 33.3414 7.22754H40.6872C41.0673 8.97217 42.4438 10.3486 44.1884 10.7288V13.7649C44.1884 14.3042 44.6257 14.7415 45.1649 14.7415C45.7042 14.7415 46.1415 14.3042 46.1415 13.7649V9.85693C46.1415 9.31768 45.7042 8.88037 45.1649 8.88037C43.715 8.88037 42.5356 7.70078 42.5356 6.25098C42.5356 5.71172 42.0983 5.27441 41.5591 5.27441H32.4696C31.9304 5.27441 31.4931 5.71172 31.4931 6.25098C31.4931 7.70088 30.3136 8.88037 28.8638 8.88037C28.3245 8.88037 27.8872 9.31768 27.8872 9.85693V29.2973H25.9798V1.9542L48.0495 1.95312V48.0469ZM37.0146 27.7205C35.5145 27.7205 34.2941 26.5001 34.2941 25.0001C34.2941 23.5001 35.5146 22.2796 37.0146 22.2796C38.5146 22.2796 39.735 23.5 39.735 25C39.735 26.5 38.5146 27.7205 37.0146 27.7205Z" fill="#76B82A"/>
</svg>
